<mxfile host="Electron" modified="2024-04-17T08:20:35.048Z" agent="Mozilla/5.0 (X11; Linux x86_64) AppleWebKit/537.36 (KHTML, like Gecko) draw.io/24.1.0 Chrome/120.0.6099.109 Electron/28.1.0 Safari/537.36" etag="o_tQ4BA9KKnYlWMvaSHj" version="24.1.0" type="device">
  <diagram name="Page-1" id="3ThuCAjCbuTOKkwMMqkE">
    <mxGraphModel dx="807" dy="689" grid="1" gridSize="10" guides="1" tooltips="1" connect="1" arrows="1" fold="1" page="1" pageScale="1" pageWidth="827" pageHeight="583" math="0" shadow="0">
      <root>
        <mxCell id="0" />
        <mxCell id="1" parent="0" />
        <mxCell id="Wb3i4IcPdHxYaFaxHeRX-16" style="edgeStyle=orthogonalEdgeStyle;rounded=0;orthogonalLoop=1;jettySize=auto;html=1;exitX=0.55;exitY=0.95;exitDx=0;exitDy=0;exitPerimeter=0;entryX=0.5;entryY=0;entryDx=0;entryDy=0;" edge="1" parent="1" source="Wb3i4IcPdHxYaFaxHeRX-1" target="Wb3i4IcPdHxYaFaxHeRX-7">
          <mxGeometry relative="1" as="geometry" />
        </mxCell>
        <mxCell id="Wb3i4IcPdHxYaFaxHeRX-1" value="DWD&amp;nbsp;&lt;div&gt;OpenData&lt;/div&gt;" style="ellipse;shape=cloud;whiteSpace=wrap;html=1;fillColor=#dae8fc;strokeColor=#6c8ebf;" vertex="1" parent="1">
          <mxGeometry x="280" y="10" width="255" height="80" as="geometry" />
        </mxCell>
        <mxCell id="Wb3i4IcPdHxYaFaxHeRX-18" style="edgeStyle=orthogonalEdgeStyle;rounded=0;orthogonalLoop=1;jettySize=auto;html=1;exitX=0.5;exitY=1;exitDx=0;exitDy=0;entryX=0.5;entryY=0;entryDx=0;entryDy=0;" edge="1" parent="1" source="Wb3i4IcPdHxYaFaxHeRX-4" target="Wb3i4IcPdHxYaFaxHeRX-9">
          <mxGeometry relative="1" as="geometry" />
        </mxCell>
        <mxCell id="Wb3i4IcPdHxYaFaxHeRX-4" value="PATH: python/outdir/grib/" style="shape=image;verticalLabelPosition=bottom;labelBackgroundColor=default;verticalAlign=top;aspect=fixed;imageAspect=0;image=data:image/png,iVBORw0KGgoAAAANSUhEUgAAAroAAADbCAYAAACCyjLPAAAABHNCSVQICAgIfAhkiAAAABl0RVh0U29mdHdhcmUAZ25vbWUtc2NyZWVuc2hvdO8Dvz4AAAAwdEVYdENyZWF0aW9uIFRpbWUAb24uIDE3LiBhcHJpbCAyMDI0IGtsLiAwOS4zMCArMDIwMMuphUgAACAASURBVHic7J15XFVV94efc+9lEBAZBMfE2fQVNbVBy/SXQ4UN6uuUaYozzmmmqTlimb4mZM6VU2LOI5pDCOEAIoqgMoiJJDIJiAwK3OH3B6BIwN0Xr0h1ns+HP/Seu9Z3r7322vvsc849UhuLxjpk/pkoavPR0ZNMSf6MNwcfIed56ykninqfsCFkKikjX+fzvVnPW47MPxA5x2RkZJ4Fcm15/qietwAZmScxo3n/j2mWE0VsYjYK24Z0HD+GVvd8mOmX/bzFyfwjkHNMRkbmWSDXlsqIvNAVQeXMxPO7GN5MWcoBGmKW96fv3FA0FSqsAqjotivsqNfJhREfTqGmjSnajCRuBv6Ke28PfFLkiw9/Oyrj2JFz7OmojH36b6Wy9YWx9FS2doki15ZKiSTfuiCCOdWb1sfeXCrlcx05STHEJDysUFUVw7+57TJPj5w//zzkPq08VLa+MJaeytYumb8z8kJXRkZGRkZGRkbmH4nieQuQkZGRkZGRkZGReRbIC10ZGRkZGRkZmb8TkiUtBk9l+qhW8sNWeijXQtfyzRnsuB3Axmn/kQMsUymRHPqzKvU6l7Ly/wJ/dsHsn6THsg7O73ShefXS7mGrYD0VSEXUn4qMT2Xri8qmR0bm30qZtU6qRushI+nbuS6lPbInk085FroS5vUaUcfGFqdmjpgYX5OMzFOjSz2Ge8ee9HvlEzYEqZ+3HKPrUTb/mEVes+hRv3wXZSpbfMSpmPpTkfGpbH1hPD0S1i/1Zdqu/RyJC+N8chCHTq3AtbPDkxOPVA1nt2/YfC2YwJSLeJ/6ho9eroZkqJ0imLX4GM/oCIJOu9Gg6CpAry9BO4WfN36f+ZdCOfxN+ycXIiavMCMi4tHJQtG/4KuzaFOYuCJ6DNRcKvrsiGrON4ZF4y58vOx7frp4Gr+4n+hbS1SRBV03XuDC5Rk4F1u9KZqNZVvaRZb0tjS0daX3hUjbsabnrisEBUykibJQixte966yZriD4bE2CsaodYaPnX8i5dgQ0ZGybSoDr76AOjKcB8bXJCPz9GjSiY9IB0UN2mZXguctZT1GooLqT0XGp7L1hbH0KJ1wcZ9Au4SdrBsdSpKyPm9Nn8oEL1OSXpqAd5IOUFBz8FK++7ol15Yv4NNAaDN+BlP3LCWroxsHb2sF7TxG1bgfS/ZPpKk2lyc/EfAlZAeU9i3o5ubGqPHdqG8hkVi87eqrbB0wgCNmRZbrdm8w/odx1PI5S4xaVI9hmktHwI6QZgAzGgz5mm/dWxK3exf75m7j1u0EbqeK5soDLvlcIq9XG5zrKAi7VdgGiWqvtKOhJoQ9Z8V/c1ZvXwjlWE1q19GibdSVLk1Xcz0c6vXsRn2tlgSnmihIfg4/Y2aEWmfg2PmnYtCi/tElrcxLHDp9kAPrS7ukZUKNLq58eeAQR+9cISgtFL8obzwmNH+8xa6qSYfpK9gafpHAlGC8T33LiLdqPv5csqHj3PVsDvbDJ+EKQWkhHDu3hvEudQxfnStsaT12EWsC/Pj9bhi+V35h0YR22BSOZ2UzRp+7xgnPjo/PmszeYWnKNX4cX8ewIBnJl2TThr5LvmXtmRP8GhtCYHo4AfH+rBrX4LEekRjO/xGv0HOcTo0g6O55Dhz7hiGdip3N6dMsiJBmEV+qGrz22bdsuXqBwHvhBMSdZq/POty62uSfWRuxvySHd/gy4Hd8k8MJvhfKyUubmTXkRSyK6BFql5HQq6dg1+WC3yiczBowzK9wByYSn1WdjL/DWYHjVLJqTi+Pzez5I4Tz6dc4G3eWg6dm0rFqweci9UdUj74cE8VIY8cYvqx6e+CX7sO0DkVbqqTxjAOcj1tB16oVrFkTw45e3RgyYjUHvE9z7uDPLJ25lwTLNrRuXqBR1Yw+kzrBAXdmuR/k7PGDrHH9Ch+pE4OHNs3PMxE7BUjWLzNh66dYr3fj68P3nlygivgSsYOSRqMXMLFLNoeGT2X7HyUsNnVZ3Ll8mbDzIfl/QbHY9x1Am6StzP/Cl3s6QT0GaC4TETsimgGzVybyzXxbdr37IROmbeDQ4XOEhtwkVfjVmzru+f7OFW0LXuloXWS8WfDSWy+huPg7gcmiCzCBvhBpu9KRmg7XOetXjTd71kehrMubLjacPx6F3Qs1DLs1QKC26JtTxNdaoGw7nJXBAZxLC8Pn0iY+H9gE88IPDRg7/2QMaqku9SgLX71AFYU9767dzLASj1Lg0GcJG3/qgcbnZzZP8SAm8QGmNZywvBlHfhpa0d59Ix6uao4tnMmqcAVNPp6I2+5N2H7Yl//5Z4JkgdPrb9AicxtzPjlFmuTAS6OnMWrTMtI6DMHrhuj5VRWcZ29k9ahcDi6Yx9qQTOw6DeXTBetYlPEBkzffQfScuCJ9SY6v0mtMN3Sbv2L5wlukZKhRWVdHumFgDDt0oHHKZmZOOsV909q0GzGRCfs2Yv9hfzzOZFewZhFflrRdtBHPkRI+i+eyJjgFHLsy7sfBtH/REum34pPO06G7F86xpXM5cvsu2ZItLw6ayrSV35Ed1ROPwDzBdlWgnrxQNri8y56XRuL5w+sEjhzNljA1oEOTnoBxL3xX5DhV0Wr298z+IJafPh+L/40sFNaO1GuQR2zB5o5Q/RHSY6wcq1y1Jcv3JEHZb9Px7RfxOHclfwdK6USnnk144LOeoMyK1gy6PHWRnTAJi9o1sFTHcis2/38lh5do3UjL5RUBWLuuZ+ccczb3nMrZC1q6vNYGGymCFJ1+OwAoHOjmuYxu4Qtx/TYMp2VPahH1pc8OaIha0p/3v9ahUzkzcbH+OFR53Y0p/1VyctgaLmWK60kV1awH4bbr0YxUjS4TB+KU+yc9tp5gdG1zcuOucGrlUr7bco0sweKsjfPj95CZjOj+ClW2HycbwPwlOr5ZhahVfsQLJ6H+vhBqu3l17Ktmc+GXS/x33Fs47VfT2f4UO/c3pX13OywlyBVqm1ht0TunCK21CtpnkkWE50I2R6t5obcb49f9iGXGB8z3zvclNHb+4Ri2pNdkkHg9AxRZpJS2j27alqELe2LlN5+B/X7hzqNYnn10iFSrJ67DnYj65n0WrLqBBgj4PRqTJgcZOc2FTad3crfgWO2fl/A9fpYc4MIVK9qFzeKNzrZsv3H30WSkqGKJhaky/2xJpyE3K4ucAr+SowujJtTl3KQeLN2Rmv+d4EhM2vmxaGBXHLduJcGgIJSO8X09JNp7DydO5P3VlwEx1MWFccb3fH4MfSPAdy+fTHNh69ndpDoIaDZo5itDs0B8Eh3exXV4ff74tg9fekTkL9zMbOmtGYy9QbETJO8W5/feevTP8DBz2vfzpM2rtVAExhaZ9EtvVyFl5aHx9Dwk9Y+bpNulk6fLJf3WDWKiSnbytHqMPU7LRoVtDRtI8+WibxBX7uYLDfUrcohI/RHQQw3j5JjQeC9IoKfuCxFf905z0iebRT270cT9ChFqUDR9h+7OGfgv8+O+zjDNxsakUW++dO9M0trh7L+Z70Th6IidlMHlhIdYdaqLnb05tWyyORefjdTWATslpKj12wEFjv3mM72dP/M7HyNZq8SpmH8xX/rtAKDTiZ9wK2rh8nk/HC58x/oiu8Mieu6VIz4lSjDUTimaMWnJy29Yknz+ONvXnOFmipIXPpjMF9/9gGWaC18eFDxJ1Mbx++FwJozvRCvz4wQ8BNVLb/Kq7XUOHI017GRLT1+ItD2tuj22kpoHAd74zfyCAW5qbH5dzqWMBki2tlRTQJrAeJUMqi1lzCkG1Dp14A5WrTtCDsCpSExePML4cS6sPupFYrFAljx2/vkYfe9aUbc1znU0hC49RnwpiaFq4Uwz0zt4+996fKahjiHIPw63gc40MtnJ3RIGrzb5T+IyJZraVUOicAJV0db9KOvG1sq/jKyJY7tLN5aezjegatmGFhZVsVnrT8Cax7YklQmKm7VxUECCkbYIK9RXOWNIbjRnfe8wckArGpns5r6IZiONB5H4pPynNc3NEjhyKtrIu5Mlo3Boz8B5E/jw/5pR01ZBdlI25lUk4s1NDbRUdh7+HfUYd5zq4yFnv17MsR3zWH31/7h02Jtff9nL0d9ukvWU+Vdcj9JIOSY03rVglL4Q8aW+x+kdvmRs6UHXliuJCIEmfV1onHQMz5OZBmo2LlVafsxXuz+n4elZjFtwgay/HKEm3H0A7/2oIOV2Hq8MMcyOZPcWExe25sLMDziXpi/jSvdlmB0xFC360r9TLn6ueyh5E02k7WLx0Y+YndI0S5Y1cKymJfbXnRz3TUEHRF1bSL23DzOi/+tYHPQuoW9LQsOfh48ROedjOr9sSoC/hhdduuAYcQDfUk7cn54y+t3WFmtJTV7WFY57V2XTJCVeb4eS3UiNZG2NleBtPaoKnr/+gvY2IQFxKAc1p4EKEnMff6R/DP5zKd9Ct6wzKJ0WLaDVll0tS8+bsoqLFq0GJEXRb2uIXDOJ0fvNCmzmkBhadGRKoLnN/uFj+flqsQGUl068GlBq0WpBafKU6/6K9EV5Y6gDrRYkKX/SFdFsLITio0KJGrVaTx4YI4aKuvTdtIEp9c+x7svJnI28j2T/Bm5eU8uxe6wnD42uR9+OkhH0YMxxqp/c63uZ86ovW3q48E7f9xjhNZKxwWuYMWglwUUfdDFkN60kPUI5JoDw2DFCXwj6yjy5h98Sf6BH/1asj1DxwcCG3N4xi+AHhtkxHhKW7UezYo8bNvumMfqzkyQW8aFNSiJVV5XqNS2QNOkk3gYkGxxqWaBLTiZVI2bHsvt/6V6nOsof/en6Y8E3VCaopMnsuNOeJa1Hsk/Al4idvQbtVihp3v99GqaewPN4+hN5K9J28fiUjWF2Stesy8tDrVNgZ2eNRP5CF00CCXe0mFa3p6oC4RNT7R8nOXVlMn1cWrL8XA6d363NjZ3H+MPI61yRtiuqWmMl5ZGXl0f4t6P4ZK/EndA81PXykKyssBB9GMNYtaUQg2udlD/Gn/he2WPn30A5Vwo5PHygAxtrqkqQU6QntHFXCI9X4tKrOzW27yahhKRVXwsjIrcPbTs5oTyff0kUVX1e7lSHvLAr3MijrBm2GDoyokMIji75U/XVUCJz+9CqlTnx+8Io8X55bSopd7VYNayPveL3cu9oVKiv8sZQUZc2HeqgCQ/nplpQs5EQ8aW4Ec0t3fu0erkmigul3ANrSAx1eeTm6sDKEotiuYpJM1q1NSfaYwUb917P92VqS/xDXTkWumXnodH1PHxIrmSFlbUCSnwe+On1GHecCpKXSpT3z0R5/8zaJq6sPD2dSUMO4Op5q0gulF5/RNCI5FghZcVHeOwYoS9EfWUHsnvrDT4YNoAe4Wa86xjCDxuvPNpdMmi8l5WrgihqvsuXXuOx3z+JMVN9uVss2LrkEC7fUNC3ewest/9Kug4kmw50aKfg1rqQRw9A6bOTfWQBA9ouK5KOKlrO3MRc58NMHbyRy8k6dJJ+XzoBOwahakrnd+qScfJrLhb7IQGRtovGRx8G2SlDMw//IPomvPp6O2y/vZl/X69JQxo1UZIZFEuaIfOZJpbf9l5jzIgetNr7kC5OEXjvu2n85x4E2q6sVhVLSU2eGnSZt4m4nP9d0zw1OiurJx5OBgX2rw+g/1sKAtdt52LSY8UG1RYhDKx1Jg149c065IWGEV1wR4S+sfNvoJw7uplEh95CMeEjxgxNwveuNXWV19h9IApNbjBb3X+j+9p5bNjdmG1eAdxMykVp7UgdrrD3UDSa+MNs/MmVVZ97Mj/3e45GKGj80QRGtoxl74dHuKvDaBOoLuEwG9YOYc2n61hdbQO7jkeSmleF6k1qkX7EizOxWtClEegdTO6yUcyemcZ2/0Q0tq2pocCgyw8V6suAGKpeG8j4sRJBN/Ko02sco9uncGzQEZK0gpqNhIgvbcwhdh4dxaI53/GFZg0+MSrqdOyHswnceWTIgBjq7nMzPBHl8IGM/CiZM/erUYer7D0cjUZ9g4greXQfMIYBYb8QEpeNwroFNcyMvXozvh5NTATRGXZ0/WwiF5XnSFU50sA8gl37Ig37GZyy9FTgOAVz2k2eTYcHZwgKjeN+rhmOrzrjaJpDbErWk7saZdUfAU9COSYSH2OPHaP40nB90zaCJ85h1nKJh4en4h3zWIdB470sPUINMsF58lTekk6yePMdbF5sik1hH2QmEBN7H606gr0rT9Pvu9ksvq7C6zw4j59BV/xx31LYnwJ2MhK4lVHUt4rqaWp0OWnERceToQEQ8CVkBzC354UG9pip6mFrKqGyf4FGLdLJSbvNrfgHj+/DrdGONo21XPv+8l9PKkTaLhQfAQywo0/z4Z+CGfT1FOZOTWH9iXTqfvQF/ev/wW63AAM3SjTc3n+Yq3NGMn5RDrUvbOGY8MOrRdDXF3rbLmFpZYVSnU5e8YWkWo3WxBJLU3jUOJM2DF07jyENwcUygt4zgx/NOwbVFhEEap1UtxVvdLlLRpW6tB82jk9axLCz15GChwsFxk55dP3NKOeOroaIlfNZ77yQQf9bxQc5CYRvmsuRg1Fk6LTEe33K0OShjJrSm+Erh2BvIfEgOZZrXl9x/HA06bosLswZxqf3ZjFh4hI8qutIufo7G/sv4Sf/TP3uDSKbkPmfMPrPyYwdOYLZw6pTRZtJUlQgW85sLzhGy52fZvC541wmDXfHc6YZ2gfpJEcGcSI624BLBxXpSzyGulwrWrrNZ4CTOdkxwRweMx1P78KHBkQ0GwsBX9okjrqNwuLrWQyd50kvsyziLsXlt+PR7TCGxFBNmOcCtrScQ5+Va+j7MIFrG+fyq3c0GZoYdoycgvXi8Qxa/QNTbEzRZN8nPT6MMzef1R1MRtKT6cOqCZuxWziAubtGo8iM48pP8/DeH0mGQZtOZeipyHEqVUFpVo2XRyxgUL1qmJFDemwkQcs+ZcWO4vf5llF/RHwJ5VghZcXH2GPHOL60tw+y5ZexrBqawTaP30h/IniGaC5Lj0BzFI60bFcbk9pOzPd//4mPco9/wdt9dnNPpyVh63QmWc5i+uRFrPgMUi+fYEXfxRz8U2uAHZH4CvgSRNl8KB6+bjQsnEEbLOWXj7Tc/cEVl8lnKXy8SNmoMU6KZI5fv19CbRfRYyzN4nbK1qwhdu0UppjNYtLo//HTHBMybwSye+gUVp9/aICeAlV/Hudo4GfM6qLj7Phfy3WFU39f6Gu7AouqVSD3LsXvONCpNaixxMJK4lHSq2O4cPIGH/aXCPCPefJkw6DaIkJZa61sbgWc52b/PizaNwxTTQZ3Lvqwus9ytvkXzBdGGzt/b6Q2Fo3/Bc38l6KozUdHTzIl+TPeHHzkmd6W8CxR1PuEDSFTSRn5Op/v/TfdQi9TUcg5JiMj8yyQa8vz59/zi8EyfxPMaN7/Y5rlRBGbmI3CtiEdx4+h1T0fZvqJvy1HRqZ05ByTkZF5Fsi1pTIiL3RFUDkz8fwuhjcr7f0oGmKW96fv3NDn8JrAZ0xFt11hR71OLoz4cAo1bUzRZiRxM/BX3Ht74CPyy+gylY6JFyMq19iRc+zp+DfXw8pGZesLY+mpbO0SRa4tlRL51gUhzKnetD725qU9eaMjJymGmATD71Gq/Pyb2y5jDKo3fVHOn38Uck2oPFS2vjCWnsrWLpm/M/JCV0ZGRkZGRkZG5h+J6M8gy8jIyMjIyMjIyPytkBe6MjIyMjIyMjIy5UeypMXgqUwf1arSPfxVroWu5Zsz2HE7gI3T/lPpGiQjAyA59GdV6nUuZeX/Bf7sgtk/SY9lHZzf6ULz6uV7Y0Nli48hVET9qcj4VLa+qGx6ZGRkKgdl1l6pGq2HjKRv57qU9gjh86IcC10J83qNqGNji1MzR0yMr0lG5qnRpR7DvWNP+r3yCRuCnv+LvY2tR9n8YxZ5zaJH/fJdlKls8RGnYupPRcansvWF8fRIWL/Ul2m79nMkLozzyUEcOrUC184OT048UjWc3b5h87VgAlMu4n3qGz56uVqRl+4J2imCWYuP8YyOIOi0Gw2Kzrp6fQnaKfy88fvMvxTK4W/aPznxm7zCjIiIRycLRf+Cr86iTWHiiugxUHOp6LMjolm0Xfqo2pXZIYGcSYvgYkY45/70xWv3HHq9ZF2kXQpqjNnK+b/4iuSEZ8eCsV9wTMp3dCvlbEz12hccSjvO5PZFO1DJfxYe53yBZqXzZHamneaLN4s2wIRXPc9y/twEmigBrOm56wpBARML/g2KZm543bvKmuEOBvSHSD4by5cxMUbtNXwsG4NybIjoSNk2lYFXX0AdGc4D42uSkXl6NOnER6SDogZtsyvB85ayHiNRQfWnIuNT2frCWHqUTri4T6Bdwk7WjQ4lSVmft6ZPZYKXKUkvTcA7SQcoqDl4Kd993ZJryxfwaSC0GT+DqXuWktXRjYO3tYJ2HqNq3I8l+yfSVJtb7M1eAr6E7IDSvgXd3NwYNb4b9S0kEou3XX2VrQMGcKTI67sluzcY/8M4avmcJUYtqscwzaUjYEdIs8gx+pFU1ahZryrRy135+lAWFjWb8uaUacw55AQdxrC/6Nvacvz59q0lnMst/A8d6rTbf33d+7NGWZPadbRoG3WlS9PVXA+Hej27UV+rJcGpJgqSxX7qTCSfjeXLqBih9ho4lo2FQYvoR5e0Mi9x6PRBDqwv7ZKWCTW6uPLlgUMcvXOFoLRQ/KK88ZjQ/PGWtqomHaavYGv4RQJTgvE+9S0j3qr5+HPJho5z17M52A+fhCsEpYVw7NwaxrvUMXx1rrCl9dhFrAnw4/e7Yfhe+YVFE9phUzhWlc0Yfe5akbNEwOwdlqZc48fxdQwLkpF8STZt6LvkW9aeOcGvsSEEpocTEO/PqnENHusRieH8H/EKPcfp1AiC7p7nwLFvGNKp2NmTPs2CCGkW8aWqwWuffcuWqxcIvBdOQNxp9vqsw62rTf6ZrBH7S3J4hy8Dfsc3OZzge6GcvLSZWUNexKKIHqF2GQm9egp2VC74jcLJrAHD/CIe7XL4rOpk/B3OChynklVzenlsZs8fIZxPv8bZuLMcPDWTjlULPhepP6J69OWYKEYaO8bwZdXbA790H6Z1KNpSJY1nHOB83Aq6Vq1gzZoYdvTqxpARqzngfZpzB39m6cy9JFi2oXXzAo2qZvSZ1AkOuDPL/SBnjx9kjetX+EidGDy0aX6eidgpQLJ+mQlbP8V6vRtfH7735AJVxJeIHZQ0Gr2AiV2yOTR8Ktv/KGGxqcvizuXLhJ0Pyf8LisW+7wDaJG1l/he++a9dFdFjgOYyEbEjolnkGGF0ZP4ZSeTlUC4e2813o1ZzybIjPbrZPTkGdZnEh0cRfa3w7zox8Q9KeD3xM0bpSE2H65z1q8abPeujUNblTRcbzh+Pwu6FGuJ9IZLPxvIFQrVO3xwnvvYDZdvhrAwO4FxaGD6XNvH5wCaYG9L2Z4BBlnWpR1n46gWqKOx5d+1mhpV4lAKHPkvY+FMPND4/s3mKBzGJDzCt4YTlzTjyS4IV7d034uGq5tjCmawKV9Dk44m47d6E7Yd9+Z9/JkgWOL3+Bi0ytzHnk1OkSQ68NHoaozYtI63DELxuiJ7PVMF59kZWj8rl4IJ5rA3JxK7TUD5dsI5FGR8wefMdyvMG6mftS3J8lV5juqHb/BXLF94iJUONyro60g0DY9ihA41TNjNz0inum9am3YiJTNi3EfsP++NxJruCNYv4sqTtoo14jpTwWTyXNcEp4NiVcT8Opv2Llki/FZ90ng7dvXCOLZ3Lkdt3yZZseXHQVKat/I7sqJ54BOYJtqsC9eSFssHlXfa8NBLPH14ncORotoSpAR2a9AQj73JU5DhV0Wr298z+IJafPh+L/40sFNaO1GuQR2zBC4WE6o+QHmPlWOWqLVm+JwnKfpuOb7+Ix7kr+Ts+Sic69WzCA5/1BGVWtGbQ5amL7DxJWNSugaU6llux+f8rObxE60ZaLq8IwNp1PTvnmLO551TOXtDS5bU22EgRpOj02wFA4UA3z2V0C1+I67dhOC17UouoL312QEPUkv68/7UOncqZiYv1x6HK625M+a+Sk8PWcClTXE+qqGY9CLddj2aRdpUXXWYW2VoJCzMTJKj4haw+zKtjXzWbC79c4r/j3sJpv5rO9qfYub8p7bvbYSlBrqBovflsNF9itU7vHCe09itojUkWEZ4L2Ryt5oXeboxf9yOWGR8w3zvfl9BYNjKGLaE1GSRezwBFFiml7VubtmXowp5Y+c1nYL9fuPNI+9lHh0i1euI63Imob95nwaobaICA36MxaXKQkdNc2HR6J3cLjtX+eQnf42fJAS5csaJd2Cze6GzL9ht3Hw0ERRVLLEyV+WcnOg25WVnkFPiVHF0YNaEu5yb1YOmO1PzvBEdi0s6PRQO74rh1KwkGBaF0jO/rIdHeezhxIu+vvgyIoS4ujDO+5/Nj6BsBvnv5ZJoLW8/uJtVBQLNBM18ZmgXik+jwLq7D6/PHt3340iMif+FmZktvzWDsDYqdIHm3OL/31qN/hoeZ076fJ21erYUiMLbIpF96uwopKw+Np+chqX/cJN0unTxdLum3bhATVbKTp9Vj7HFaNipsa9hAmi8XfYO4cjdfaKhfkUNE6o+AHmoYJ8eExntBAj11X4j4uneakz7ZLOrZjSbuV4hQg6LpO3R3zsB/mR/3dYZpNjYmjXrzpXtnktYOZ//NfCcKR0fspAwuJzzEqlNd7OzNqWWTzbn4bKS2DtgpIUWt3w4ocOw3n+nt/Jnf+RjJWiVOxfyL+dJvBwCdTnwhpqiFy+f9cLjwHeuL7A6L6LlXjviUKMFQO6VoFmmX4UiY2jeh8+xhvJx7ge9OJD15smX+LstSrz/+98PjzKw3nmNZBrhQ5l/9Glbsv7UxvsImFNXtsZXUPAjwxm/mFwxwU2PzOtwc5AAAIABJREFU63IuZTRAsrWlmgLSyrFWK3FcGMmXZFCtK2OOM6D2qgN3sGrdEXIATkVi8uIRxo9zYfVRLxKL1ZaSx7LxMfpesaJua5zraAhdeoz4UjpC1cKZZqZ38Pa/9Xhlr44hyD8Ot4HONDLZyd0SBq82+U/iMiWa2lVDonACVdHW/SjrxtbKv4ysiWO7SzeWns43oGrZhhYWVbFZ60/Amse2JJUJipu1cVBAgpFOHSvUVzljSG40Z33vMHJAKxqZ7Oa+iGYj5Z9IfFL+05rmZgkcORVdIfdgKRzaM3DeBD78v2bUtFWQnZSNeRWJeHNTAy2VnYd/Rz3GHaf6eMjZrxdzbMc8Vl/9Py4d9ubXX/Zy9LebZD1l/hXXozRSjgmNdy0YpS9EfKnvcXqHLxlbetC15UoiQqBJXxcaJx3D82SmgZqNS5WWH/PV7s9peHoW4xZc4K9rFDXh7gN470cFKbfzeGWIYXYku7eYuLA1F2Z+wLk0fRlXui/D7IihaNGX/p1y8XPdQ8mbViJtF4uPfsTs6NcsdkzZmPCapz8BHkpUJgo0t/3ZMGAGO4tfBco5w4oe3xBYeI+u9j53DL1BVBPHwdET8LpWaFtJo3HfM7+TuAnJ1hZrSU1e1hWOe1dl0yQlXm+Hkt1IjWRtjVU5bv0pNZ+N5EtVwfPpX9DeJiQgDuWg5jRQQWLu44/01wTjUb6FbllnszotWkCrLbtalt5PZRUXLVoNSIqi39YQuWYSo/ebFdjMITG0yECRJNDcZv/wsfx8tdgAyksnXg0otWi1oDR5ynV/RfqivDHUgVYLkpQ/6YpoNhZC8VGhRI1arScPjBFDRV36btrAlPrnWPflZM5G3keyfwM3r6nl2D3Wk4dG16NvR8kIejDmONVP7vW9zHnVly09XHin73uM8BrJ2OA1zBi0kuDUIv4M2U0rSY9QjgkgPHaM0BeCvjJP7uG3xB/o0b8V6yNUfDCwIbd3zCL4gWF2jIeEZfvRrNjjhs2+aYz+7CSJRXxok5JI1VWlek0LJE06ibcByQaHWhbokpNJ1YjZsez+X7rXqY7yR3+6/ljwDZUJKmkyO+60Z0nrkewT8CViZ69BuxVKmvd/n4apJ/A8nv5E3oq0XTw+ZWOYndI1G3aMPtSEfDUY9/0PaDh6Oe7vp3IjPOWvt87o7nMnLJzInHI5KSCX1OhwIkMfL3RVSY9XXTqtBi0KlMWmFKWJErRaNICiqjVWUh55eXmEfzuKT/ZK3AnNQ10vD8nKCgvDnngqM5+N5stYta4Qg2uvlF9znvhe2W1/FpRzpZDDwwc6sLGmqgQ5RVqujbtCeLwSl17dqbF9NwklDET1tTAicvvQtpMTyvP5l0RR1eflTnXIC7vCjTzKmmGLoSMjOoTg6JI/VV8NJTK3D61amRO/L4wSx4o2lZS7Wqwa1sde8Xu5dzQq1Fd5Y6ioS5sOddCEh3NTLajZSIj4UtyI5pbufVq9XBPFhVLugTUkhro8cnN1YGWJRbFcxaQZrdqaE+2xgo17r+f7MrUl/qGuHAvdsvPQ6HoePiRXssLKWgElPn/79HqMO04FyUslyvtnorx/Zm0TV1aens6kIQdw9bxVJBdKrz8iaERyrJCy4iM8dozQF6K+sgPZvfUGHwwbQI9wM951DOGHjVce7eYYNN7LylVBFDXf5Uuv8djvn8SYqb7cLRZsXXIIl28o6Nu9A9bbfyVdB5JNBzq0U3BrXcijh5v02ck+soABbZcVSUcVLWduYq7zYaYO3sjlZB06Sb8vnYAdg1A1pfM7dck4+TUXsw1vu2h89GGQnTI0G3SMflU8TLxFTFQqN7/8gmav/8xnC70JHudLegXfoKtLSiJFa0ODFx1R+BTUBEVNGjatii4piTQtSNWqYimpyVODLvM2EZfzv2uap0ZnZfXEA8z60JfPhvlSYP/6APq/pSBw3XYuJj02ZlCtE8LA2mvSgFffrENeaBjRBXdE6Gv7s6CcO7qZRIfeQjHhI8YMTcL3rjV1ldfYfSAKTW4wW91/o/vaeWzY3ZhtXgHcTMpFae1IHa6w91A0mvjDbPzJlVWfezI/93uORiho/NEERraMZe+HR7irw2gTqC7hMBvWDmHNp+tYXW0Du45HkppXhepNapF+xIszsVrQpRHoHUzuslHMnpnGdv9ENLatqaHAoO3+CvVlQAxVrw1k/FiJoBt51Ok1jtHtUzg26AhJWkHNRkLElzbmEDuPjmLRnO/4QrMGnxgVdTr2w9kE7jwyZEAMdfe5GZ6IcvhARn6UzJn71ajDVfYejkajvkHElTy6DxjDgLBfCInLRmHdghpmxl69GV+PJiaC6Aw7un42kYvKc6SqHGlgHsGufZGG/exMWXoqcJyCOe0mz6bDgzMEhcZxP9cMx1edcTTNITYl68ldhLLqj4AnoRwTiY+xx45RfGm4vmkbwRPnMGu5xMPDU/GOeazDoPFelh6hBpngPHkqb0knWbz5DjYvNsWmsA8yE4iJvY9WHcHelafp991sFl9X4XUenMfPoCv+uG8p7E8BOxkJ3Moo6ltF9TQ1upw04qLjydAACPgSsgOY2/NCA3vMVPWwNZVQ2b9Aoxbp5KTd5laRXwRQ1GhHm8Zarn1/+a8nFSJtF4qPAAbYKVOzAccYxINQNs/ah8uembhuCsAj8OHjzyQrajVvSuMil711mnQSohLJ0uk/RkSfLuV3jvtk8+VnXzE2cRV+MRJ13xvHsJezOTfen3SdhJWVFUp1OnnFF3dqNVoTSyxNQSwY+vI5A3NDfJm0YejaeQxpCC6WEfSeGfxoHjSo1okgUHuluq14o8tdMqrUpf2wcXzSIoadvY4UPOwoMJbLo0sP5dzR1RCxcj7rnRcy6H+r+CAngfBNczlyMIoMnZZ4r08ZmjyUUVN6M3zlEOwtJB4kx3LN6yuOH44mXZfFhTnD+PTeLCZMXIJHdR0pV39nY/8l/OT/lI9u/oVsQuZ/wug/JzN25AhmD6tOFW0mSVGBbDmzveAYLXd+msHnjnOZNNwdz5lmaB+kkxwZxInobAO26ivSl3gMdblWtHSbzwAnc7Jjgjk8Zjqe3oUPD4hoNhYCvrRJHHUbhcXXsxg6z5NeZlnEXYrLb8ej22EMiaGaMM8FbGk5hz4r19D3YQLXNs7lV+9oMjQx7Bg5BevF4xm0+gem2Jiiyb5PenwYZ24+qzuGjKQn04dVEzZjt3AAc3eNRpEZx5Wf5uG9P5IMg3ZDytBTkeNUqoLSrBovj1jAoHrVMCOH9NhIgpZ9yoodxe/zLaP+iPgSyrFCyoqPsceOcXxpbx9kyy9jWTU0g20evxXbHTNEc1l6BJqjcKRlu9qY1HZivv/7T3yUe/wL3u6zm3s6LQlbpzPJchbTJy9ixWeQevkEK/ou5mDhb6kK2RGJr4AvQZTNh+Lh60bDwhm0wVJ++UjL3R9ccZl8lsLHeZSNGuOkSOb49fsl1HYRPcbSLG6nbM3ixxhKlt96Np/9kMnz+rLrvZ+JK5Rl1ompZ568mVZ3fz+f1p+OX47+Y86IONcmcMhtLFW/mkb/FT/iaq0jM/Yq/nPGssIrES0KLKpWgdy7FL8LQKfWoMYSCysJoYGhN5/3Ym6IL3UMF07e4MP+EgH+MU+e/BhU60Qoa+2Xza2A89zs34dF+4ZhqsngzkUfVvdZzjb/LMG2i45lw5DaWDSudL/iIWMkFLX56OhJpiR/xpuDjzzT2xKeJYp6n7AhZCopI1/n873P8pZ1mX8rco7JyMj8G/g31rpn9wu9MjLlwozm/T+mWU4UsYnZKGwb0nH8GFrd82GmX7lvBpORKYKcYzIyMv8G5FoH8kJXDJUzE8/vYniz0t5HoiFmeX/6zg19Dq/le8ZUdNsVdtTr5MKID6dQ08YUbUYSNwN/xb23Bz4iv4wuU7mojGNHzrGnozL26b+VytYXlU1PRVIZ2y7XOkC+dUEQc6o3rY+9eWlP3ujISYohJuFhKZ//nfk3t13m6ZHz55+H3KeVh8rWF5VNT0Xyb2575UZe6MrIyMjIyMjIyPwjMegnjmVkZGRkZGRkZGT+LsgLXRkZGRkZGRkZmZKRLGkxeCrTR7X6Wz7YVa6FruWbM9hxO4CN0/7zt2y0zD8fyaE/q1Kvcykr/y/wZxfM/kl6LOvg/E4Xmlcv3xsbKlt8DKEi6k9Fxqey9UVl0yMjI/PsKbOuStVoPWQkfTvXpbRH7Soz5VjoSpjXa0QdG1ucmjliYnxNMjJPjS71GO4de9LvlU/YEPSMX6T9HPQom3/MIq9Z9KhfvosylS0+4lRM/anI+FS2vjCeHgnrl/oybdd+jsSFcT45iEOnVuDa2eHJiUeqhrPbN2y+FkxgykW8T33DRy9XK/LSPUE7RTBr8TGe0REEnXajQdGZWa8vQTuFnzd+n/mXQjn8TfsnFwcmrzAjIuLRyULRv+Crs2hTmLgiegzUXCr67IhoFm2XHkx7eRKQ+Vcbl7KuczFxBW8VnlmZ1aPLvFV4RV4iMOUSR8+sYvz79TA11I5AbLquOsbJhCsEZ0YRnHqRY+c3MtutHXaFSVa1K7NDAjmTFsHFjHDO/emL1+459HrJukhfKKgxZivn/6InkhOeHZ+oV6ZOb+K6fhv7Yi4TmHSeI2c38PlQZ6o+wxdzlo4x6qrh47SiKMeGiI6UbVMZePUF1JHhPDC+JhmZp0eTTnxEOihq0Da7EjxvKesxEhVUfyoyPpWtL4ylR+mEi/sE2iXsZN3oUJKU9Xlr+lQmeJmS9NIEvJN0gIKag5fy3dctubZ8AZ8GQpvxM5i6ZylZHd04eFsraOcxqsb9WLJ/Ik21ucXe2iXgS8gOKO1b0M3NjVHju1HfQiKxeNvVV9k6YABHiry+W7J7g/E/jKOWz1li1KJ6DNNcOgJ2hDSLHKOfvN+WMOjlVSgksOw5jw2zJNa7zMc3HXSa+yTkAlI1Xv/fJpZ+kMgvs8az5IaSRv0mMXnLZuwG9sL9WLqYHSFMsHmhLtaXvmfEDF8emtpQ7/8GM9H9J5pZ9Md1eSRaVTVq1qtK9HJXvj6UhUXNprw5ZRpzDjlBhzHsL/qGuRx/vn1rCece+dehTrv96NW8yoZ9+eaEO+3vHmHzrA2EJapwaPkq7ezMyH0uJcAIddXAcVqRGLTQfnRJK/MSh04f5MD60i5pmVCjiytfHjjE0TtXCEoLxS/KG48JzR9ve6tq0mH6CraGXyQwJRjvU98y4q2ajz+XbOg4dz2bg/3wSbhCUFoIx86tYbxLHcNX5wpbWo9dxJoAP36/G4bvlV9YNKEdNoVjVdmM0eeuPXnGZfYOS1Ou8eP4OoYFyUi+JJs29F3yLWvPnODX2BAC08MJiPdn1bgGj/WIxHD+j3iFnuN0agRBd89z4Ng3DOlU7AxLn2ZBhDSL+FLV4LXPvmXL1QsE3gsnIO40e33W4dbVJv/M2Yj9JTm8w5cBv+ObHE7wvVBOXtrMrCEvYlFEj1C7jIRePQU7Khf8RuFk1oBhfhGPdgx8VnUy/g5nBY5Tyao5vTw2s+ePEM6nX+Ns3FkOnppJx6oFn4vUH1E9+nJMFCONHWP4surtgV+6D9M6FG2pksYzDnA+bgVdq1awZk0MO3p1Y8iI1RzwPs25gz+zdOZeEizb0Lp5gUZVM/pM6gQH3JnlfpCzxw+yxvUrfKRODB7aND/PROwUIFm/zIStn2K93o2vD997coEq4kvEDkoajV7AxC7ZHBo+le1/lLDY1GVx5/Jlws6H5P8FxWLfdwBtkrYy/wvf/NeciugxQHOZiNgR0SxyjAC6jHj+CI8i+tp1bt7JQqfLIiniOtHXorgRmUCWDhROvRk+yI7z86bgse0soQH+7Js+ie9P2/HeZ32ooxCzYwi69NtEhYYTceEcx5fNYOURDc37dafho0DryPwzksjLoVw8tpvvRq3mkmVHenSze7Ju6DKJD48i+lrh33Vi4h/k55FkR/eFM3jjwS5mvDONH7x8CfztJIc9F7NgxQXD3mAqUMf0zV/i6zpQth3OyuAAzqWF4XNpE58PbIJ54YcGjNOKxiDvutSjLHz1AlUU9ry7djPDSjxKgUOfJWz8qQcan5/ZPMWDmMQHmNZwwvJmHPklwYr27hvxcFVzbOFMVoUraPLxRNx2b8L2w778zz8TJAucXn+DFpnbmPPJKdIkB14aPY1Rm5aR1mEIXjdEf3K5Cs6zN7J6VC4HF8xjbUgmdp2G8umCdSzK+IDJm+9Qnjc+P2tfkuOr9BrTDd3mr1i+8BYpGWpU1tWRbhgYww4daJyymZmTTnHftDbtRkxkwr6N2H/YH48z2RWsWcSXJW0XbcRzpITP4rmsCU4Bx66M+3Ew7V+0RPqt+KTzdOjuhXNs6VyO3L5LtmTLi4OmMm3ld2RH9cQjME+wXRWoJy+UDS7vsuelkXj+8DqBI0ezJUwN6NCkJ2DcC98VOU5VtJr9PbM/iOWnz8fifyMLhbUj9RrkEVvwAh+h+iOkx1g5VrlqS5bvSYKy36bj2y/ice5K/o/SK53o1LMJD3zWE5RZ0ZpBl6cu8uP4Eha1a2CpjuVWbP7/Sg4v0bqRlssrArB2Xc/OOeZs7jmVsxe0dHmtDTZSBCk6/XYAUDjQzXMZ3cIX4vptGE7LntQi6kufHdAQtaQ/73+tQ6dyZuJi/XGo8robU/6r5OSwNVzKFNeTKqpZD8Jt16NZpF3GQcLqtVdpIYXhcSL5cU5qE/E/HMb0xa/Rptombqc9y11CNTk5WlAokUo5CdRlZpGtlbAwM0ECoboh2b7JOz2siFq6kYCn0i9Wx/TOX0LrugLtJllEeC5kc7SaF3q7MX7dj1hmfMB873xfQuP0OWDYMluTQeL1DFBkkVLa3rZpW4Yu7ImV33wG9vuFO4/ad/bRIVKtnrgOdyLqm/dZsOoGGiDg92hMmhxk5DQXNp3eyd2CY7V/XsL3+FlygAtXrGgXNos3Otuy/cbdR0mlqGKJhaky/wxGpyE3K4ucAr+SowujJtTl3KQeLN2Rmv+d4EhM2vmxaGBXHLduJcGgIJSO8X09JNp7DydO5P3VlwEx1MWFccb3fH4MfSPAdy+fTHNh69ndpDoIaDZo5itDs0B8Eh3exXV4ff74tg9fekTkL9zMbOmtGYy9QbETJO8W5/feevTP8DBz2vfzpM2rtVAExhaZ9EtvVyFl5aHx9Dwk9Y+bpNulk6fLJf3WDWKiSnbytHqMPU7LRoVtDRtI8+WibxBX7uYLDfUrcohI/RHQQw3j5JjQeC9IoKfuCxFf905z0iebRT270cT9ChFqUDR9h+7OGfgv8+O+zjDNxsakUW++dO9M0trh7L+Z70Th6IidlMHlhIdYdaqLnb05tWyyORefjdTWATslpKj12wEFjv3mM72dP/M7HyNZq8SpmH8xX/rtAKDTiZ9wK2rh8nk/HC58x/oiu8Mieu6VIz4lSjDUTimaRdplHBTY1XZEmXuThLtFE1JL2u14cpWNcHRQQNqzWUApzO1o0H0Uw3tacPtHvxJuyZAwtW9C59nDeDn3At+dSHryBNH8XZalXn/874fHmVlvPMeyQPFCfeqYZnI19M+nOqmUDKpjZcxfBtRVdeAOVq07kr/rfCoSkxePMH6cC6uPepFYrDElj9Png9H3kxV1W+NcR0Po0mPEl5KDqhbONDO9g7f/rcerf3UMQf5xuA10ppHJTu6WMHi1yX8SlynR1K4aEoUTqIq27kdZN7ZW/mVkTRzbXbqx9HS+AVXLNrSwqIrNWn8C1jy2JalMUNysjYMCEow0QivUVzljSG40Z33vMHJAKxqZ7Oa+iGYj5ahIfFL+05rmZgkcORVt5N3JklE4tGfgvAl8+H/NqGmrIDspG/MqEvHmpvq//ARl5+HfUY9xx6k+HnL268Uc2zGP1Vf/j0uHvfn1l70c/e0mWU+Zf8X1KI2UY0LjXQtG6QsRX+p7nN7hS8aWHnRtuZKIEGjS14XGScfwPJlpoGbjUqXlx3y1+3Manp7FuAUXyPrLEWrC3Qfw3o8KUm7n8coQw+xIdm8xcWFrLsz8gHN6d8lK92WYHTEULfrSv1Mufq57KHljS6TtYvHRj5gd/ZrFjnkqyryVxoATDQMweW8Z/veXISkU6B4kcnnbLKYtDiH3kRwTXvP0J8BDicpEgea2PxsGzGBn8StXOWdY0eMbAgvv0dXe507hIlKrRWfIiVIpqCp4rvwL2tuEBMShHNScBipILHI/tP7xXrGUb6FbVifptGgBrbbsall6DpfV/Vq0GpAURb+tIXLNJEbvNyuwmUNiaJGkkyTQ3Gb/8LH8fLVYMualE68GlFq0WlCaPOW6vyJ9Ud4Y6kCrBUnKn3RFNBsLofioUKJGrdaTB8aIoaIufTdtYEr9c6z7cjJnI+8j2b+Bm9fUcuwe68lDo+vRVyiNoAdjjlP95F7fy5xXfdnSw4V3+r7HCK+RjA1ew4xBKwlOLeLP4EmimB6hHBNAeOwYoS8EfWWe3MNviT/Qo38r1keo+GBgQ27vmEXwA8PsGA8Jy/ajWbHHDZt90xj92UkSi/jQJiWRqqtK9ZoWSJp0Em8Dkg0OtSzQJSeTqhGzY9n9v3SvUx3lj/50/bHgGyoTVNJkdtxpz5LWI9kn4EvEzl6DdiuUNO//Pg1TT+B5PP2JvBVpu3h8ysYwO6VrNuyYp0FL6p1kNKY1qFldAXGPd+5t69bEVHOX5GTjn5Hl+S1nxPRTZD7M4O7tRDL/8jCbmpCvBuO+/wENRy/H/f1UboSn/HVnVnefO2HhRJZww632zm0S1FY0bF4bxfFb5d/VNVYdK8Tguirl15Mnvlf2OH1elHOlkMPDBzqwsaaqBDlFoqONu0J4vBKXXt2psX03CSUMRPW1MCJy+9C2kxPK8/mXRFHV5+VOdcgLu8KNPPSczRVFR0Z0CMHRJX+qvhpKZG4fWrUyJ35fWMk3emtTSbmrxaphfewVv5d7R6NCfZU3hoq6tOlQB014ODfVgpqNhIgvxY1obunep9XLNVFcKOUeWENiqMsjN1cHVpZYFMtVTJrRqq050R4r2Lj3er4vU1viH+rKsdAtOw+NrufhQ3IlK6ysFUBJs93T6zHuOBUkL5Uo75+J8v6ZtU1cWXl6OpOGHMDVs+iEUHr9EUEjkmOFlBUf4bFjhL4Q9ZUdyO6tN/hg2AB6hJvxrmMIP2y88mjHx6DxXlauCqKo+S5feo3Hfv8kxkz15W6xYOuSQ7h8Q0Hf7h2w3v4r6TqQbDrQoZ2CW+tCHj3cpM9O9pEFDGi7rEg6qmg5cxNznQ8zdfBGLifr0En6fekE7BiEqimd36lLxsmvuZhteNtF46MPg+yUodmgY54KHZkBgYTrJtGpmwO7Nifmj1NFDTq91wpCPAlJfwZ7uhkJ/HEtmtKbpONh4i1iolK5+eUXNHv9Zz5b6E3wOF9E5ejSzvF7QB4zXD+h3UZ3gu6X9UUF9q8PoP9bCgLXbedi0uPEN6iOCWFgXTVpwKtv1iEvNIzogjsi9I3T50U5d3QziQ69hWLCR4wZmoTvXWvqKq+x+0AUmtxgtrr/Rve189iwuzHbvAK4mZSL0tqROlxh76FoNPGH2fiTK6s+92R+7vccjVDQ+KMJjGwZy94Pj3BXh9EmUF3CYTasHcKaT9exutoGdh2PJDWvCtWb1CL9iBdnYrWgSyPQO5jcZaOYPTON7f6JaGxbU0OBQZcEKtSXATFUvTaQ8WMlgm7kUafXOEa3T+HYoCMkaQU1GwkRX9qYQ+w8OopFc77jC80afGJU1OnYD2cTuPPIkAEx1N3nZngiyuEDGflRMmfuV6MOV9l7OBqN+gYRV/LoPmAMA8J+ISQuG4V1C2qYGXv1Znw9mpgIojPs6PrZRC4qz5GqcqSBeQS79kWWuOwtl54KHKdgTrvJs+nw4AxBoXHczzXD8VVnHE1ziE3JenKnoaz6I+BJKMdE4mPssWMUXxqub9pG8MQ5zFou8fDwVLxjHuswaLyXpUeoQSY4T57KW9JJFm++g82LTbEp7IPMBGJi76NVR7B35Wn6fTebxddVeJ0H5/Ez6Io/7lsK+1PATkYCtzKK+lZRPU2NLieNuOh4MjQAAr6E7ADm9rzQwB4zVT1sTSVU9i/QqEU6OWm3uVX4dD2gqNGONo21XPv+8l9PKkTaLhQfAQywU6ZmA455WrQx+9i4YyjLF65gcu73nLyhoFH/yUzolMaRQXsfb/I+Lx6EsnnWPlz2zMR1UwAegQ8ffyZZUat5UxoX2RHWadJJiEokSxvPoS/X0PPoFP73qzU/r/+Nq7eyqFLPmXb2l1mz4gwZhQlk0oaha+cxpCG4WEbQe2bwoznOoDomgkBdleq24o0ud8moUpf2w8bxSYsYdvY6UvAgo8A4LY8uI1DOHV0NESvns955IYP+t4oPchII3zSXIwejyNBpiff6lKHJQxk1pTfDVw7B3kLiQXIs17y+4vjhaNJ1WVyYM4xP781iwsQleFTXkXL1dzb2X8JP/kZ9dBPIJmT+J4z+czJjR45g9rDqVNFmkhQVyJYz2wuO0XLnpxl87jiXScPd8ZxphvZBOsmRQZyIzjZgO78ifYnHUJdrRUu3+QxwMic7JpjDY6bj6V348ICIZmMh4EubxFG3UVh8PYuh8zzpZZZF3KW4/HY8uh3GkBiqCfNcwJaWc+izcg19HyZwbeNcfvWOJkMTw46RU7BePJ5Bq39gio0pmuz7pMeHcebms7qryEh6Mn1YNWEzdgsHMHfXaBSZcVz5aR7e+yMfF8mn1VOR41SqgtKsGi+PWMCgetUwI4f02EiCln3Kih3F7/Mto/6I+BLKsULKio+xx45xfGlvH2TLL2NZNTSDbR6/FdtpMkRzWXoEmqNwpGW72pjUdmK+//tPfJR7/Ave7rObezotCVunM8lyFtMnL2LFZ5B6+QSH3twIAAAgAElEQVQr+i7mYOHvkgrZEYmvgC9BlM2H4uHrRsPCGbTBUn75SMvdH1xxmXyWwkd+lI0a46RI5vj1+yXUdhE9xtIsbqdszeLHPDW6e/hPHcaslJmMWrSaj+zhXmQAe12ns/aIsR9+Kx9ZfuvZfPZDJs/ry673fn68+DbrxNQznZ44Vnd/P5/Wn45fDuSErGNC93hGzRlK78XvMsZKR2ZcJOe3XcVC4vH4Usdw4eQNPuwvEeAf8+SJjUF1TISy1nXZ3Ao4z83+fVi0bximmgzuXPRhdZ/lbPMvmJuMNk6Nj9TGonFlyBeZZ4GiNh8dPcmU5M94c/CRZ3pbwrNEUe8TNoRMJWXk63y+93nf1i7zT0TOMRkZmb87ch0rmef7K74yMn/BjOb9P6ZZThSxidkobBvScfwYWt3zYabfM7kZTOZfh5xjMjIyf3fkOiaKvNAVQeXMxPO7GN6stPfQaIhZ3p++c0MNuz/y70BFt11hR71OLoz4cAo1bUzRZiRxM/BX3Ht74CPyy+gylYvKOHbkHHs6KmOf/lupbH0h66k45DomjHzrghDmVG9aH3vz0p680ZGTFENMwsNSPv87829uu8zTI+fPPw+5TysPla0vZD0ylQ95oSsjIyMjIyMjI/OPRPG8BcjIyMjIyMjIyMg8C+SFroyMjIyMjIxMZUGypMXgqUwf1Up+kMoIlGuha/nmDHbcDmDjtP/InSBTKZEc+rMq9TqXsvL/An92weyfpMeyDs7vdKF59fK9saGyxccQKqL+VGR8KltfVDY9MjL/RMqsY1I1Wg8ZSd/OdSntMToZccqx0JUwr9eIOja2ODVzxMT4mmRknhpd6jHcO/ak3yufsCHo+b9s29h6lM0/ZpHXLHrUL99FmcoWH3Eqpv5UZHwqW18YT4+E9Ut9mbZrP0fiwjifHMShUytw7ezw5MQjVcPZ7Rs2XwsmMOUi3qe+4aOXqxV56Z6gnSKYtfgYz+gIgk670aDoSkGvL0E7hZ83fp/5l0I5/E37JxcrJq8wIyLi0clC0b/gq7NoU5i4InoM1Fwq+uyIaBZtlx5Me3kSkPlXG5eyrnMxcQVvCZ9ZieSGNT13XSEoYCJNCvpQ0cwNr3tXWTPcwehvMRfV/fR1zPBx8W+lHBsiOlK2TWXg1RdQR4bzwPiaZGSeHk068RHpoKhB2+xK8LylrMdIVFD9qcj4VLa+MJYepRMu7hNol7CTdaNDSVLW563pU5ngZUrSSxPwTtIBCmoOXsp3X7fk2vIFfBoIbcbPYOqepWR1dOPgba2gnceoGvdjyf6JNNXmFnt7loAvITugtG9BNzc3Ro3vRn0LicTibVdfZeuAARwp8vpuye4Nxv8wjlo+Z4lRi+oxTHPpCNgR0ixyjH7yflvCoJdXoZDAsuc8NsySWO8yH9900Gnuk5Cr3wYglhvKmtSuo0XbqCtdmq7mejjU69mN+lotCU41UfD/7J15XFVV94efc+9lEBBBBMfEeXrFuUzL7M2hwrdSX6dKczZxTtNMzdky/aWQr2OZooVDSk5oDiGEIggoAgoqJpIIMooMKtzh9wegSMLdF09Edp7Phz/0nrvWd6+91t777HPOPSl/wU+LyTCOmVgX/2RMWvg/vKSVfZ6Dpw6wf1Npl7TMqPnqSD7bf5Ajt6IIyYjA/4oP7pNaPtqG19Siy8zVbI8+R3BaGD4nVzH6tVqPPpfs6Dp/E55h/vgmRRGSEc7RM+uZ6FrX9NW5yp6245ewPsifX1Mj8YvayZJJHbErqlV1c8aducRxj66Pzqws3mBF2iU2T6xrWpBk8iXZtWPA8lVsOH2cn+PDCc6MJigxgLUTGj7SIxLDhZvxijjDqfQYQlLPsv/olwzrVuKMz5hmQYQ0i/jS1OTFj1ex7WIowXeiCUo4hbfvRtx62BWcfcvYX5LjG3wW9Ct+KdGE3YngxHlP5gxrgVUxPULtkgmjegp3VEL9x+Js0ZAR/kW7K5fxXdtN/h3OCqxTyaYlfd092ftbOGczLxGYEMiBk7PpWrXwc5HxR1SPsRwTRabakcOXTT93/DN9mdGleEvVNPlkP2cTVtOjagVr1sWxq29Pho1ex36fU5w58D0rZnuTZN2Oti0LNWqa039KN9i/lDlLDxB47ADrR36Or9SNocObFeSZiJ1CJNvnmbT9I2w3ufHFoRKviRXxJWIHNY3HLWLyq7kcHDWdHb89YbFpyOHWhQtEng0v+AuJx2HAYNolb2fhp34Fr0IV0WOC5jIRsSOiWeQYAQxZifwWfYXYS1e5fisHgyGH5JirxF66wrXLSeSIrtFEckPtRC3HqwT6V+OVPg1QqevxiqsdZ49dofpzNU27NUBg3DA2X4ivo0DdYRRrwoI4kxGJ7/mtzBrSFEtT2q4AmLija0g/wuLOoVRROfDmBk9GPPEoFY79l7Plu97ofL/Hc5o7cbfvYV7TGevrCRQMCTZ0WroF95Faji6ezdpoFU3fn4zbnq3YvzOA/wvIBskK55deplX2D8z74CQZkiPtx81g7NaVZHQZhtc10XOwKrjM3cK6sXkcWLSADeHZVO82nI8WbWRJ1ttM9bxFed4K/Wf7kpw60/fDnhg8P+erxTdIy9Kisa2BdM3EGHbpQpM0T2ZPOcld8zp0HD2ZST9tweGdQbifzq1gzSK+rOmwZAseYyR8l81nfVgaOPVgwuahdGphjfSLvO84N9yJ5uiK+Ry+mUquZE+L96YzY83X5F7pg3twvmC7KlBPfgTfuL7J3vZj8Pj2JYLHjGNbpBYwoMtMQt4L3xVZpxrazP0fc9+O57tZ4wm4loPK1on6DfOJL3zJj9D4I6RHrhyrXGNLjt8JQnJfp+vrLXA/E1WwS6V2plufptzz3URIdkVrBkO+tthumYRVnZpYa+O5EV/wv5Jje9o21nNhdRC2Izexe54lnn2mExiq59UX22EnxZBmMG4HAJUjPT1W0jN6MSNXReK88nEtor6M2QEdV5YP4q0vDBg0LkxeZjwOVV5yY9p/1ZwYsZ7z2eJ60kU1G0G47UY0i7SrojGaG5Y1cKiaS+jO8/x3wms479PS3eEku/c1o1Ov6lhLkCdU8GLjhtH5QmgdVdgasxxiPBbjGavluX5uTNy4Geust1noU+BLqC4UTNx00WVx+2oWqHJIK22v3bwDwxf3wcZ/IUMG7uTWw3gHPjxEqt2HkaOcufLlWyxaew0dEPRrLGZNDzBmhitbT+0mtfBY/e/n8TsWyAMgNMqGjpFzeLm7PTuupT6cjFRVrLEyVxecURl05OXk8KDQr+TkythJ9TgzpTcrdqUXfCfsMmYd/VkypAdO27eTZFIQSkd+X/eJ9dnL8eP5f/RlQgwNCZGc9jtbEEO/GPDz5oMZrmwP3EO6o4Bmk2a+MjQLxOe245uMHNWA31b15zP3mIKFm4U9/XRDcTApdoLk3+Cs942H/4yOtKTTQA/ada6NKji+2KRferuKKCsP5dNzn/TfrpNZPZN8Qx6ZN64Rd+XJTp5Wj9x1WjYa7GvaQYYf5/xCiEotEBrhX+wQkfFHQA815ckxoXovTKCn7gsRX3dOccI3lyV9etJ0aRQxWlA1e4NeLlkErPTnrsE0zXJj1rgfny3tTvKGUey7XuBE5eREdSmLC0n3selWj+oOltS2y+VMYi5SB0eqqyFNa9wOqHAauJCZHQNY2P0oKXo1ziX8i/kybgcAg0H8hFtVG9dZA3EM/ZpNxXaHRfTcKUd8nijBVDulaBZp11/JE3OshgP2kpZ7QT74z/6UwW5a7H7+ivNZDZHs7ammggyBWpRMGjfKmC9MGMe0wbtYu/EwDwBOXsasxWEmTnBl3REvbpeo0yfXhQL8Ca8AVtVri0tdHRErjpJYSvJoWrnQ3PwWPgE3Hp2NaOMICUjAbYgLjc12k/qE4tWn/E5CtkSz6tWQKJpANXRYeoSN42sXXEbWJbDDtScrThUY0LRuRyurqthtCCBo/SNbksYM1fU6OKogSaYKrVBf5YwhebEE+t1izOA2NDbbw10RzTLVjEh80v7VlpYWSRw+GSvz7uSTUTl2YsiCSbzz7+bUsleRm5yLZRWJREtzEy2VnYd/Rz3y1qkx7hP4xTKO7lrAuov/5vwhH37e6c2RX66T85T5V1KPWqYcE6p3PcjSFyK+tHc4tcuPrG296dF6DTHh0HSAK02Sj+JxIttEzfJSpfX7fL5nFo1OzWHColBy/nCEluilg/nPZhVpN/N5YZhpdqTqrzF5cVtCZ7/NmQxjGVe6L9PsiKFqNYBB3fLwH7mXJ2+0ibRdLD7GEbNjXLPYMRVJqblhb4+tpCU/J4pjPlXZOkWN1+sR5DbWItnaYiN4y46mguemP6C/SXhQAur3WtJQA7eL3cdsvL7+2ZRvoVvW2axBjx7Q68seLUvPrbIGFz16HUiq4t/WcXn9FMbtsyi0+YDbEcWqTpJAd5N9o8bz/cUS1ZifSaIWUOvR60Ft9pTr/or0RXljaAC9HiSpYNIV0SwXQvHRoEaLVmskD+SIoaoeA7Z+w7QGZ9j42VQCL99FcngZN6/p5dg9NpKHsusxtqMkgx7krFPj5F31Zl5nP7b1duWNAf9htNcYxoet55P31hCWXsyfKbtpT9IjlGMCCNeODH0h6Cv7xF5+uf0tvQe1YVOMhreHNOLmrjmE3TPNjnxIWHcax+q9btj9NINxH5/gdjEf+uRk0g1VqVHLCkmXye2bgGSHY20rDCkppOvE7Fj3+i+96tZAvTmAHpsLv6ExQyNNZdetTixvO4afBHyJ2PE2abdCTctBb9Eo/TgexzIfy1uRtovHp2xMs1O6ZtOOqSjKzg1VVVtspHzy8/OJXjWWD7wlbkXko62fj2Rjg5XogxZyjRtFmDyOSQX1+9j3ym67QgHlXCk84P49A9jZUlWCB8V6S58QRXSiGte+vai5Yw9JTyhE7aVIYvL606GbM+qzBZdE0TTg+W51yY+M4lo+Zc2wJTCQFRtOWOyTP9VejOByXn/atLEk8afIgksAJdGnk5aqx6ZRAxxUv5Z7R6NCfZU3hqp6tOtSF110NNe1gpplQsSX6losNwxv0eb5WqhCS7kH1pQYGvLJyzOAjTVWJXIVs+a06WBJrPtqtnhfLfBlbk/ifUM5Frpl56Hseu7fJ0+ywcZWBU98Zvjp9chbp4Lkp3PF53uu+HzPhqYjWXNqJlOG7Wekx41iuVD6+COCTiTHiigrPsK1I0NfiPrKDWbP9mu8PWIwvaMteNMpnG+3RD3cgTKp3svKVUFUtd7kM6+JOOybwofT/UgtEWxDSjgXrqkY0KsLtjt+JtMAkl0XunRUcWNj+MOHm4zZyT28iMEdVhZLRw2tZ29lvsshpg/dwoUUAwbJuC+DgB2T0DSj+xv1yDrxBedyTW+7aHyMYZKdMjSbdEwFYSw3pGpVsZa05GvBkH2TmAsF/2+er8VgY/PYg8egwuGlwQx6TUXwxh2cS35kzKRxQwgTxzGzhnR+pS75EZHEFt4RYaztCgWUc0c3m9iIG6gmvcuHw5PxS7WlnvoSe/ZfQZcXxvalv9BrwwK+2dOEH7yCuJ6ch9rWibpE4X0wFl3iIbZ8N5K1szxYmPc/jsSoaPLuJMa0jsf7ncOkGpBtAjUkHeKbDcNY/9FG1lX7hh+PXSY9vwo1mtYm87AXp+P1YMgg2CeMvJVjmTs7gx0Bt9HZt6WmCpMuUVSoLxNiqHlxCBPHS4Rcy6du3wmM65TG0fcOk6wX1CwTIr70cQfZfWQsS+Z9zae69fjGaajbdSAuZnDroSETYmi4y/Xo26hHDWHMuymcvluNulzE+1AsOu01YqLy6TX4QwZH7iQ8IReVbStqWsi9epNfjy4uhtis6vT4eDLn1GdI1zjR0DKGH3+6bNpP5ZSlpwLrFCzpOHUuXe6dJiQigbt5Fjh1dsHJ/AHxaTmP73yUNf4IeBLKMZH4yF07svjScXXrD4RNnsecryTuH5qOT9wjHSbVe1l6hBpkhsvU6bwmnWCZ5y3sWjTDrqgPspOIi7+LXhuD95pTDPx6LsuuavA6Cy4TP6EHASzdVtSfAnaykriRVdy3hhoZWgwPMkiITSRLByDgS8gOYOnAcw0dsNDUx95cQuPwHI1bZfIg4yY3Eu89ug+3ZkfaNdFz6X8X/nhSIdJ2ofgIYIKdMjWbcEzFYCw3srC0sUGtzSS/5EJSq0VvZo21OTxshFk7hm9YwLBG4GodQ7/ZYQ/nFJPGDREExjGpXhtefjWVrCr16DRiAh+0imN338OFDw4K1EV5dD2DlHNHV0fMmoVsclnMe/+3lrcfJBG9dT6HD1why6An0esjhqcMZ+y0foxaMwwHK4l7KfFc8vqcY4diyTTkEDpvBB/dmcOkyctxr2Eg7eKvbBm0nO8C5H50M5fwhR8w7vepjB8zmrkjalBFn03ylWC2nd5ReIyeW999wiyn+UwZtRSP2Rbo72WScjmE47G5JlxeqEhf4jE05NnQ2m0hg50tyY0L49CHM/HwKXp4QESzXAj40idzxG0sVl/MYfgCD/pa5JBwPqGgHQ9vhzElhloiPRaxrfU8+q9Zz4D7SVzaMp+ffWLJ0sWxa8w0bJdN5L113zLNzhxd7l0yEyM5ff3PustJJj3Zvqyd5En1xYOZ/+M4VNkJRH23AJ99l8kyadOpDD0VWadSFdQW1Xh+9CLeq18NCx6QGX+ZkJUfsXpXyft8yxh/RHwJ5VgRZcVH7tqRx5f+5gG27RzP2uFZ/OD+C5mPBc8UzWXpEWiOyonWHetgVseZhQFvPfZR3rFPeb3/Hu4Y9CRtn8kU6znMnLqE1R9D+oXjrB6wjAO/602wIxJfAV+CqFsOx93PjUZFM2jDFex8V0/qtyNxnRpI0SNI6sZNcFalcOzq3SeM7SJ65NIsbqdszeLHVAhGc8Mby6pVIC+VknccGLQ6tFhjZSPxMKG1cYSeuMY7gySCAuIeP5EwadwQoax1VC43gs5yfVB/lvw0AnNdFrfO+bKu/1f8EJAj2HbRunj2kdpZNVFC8ayiqsO7R04wLeVjXhl6+C8+8y4/qvof8E34dNLGvMQsb+U2ewX5UXJMQUHBVJRx4++B8qvCCpUMC1oOep/mD64QfzsXlX0juk78kDZ3fJnt/xffDKbwjKDkmIKCgqko48bfFWWhK4LGhclnf2RU89LeoaIj7qtBDJgf8Re8SvBPpqLbrqpO/W6ujH5nGrXszNFnJXM9+GeW9nPHV+SX0RUqF5WxdpQcezoqY5/+U6lsfSGXnsrWLlDGjb8xyq0LQlhSo1kDHCxLe/LGwIPkOOKS7leoqorhn9x2hadHyZ9nD6VPKw+VrS/k0lPZ2qXwd0ZZ6CooKCgoKCgoKDyTiP5UsoKCgoKCgoKCgsLfCmWhq6CgoKCgoKDwd0KyptXQ6cwc20Z52MoI5VroWr/yCbtuBrFlxr+UACtUSiTHQaxNv8r5nIK/4O9dsXiW9FjXxeWNV2lZo3xvbKhs8TGFihh/KjI+la0vKpseBYV/KmWOdVI12g4bw4Du9SjtkT2FAsqx0JWwrN+Yunb2ODd3wkx+TQoKT40h/ShLu/Zh4Asf8E3IX//yb7n1qFu+zxKvOfRuUL6LMpUtPuJUzPhTkfGpbH0hnx4J2/YDmPHjPg4nRHI2JYSDJ1czsrvj4xOPVA0Xty/xvBRGcNo5fE5+ybvPVyv20j1BO8WwaPU+HrExhJxyo2HxVYBRX4J2ij5v8hYLz0dw6MtOjy9EzF7gk5iYhycLxf/CLs6hXVHiiugxUXOpGLMjolm0XUZQu0xld8YpPn2l+BfM6OwRyNkzk2hajpVbqX0h0nZs6fNjFCFBkx/6VjV3w+vORdaPcpT9TediyDHWmV47zyLl2BAxkPbDdIZcfA7t5Wjuya9JQeHp0WWSGJMJqpp0yK0Ez1sqemSigsafioxPZesLufSonXFdOomOSbvZOC6CZHUDXps5nUle5iS3n4RPsgFQUWvoCr7+ojWXvlrER8HQbuInTN+7gpyubhy4qRe08whNk4Es3zeZZvq8Em/tEvAlZAfUDq3o6ebG2Ik9aWAlcbtk27UX2T54MIeLvb5bqv4yE7+dQG3fQOK0onpM01w6AnaENIscU7EY7QuhHKtFnbp69I178GqzdVyNhvp9etJAryfJuRYqUv6Cn8qTYawzsXaeVUxa1D+8pJV9noOnDrB/U2mXtMyo+epIPtt/kCO3ogjJiMD/ig/uk1o+2mLX1KLLzNVsjz5HcFoYPidXMfq1Wo8+l+zoOn8TnmH++CZFEZIRztEz65noWtf01bnKnrbjl7A+yJ9fUyPxi9rJkkkdsSuqVXVzxp25xHGPro/OmizeYEXaJTZPrGtakGTyJdm1Y8DyVWw4fZyf48MJzowmKDGAtRMaPtIjEsOFm/GKOMOp9BhCUs+y/+iXDOtW4mzOmGZBhDSL+NLU5MWPV7HtYijBd6IJSjiFt+9G3HrYFZxZy9hfkuMbfBb0K34p0YTdieDEeU/mDGuBVTE9Qu2SCaN6CndUQv3H4mzRkBH+Rbsrl/Fd203+Hc4KrFPJpiV93T3Z+1s4ZzMvEZgQyIGTs+latfBzkfFHVI+xHBNFptqRw5dNP3f8M32Z0aV4S9U0+WQ/ZxNW06NqBWvWxbGrb0+GjV7Hfp9TnDnwPStme5Nk3Y62LQs1aprTf0o32L+UOUsPEHjsAOtHfo6v1I2hw5sV5JmInUIk2+eZtP0jbDe58cWhO48vUEV8idhBTeNxi5j8ai4HR01nx29PWGwacrh14QKRZ8ML/kLicRgwmHbJ21n4qV/Bq1lF9JiguUxE7IhoFjmmQhHoC5G2q52o5XiVQP9qvNKnASp1PV5xtePssStUf66mabcGCIwtxuYU8bUWqDuMYk1YEGcyIvE9v5VZQ5piWfShCbXzLGNSSw3pR1jcOZQqKgfe3ODJiCcepcKx/3K2fNcbne/3eE5zJ+72PcxrOmN9PYGCNLSh09ItuI/UcnTxbNZGq2j6/mTc9mzF/p0B/F9ANkhWOL/0Mq2yf2DeByfJkBxpP24GY7euJKPLMLyuiZ5fVcFl7hbWjc3jwKIFbAjPpnq34Xy0aCNLst5mquctyvOW6j/bl+TUmb4f9sTg+TlfLb5BWpYWjW0NpGsmxrBLF5qkeTJ7yknumteh4+jJTPppCw7vDML9dG4FaxbxZU2HJVvwGCPhu2w+68PSwKkHEzYPpVMLa6RfSk46T4fhTjRHV8zn8M1UciV7Wrw3nRlrvib3Sh/cg/MF21WBevIj+Mb1Tfa2H4PHty8RPGYc2yK1gAFdZhLybqhUZJ1qaDP3f8x9O57vZo0n4FoOKlsn6jfMJ77wpUNC44+QHrlyrHKNLTl+JwjJfZ2ur7fA/UxUwQ6U2plufZpyz3cTIdkVrRkM+dpiO2ESVnVqYq2N50Z8wf9Kju1p21jPhdVB2I7cxO55lnj2mU5gqJ5XX2yHnRRDmsG4HQBUjvT0WEnP6MWMXBWJ88rHtYj6MmYHdFxZPoi3vjBg0LgweZnxOFR5yY1p/1VzYsR6zmeL60kX1WwE4bYb0SzSrorFeF8Itd2yBg5VcwndeZ7/TngN531aujucZPe+ZnTqVR1rCfKEBgWxscXonCK01ipsn1kOMR6L8YzV8lw/NyZu3Ix11tss9CnwJVQ7zzimLel1Wdy+mgWqHNJK20c378DwxX2w8V/IkIE7ufUwloEPD5Fq92HkKGeufPkWi9ZeQwcE/RqLWdMDjJnhytZTu0ktPFb/+3n8jgXyAAiNsqFj5Bxe7m7PjmupDycjVRVrrMzVBWdLBh15OTk8KPQrObkydlI9zkzpzYpd6QXfCbuMWUd/lgzpgdP27SSZFITSkd/XfWJ99nL8eP4ffZkQQ0NCJKf9zhbE0C8G/Lz5YIYr2wP3kO4ooNmkma8MzQLxue34JiNHNeC3Vf35zD2mYOFmYU8/3VAcTIqdIPk3OOt94+E/oyMt6TTQg3ada6MKji826ZferiLKykP59Nwn/bfrZFbPJN+QR+aNa8RdebKTp9Ujd52WjQb7mnaQ4cc5vxCiUguERvgXO0Rk/BHQQ015ckyo3gsT6Kn7QsTXnVOc8M1lSZ+eNF0aRYwWVM3eoJdLFgEr/blrME2z3Jg17sdnS7uTvGEU+64XOFE5OVFdyuJC0n1sutWjuoMlte1yOZOYi9TBkepqSNMatwMqnAYuZGbHABZ2P0qKXo1zCf9ivozbAcBgED/hVtXGddZAHEO/ZlOx3WERPXfKEZ8nSjDVTimaRdpV4RjpC5G2Z9RwwF7Sci/IB//ZnzLYTYvdz19xPqshkr091VSQIVCvkkljSxlzigljnTZ4F2s3HuYBwMnLmLU4zMQJrqw74sXtErX85Np59pF971pVry0udXVErDhKYimJoWnlQnPzW/gE3Hh0pqGNIyQgAbchLjQ2203qE4pXn/I7CdkSzapXQ6JoAtXQYekRNo6vXXAZWZfADteerDhVYEDTuh2trKpityGAoPWPbEkaM1TX6+CogiSZKrRCfZUzhuTFEuh3izGD29DYbA93RTTLVA8i8Un7V1taWiRx+GSszLuTT0bl2IkhCybxzr+bU8teRW5yLpZVJBItzU20VHYe/h31yFunxrhP4BfLOLprAesu/pvzh3z4eac3R365Ts5T5l9JPWqZckyo3vUgS1+I+NLe4dQuP7K29aZH6zXEhEPTAa40ST6Kx4lsEzXLS5XW7/P5nlk0OjWHCYtCyfnDEVqilw7mP5tVpN3M54VhptmRqr/G5MVtCZ39NmcyjGVc6b5MsyOGqtUABnXLw3/kXp68iSbSdrH4GEfMjnHNYsdULsrod3t7bCUt+TlRHPOpytYparxejyC3sRbJ1hYbwdt6NBU8f/0B/U3CgxJQv9eShhq4nffoI+M1+OxSvoVuWciaawEAACAASURBVGdQBj16QK8ve7QsPW/KGlz06HUgqYp/W8fl9VMYt8+i0OYDbkcUqzpJAt1N9o0az/cXS1RjfiaJWkCtR68HtdlTrvsr0hfljaEB9HqQpIJJV0SzXAjFR4MaLVqtkTyQI4aqegzY+g3TGpxh42dTCbx8F8nhZdy8ppdj99hIHsqux9iOkgx6kLNOjZN31Zt5nf3Y1tuVNwb8h9FeYxgftp5P3ltDWHoxf6bspj1Jj1COCSBcOzL0haCv7BN7+eX2t/Qe1IZNMRreHtKIm7vmEHbPNDvyIWHdaRyr97ph99MMxn18gtvFfOiTk0k3VKVGLSskXSa3bwKSHY61rTCkpJCuE7Nj3eu/9KpbA/XmAHpsLvyGxgyNNJVdtzqxvO0YfhLwJWLH26TdCjUtB71Fo/TjeBzLfCxvRdouHp+yMc1O6ZpNO6Z0DHodelSoSwzhajM16PWyPvgl0nZVVVtspHzy8/OJXjWWD7wlbkXko62fj2Rjg5XowxhyjS1FmDzWSQU1/tj3yq6dfwLlXCk84P49A9jZUlWCB8V6Qp8QRXSiGte+vai5Yw9JT8hY7aVIYvL606GbM+qzBZdE0TTg+W51yY+M4lo+Zc2wJTCQFRtOWOyTP9VejOByXn/atLEk8afIgu39kujTSUvVY9OoAQ6qX8u9o1GhvsobQ1U92nWpiy46mutaQc0yIeJLdS2WG4a3aPN8LVShpdwDa0oMDfnk5RnAxhqrErmKWXPadLAk1n01W7yvFvgytyfxvqEcC92y81B2PffvkyfZYGOrgidOC0+vR946FSQ/nSs+33PF53s2NB3JmlMzmTJsPyM9bhTLhdLHHxF0IjlWRFnxEa4dGfpC1FduMHu2X+PtEYPpHW3Bm07hfLsl6uHukkn1XlauCqKq9SafeU3EYd8UPpzuR2qJYBtSwrlwTcWAXl2w3fEzmQaQ7LrQpaOKGxvDHz7cZMxO7uFFDO6wslg6amg9eyvzXQ4xfegWLqQYMEjGfRkE7JiEphnd36hH1okvOJdrettF42MMk+yUodmkY8rSk5xMmt6Ohi2cUPkW1qCqFo2aVcWQnEyGjFcVRNqurlYVa0lLvhYM2TeJuVDwXfN8LQYbm8ceTgYVDi8NZtBrKoI37uBc8iOxJo0tQpg41pk1pPMrdcmPiCS28I4IY7XzT6CcO7rZxEbcQDXpXT4cnoxfqi311JfYs/8Kurwwti/9hV4bFvDNnib84BXE9eQ81LZO1CUK74Ox6BIPseW7kayd5cHCvP9xJEZFk3cnMaZ1PN7vHCbVgGwTqCHpEN9sGMb6jzayrto3/HjsMun5VajRtDaZh704Ha8HQwbBPmHkrRzL3NkZ7Ai4jc6+LTVVmHT5oUJ9mRBDzYtDmDheIuRaPnX7TmBcpzSOvneYZL2gZpkQ8aWPO8juI2NZMu9rPtWtxzdOQ92uA3Exg1sPDZkQQ8NdrkffRj1qCGPeTeH03WrU5SLeh2LRaa8RE5VPr8EfMjhyJ+EJuahsW1HTQu7Vm/x6dHExxGZVp8fHkzmnPkO6xomGljH8+NNl03ZDytJTgXUKlnScOpcu904TEpHA3TwLnDq74GT+gPi0nMd3NcoafwQ8CeWYSHzkrh1ZfOm4uvUHwibPY85XEvcPTccn7pEOk+q9LD1CDTLDZep0XpNOsMzzFnYtmmFX1AfZScTF30WvjcF7zSkGfj2XZVc1eJ0Fl4mf0IMAlm4r6k8BO1lJ3Mgq7ltDjQwthgcZJMQmkqUDEPAlZAewdOC5hg5YaOpjby6hcXiOxq0yeZBxkxuJ9x7dh1uzI+2a6Ln0vwt/PKkQabtQfAQwwU6Zmk04piwMab9yzDeXzz7+nPG31+IfJ1HvPxMY8XwuZyYGkGnK+YSxvjDadglrGxvU2kzyS/rVatGbWWNtDg8bataO4RsWMKwRuFrH0G922MN5x6SxRShQxsc6qV4bXn41lawq9eg0YgIftIpjd9/DhQ8XCtROeXT9zSjnjq6OmDUL2eSymPf+by1vP0gieut8Dh+4QpZBT6LXRwxPGc7Yaf0YtWYYDlYS91LiueT1OccOxZJpyCF03gg+ujOHSZOX417DQNrFX9kyaDnfBcj96GYu4Qs/YNzvUxk/ZjRzR9Sgij6b5CvBbDu9o/AYPbe++4RZTvOZMmopHrMt0N/LJOVyCMdjc024dFCRvsRjaMizobXbQgY7W5IbF8ahD2fi4VP08ICIZrkQ8KVP5ojbWKy+mMPwBR70tcgh4XxCQTse3g5jSgy1RHosYlvrefRfs54B95O4tGU+P/vEkqWLY9eYadgum8h7675lmp05uty7ZCZGcvr6n3UHk0x6sn1ZO8mT6osHM//HcaiyE4j6bgE++y6TZdKmUxl6KrJOpSqoLarx/OhFvFe/GhY8IDP+MiErP2L1rpL3+ZYx/oj4EsqxIsqKj9y1I48v/c0DbNs5nrXDs/jB/ZcSiwZTNJelR6A5Kidad6yDWR1nFga89dhHecc+5fX+e7hj0JO0fSZTrOcwc+oSVn8M6ReOs3rAMg78rjfBjkh8BXwJom45HHc/NxoVzaANV7DzXT2p347EdWogRY8XqRs3wVmVwrGrd58wtovokUuzuJ2yNYsfU7acJA66jafq5zMYtHozI20NZMdfJGDeeFZ73TZp8WW8L4y1XYVV1SqQl0rJOw4MWh1arLGykXiY9No4Qk9c451BEkEBcY+fbJg0tohQ1lorlxtBZ7k+qD9LfhqBuS6LW+d8Wdf/K34IKJwvZKudvzdSO6sm/4Bm/kNR1eHdIyeYlvIxrww9/KfelvBnoqr/Ad+ETydtzEvM8v4n3UKvUFEoOaagoPBnoIwtfz3/nF8MVvibYEHLQe/T/MEV4m/norJvRNeJH9Lmji+z/ctxM5iCwh9QckxBQeHPQBlbKiPKQlcEjQuTz/7IqOalvR9FR9xXgxgwP+IveE3gn0xFt11VnfrdXBn9zjRq2Zmjz0rmevDPLO3njq/IL6MrVC4qY+0oOfZ0VMY+/adS2fpCLj2VrV2iKGNLpUS5dUEIS2o0a4CDZWlP3hh4kBxHXNL9ClVVMfyT267w9Cj58+yh9GnlobL1hVx6Klu7FP7OKAtdBQUFBQUFBQWFZxLRn0FWUFBQUFBQUFBQ+FuhLHQVFBQUFBQUFP5OSNa0GjqdmWPbKA9bGaFcC13rVz5h180gtsz4lxJghUqJ5DiItelXOZ9T8Bf8vSsWz5Ie67q4vPEqLWuU740NlS0+plAR409Fxqey9UVl06Og8E+lzLFOqkbbYWMY0L0epT2yp1BAORa6Epb1G1PXzh7n5k6Yya9JQeGpMaQfZWnXPgx84QO+CfnrX+wttx51y/dZ4jWH3g3Kd1GmssVHnIoZfyoyPpWtL+TTI2HbfgAzftzH4YRIzqaEcPDkakZ2d3x84pGq4eL2JZ6XwghOO4fPyS959/lqxV66J2inGBat3scjNoaQU240LL4KMOpL0E7R503eYuH5CA592enxhYjZC3wSE/PwZKH4X9jFObQrSlwRPSZqLhVjdkQ0i7arTKzosSWU0Auf4FJi9aZqPp4fMs6xvJ+1qa0rvS9E2o4tfX6MIiRoMk3VRVrc8LpzkfWjHGV/07kYcox1ptfOs0g5NkQMpP0wnSEXn0N7OZp78mtSUHh6dJkkxmSCqiYdcivB85aKHpmooPGnIuNT2fpCLj1qZ1yXTqJj0m42josgWd2A12ZOZ5KXOcntJ+GTbABU1Bq6gq+/aM2lrxbxUTC0m/gJ0/euIKerGwdu6gXtPELTZCDL902mmT6vxFu7BHwJ2QG1Qyt6urkxdmJPGlhJ3C7Zdu1Ftg8ezOFir++Wqr/MxG8nUNs3kDitqB7TNJeOgB0hzSLHGOMe533Pk9+3HS51VUTeKGqDRLUXOtJIF87eQPHfnDXaF0I5Vos6dfXoG/fg1WbruBoN9fv0pIFeT5JzLVSk/AU/YybDWGdi7TyrmLSof3hJK/s8B08dYP+m0i5pmVHz1ZF8tv8gR25FEZIRgf8VH9wntXy0xa6pRZeZq9kefY7gtDB8Tq5i9Gu1Hn0u2dF1/iY8w/zxTYoiJCOco2fWM9G1rumrc5U9bccvYX2QP7+mRuIXtZMlkzpiV1Sr6uaMO3OJ4x5dH501WbzBirRLbJ5Y17QgyeRLsmvHgOWr2HD6OD/HhxOcGU1QYgBrJzR8pEckhgs34xVxhlPpMYSknmX/0S8Z1q3E2ZwxzYIIaRbxpanJix+vYtvFUILvRBOUcApv34249bArOLOWsb8kxzf4LOhX/FKiCbsTwYnznswZ1gKrYnqE2iUTRvUU7qiE+o/F2aIhI/yLdlcu47u2m/w7nBVYp5JNS/q6e7L3t3DOZl4iMCGQAydn07Vq4eci44+oHmM5JopMtSOHL5t+7vhn+jKjS/GWqmnyyX7OJqymR9UK1qyLY1ffngwbvY79Pqc4c+B7Vsz2Jsm6HW1bFmrUNKf/lG6wfylzlh4g8NgB1o/8HF+pG0OHNyvIMxE7hUi2zzNp+0fYbnLji0N3Hl+givgSsYOaxuMWMfnVXA6Oms6O356w2DTkcOvCBSLPhhf8hcTjMGAw7ZK3s/BTv4LXroroMUFzmYjYEdEscoxRDNzx+5UofSte6GpbrN6saP9ae1TnfiU4RXQBJtAXIm1XO1HL8SqB/tV4pU8DVOp6vOJqx9ljV6j+XE3Tbg0QGFuMzSniay1QdxjFmrAgzmRE4nt+K7OGNMWy6EMTaudZxqSWGtKPsLhzKFVUDry5wZMRTzxKhWP/5Wz5rjc63+/xnOZO3O17mNd0xvp6QuE7rG3otHQL7iO1HF08m7XRKpq+Pxm3PVuxf2cA/xeQDZIVzi+9TKvsH5j3wUkyJEfaj5vB2K0ryegyDK9roudXVXCZu4V1Y/M4sGgBG8Kzqd5tOB8t2siSrLeZ6nnLpPdqV5QvyakzfT/sicHzc75afIO0LC0a2xpI10yMYZcuNEnzZPaUk9w1r0PH0ZOZ9NMWHN4ZhPvp3ArWLOLLmg5LtuAxRsJ32XzWh6WBUw8mbB5KpxbWSL+UnHSeDsOdaI6umM/hm6nkSva0eG86M9Z8Te6VPrgH5wu2qwL15Efwjeub7G0/Bo9vXyJ4zDi2RWoBA7rMJOS98F2Rdaqhzdz/MffteL6bNZ6AazmobJ2o3zCf+MLNHaHxR0iPXDlWucaWHL8ThOS+TtfXW+B+JqpgB0rtTLc+Tbnnu4mQ7IrWDIZ8bbGdMAmrOjWx1sZzI77gfyXH9rRtrOfC6iBsR25i9zxLPPtMJzBUz6svtsNOiiHNYNwOACpHenqspGf0YkauisR55eNaRH0ZswM6riwfxFtfGDBoXJi8zHgcqrzkxrT/qjkxYj3ns8X1pItqNoJw241oFmmXCPoEf34Nn83oXi9QZccxcgEs29P1lSpcWetPonASGu8LobZb1sChai6hO8/z3wmv4bxPS3eHk+ze14xOvapjLUGe0KAgNrYYnVOE1lqF7TPLIcZjMZ6xWp7r58bEjZuxznqbhT4FvoRq5xnHtCW9LovbV7NAlUNaafvo5h0YvrgPNv4LGTJwJ7cexjLw4SFS7T6MHOXMlS/fYtHaa+iAoF9jMWt6gDEzXNl6ajephcfqfz+P37FAHgChUTZ0jJzDy93t2XEt9eFkpKpijZW5uuBsyaAjLyeHB4V+JSdXxk6qx5kpvVmxK73gO2GXMevoz5IhPXDavp0kk4JQOvL7uk+sz16OH8//oy8TYmhIiOS039mCGPrFgJ83H8xwZXvgHtIdBTSbNPOVoVkgPrcd32TkqAb8tqo/n7nHFCzcLOzppxuKg0mxEyT/Bme9bzz8Z3SkJZ0GetCuc21UwfHFJv3S21VEWXkon577pP92nczqmeQb8si8cY24K0928rR65K7TstFgX9MOMvw45xdCVGqB0Aj/YoeIjD8CeqgpT44J1XthAj11X4j4unOKE765LOnTk6ZLo4jRgqrZG/RyySJgpT93DaZplhuzxv34bGl3kjeMYt/1AicqJyeqS1lcSLqPTbd6VHewpLZdLmcSc5E6OFJdDWla43ZAhdPAhczsGMDC7kdJ0atxLuFfzJdxOwAYDOIn3KrauM4aiGPo12wqtjssoudOOeLzRAmm2ilFs0i7hNAn8OuhaCZN7EYby2ME3QdN+1fobH+V/UfiTTvZMtIXIm3PqOGAvaTlXpAP/rM/ZbCbFrufv+J8VkMke3uqqSBDoF4lk8aWMuYUE8Y6bfAu1m48zAOAk5cxa3GYiRNcWXfEi9slAvnk2nn2kX3vWlWvLS51dUSsOEpiKYmhaeVCc/Nb+ATceHSmoY0jJCABtyEuNDbbTeoTilef8jsJ2RLNqldDomgC1dBh6RE2jq9dcBlZl8AO156sOFVgQNO6Ha2sqmK3IYCg9Y9sSRozVNfr4KiCJJm2CCvUVzljSF4sgX63GDO4DY3N9nBXRLNM9SASn7R/taWlRRKHT8bKvDv5ZFSOnRiyYBLv/Ls5texV5CbnYllFItHS3ERLZefh31GPvHVqjPsEfrGMo7sWsO7ivzl/yIefd3pz5Jfr5Dxl/pXUo5Ypx4TqXQ+y9IWIL+0dTu3yI2tbb3q0XkNMODQd4EqT5KN4nMg2UbO8VGn9Pp/vmUWjU3OYsCiUnD8coSV66WD+s1lF2s18Xhhmmh2p+mtMXtyW0NlvcybDWMaV7ss0O2KoWg1gULc8/Efu5cmbaCJtF4uPccTsGNcsdkzp6Pj90FEuz3uf7s+bExSgo4XrqzjF7MevlBP3p6eMfre3x1bSkp8TxTGfqmydosbr9QhyG2uRbG2xEbytR1PB89cf0N8kPCgB9XstaaiB23mPPjJeg88u5VvolnUGZdCjB/T6skfL0vOmrMFFj14Hkqr4t3VcXj+FcfssCm0+4HZEsUKRJNDdZN+o8Xx/sUQB5WeSqAXUevR6UJs95bq/In1R3hgaQK8HSSqYdEU0y4VQfDSo0aLVGskDOWKoqseArd8wrcEZNn42lcDLd5EcXsbNa3o5do+N5KHseoztKMmgBznr1Dh5V72Z19mPbb1deWPAfxjtNYbxYev55L01hKUX82fKbtqT9AjlmADCtSNDXwj6yj6xl19uf0vvQW3YFKPh7SGNuLlrDmH3TLMjHxLWncaxeq8bdj/NYNzHJ7hdzIc+OZl0Q1Vq1LJC0mVy+yYg2eFY2wpDSgrpOjE71r3+S6+6NVBvDqDH5sJvaMzQSFPZdasTy9uO4ScBXyJ2vE3arVDTctBbNEo/jsexzMfyVqTt4vEpG9PslK7ZtGOMaPrtBCejptLftTVfnXlA9zfrcG33UX6TeZ0r0nZVVVtspHzy8/OJXjWWD7wlbkXko62fj2Rjg5XowxhyjS1FmDzWSQU1/tj3yq6dfwLlXCk84P49A9jZUlWCB8V6Qp8QRXSiGte+vai5Yw9JT0ha7aVIYvL606GbM+qzBZdE0TTg+W51yY+M4lo+Zc2wJTCQFRtOWOyTP9VejOByXn/atLEk8afIgu39kujTSUvVY9OoAQ6qX8u9o1GhvsobQ1U92nWpiy46mutaQc0yIeJLdS2WG4a3aPN8LVShpdwDa0oMDfnk5RnAxhqrErmKWXPadLAk1n01W7yvFvgytyfxvqEcC92y81B2PffvkyfZYGOrgic+D/z0euStU0Hy07ni8z1XfL5nQ9ORrDk1kynD9jPS40axXCh9/BFBJ5JjRZQVH+HakaEvRH3lBrNn+zXeHjGY3tEWvOkUzrdboh7uLplU72XlqiCqWm/ymddEHPZN4cPpfqSWCLYhJZwL11QM6NUF2x0/k2kAya4LXTqquLEx/OHDTcbs5B5exOAOK4ulo4bWs7cy3+UQ04du4UKKAYNk3JdBwI5JaJrR/Y16ZJ34gnMlfkhApO2i8TGGSXbK0GzSMcbQxfOL9yU+HN2bNt73edU5Bp+frsv/3INA29XVqmItacnXgiH7JjEXCr5rnq/FYGPz2MPJoMLhpcEMek1F8MYdnEt+pNiksUUIE8c6s4Z0fqUu+RGRxBbeEWGsdv4JlHNHN5vYiBuoJr3Lh8OT8Uu1pZ76Env2X0GXF8b2pb/Qa8MCvtnThB+8grienIfa1om6ROF9MBZd4iG2fDeStbM8WJj3P47EqGjy7iTGtI7H+53DpBqQbQI1JB3imw3DWP/RRtZV+4Yfj10mPb8KNZrWJvOwF6fj9WDIINgnjLyVY5k7O4MdAbfR2belpgqTLj9UqC8TYqh5cQgTx0uEXMunbt8JjOuUxtH3DpOsF9QsEyK+9HEH2X1kLEvmfc2nuvX4xmmo23UgLmZw66EhE2JouMv16NuoRw1hzLspnL5bjbpcxPtQLDrtNWKi8uk1+EMGR+4kPCEXlW0ralrIvXqTX48uLobYrOr0+Hgy59RnSNc40dAyhh9/umzaz+CUpacC6xQs6Th1Ll3unSYkIoG7eRY4dXbByfwB8Wk5j+9qlDX+CHgSyjGR+MhdO7L40nF16w+ETZ7HnK8k7h+ajk/cIx0m1XtZeoQaZIbL1Om8Jp1gmect7Fo0w66oD7KTiIu/i14bg/eaUwz8ei7LrmrwOgsuEz+hBwEs3VbUnwJ2spK4kVXct4YaGVoMDzJIiE0kSwcg4EvIDmDpwHMNHbDQ1MfeXELj8ByNW2XyIOMmNxLvPboPt2ZH2jXRc+l/F/54UiHSdqH4CGCCnTI1m3CMcXTc3HeIi/PGMHHJA+qEbuOo8MOrxTDWF0bbLmFtY4Nam0l+yYWkVovezBprc3jYULN2DN+wgGGNwNU6hn6zwx7OOyaNLSIIjHVSvTa8/GoqWVXq0WnEBD5oFcfuvocLHy4UqJ3y6PqbUc4dXR0xaxayyWUx7/3fWt5+kET01vkcPnCFLIOeRK+PGJ4ynLHT+jFqzTAcrCTupcRzyetzjh2KJdOQQ+i8EXx0Zw6TJi/HvYaBtIu/smXQcr4LMOHRTSFyCV/4AeN+n8r4MaOZO6IGVfTZJF8JZtvpHYXH6Ln13SfMcprPlFFL8Zhtgf5eJimXQzgem2vCpYOK9CUeQ0OeDa3dFjLY2ZLcuDAOfTgTD5+ihwdENMuFgC99MkfcxmL1xRyGL/Cgr0UOCecTCtrx8HYYU2KoJdJjEdtaz6P/mvUMuJ/EpS3z+dknlixdHLvGTMN22UTeW/ct0+zM0eXeJTMxktPX/6w7mGTSk+3L2kmeVF88mPk/jkOVnUDUdwvw2XeZLJM2ncrQU5F1KlVBbVGN50cv4r361bDgAZnxlwlZ+RGrd5W8z7eM8UfEl1COFVFWfOSuHXl86W8eYNvO8awdnsUP7r+Q+VjwTNFclh6B5qicaN2xDmZ1nFkY8NZjH+Ud+5TX++/hjkFP0vaZTLGew8ypS1j9MaRfOM7qAcs48LveBDsi8RXwJYi65XDc/dxoVDSDNlzBznf1pH47EtepgRQ9XqRu3ARnVQrHrt59wtguokcuzeJ2ytYsfoyQqt+PcST4Y+a8aiBw4s/lusJpvC+MtV2FVdUqkJdKyTsODFodWqyxspF4mPTaOEJPXOOdQRJBAXGPn2yYNLaIUNZaK5cbQWe5Pqg/S34agbkui1vnfFnX/yt+CCicL2Srnb83UjurJv+AZv5DUdXh3SMnmJbyMa8MPfyn3pbwZ6Kq/wHfhE8nbcxLzPL+J91Cr1BRKDmmoKDwZ6CMLX89/5xfDFb4m2BBy0Hv0/zBFeJv56Kyb0TXiR/S5o4vs/3LezOYgkJxlBxTUFD4M1DGlsqIstAVQePC5LM/Mqp5ae9H0RH31SAGzI/4C14T+CdT0W1XVad+N1dGvzONWnbm6LOSuR78M0v7ueMr8svoCpWLylg7So49HZWxT/+pVLa+kEtPZWuXKMrYUilRbl0QwpIazRrgYFnakzcGHiTHEZd0v0JVVQz/5LYrPD1K/jx7KH1aeahsfSGXnsrWLoW/M8pCV0FBQUFBQUFB4ZlE9GeQFRQUFBQUFBQUFP5WKAtdBQUFBQUFBQWF8iNZ02rodGaObVPpHv4q10LX+pVP2HUziC0z/lXpGqSgACA5DmJt+lXO5xT8BX/visWzpMe6Li5vvErLGuV7Y0Nli48pVMT4U5HxqWx9Udn0KCgoVA7KHHularQdNoYB3etR2iOEfxXlWOhKWNZvTF07e5ybO2EmvyYFhafGkH6UpV37MPCFD/gm5K9/sbfcetQt32eJ1xx6NyjfRZnKFh9xKmb8qcj4VLa+kE+PhG37Acz4cR+HEyI5mxLCwZOrGdnd8fGJR6qGi9uXeF4KIzjtHD4nv+Td56sVe+meoJ1iWLR6H4/YGEJOudGw+Kxr1JegnaLPm7zFwvMRHPqy0+MTv9kLfBIT8/Bkofhf2MU5tCtKXBE9JmouFWN2RDVbOtNj0Xp2Xg3nbEYEJ8K28MnQFlibIqhqD+aGB3M6I4ZzWdGc+d0Prz3z6Nvetli7VNT8cDtn/6DnMsc9uhbWfuExaV/Ts5SzMc2Ln3Iw4xhTOxXvQDX/WnyMs4XtUrtMZXfGKT59pfiIYkZnj0DOnplEUzWALX1+jCIkaHLhv0HV3A2vOxdZP8rRhP4QyWe5fMmJHGOv6bUsB+XYEDGQ9sN0hlx8Du3laO7Jr0lB4enRZZIYkwmqmnTIrQTPWyp6ZKKCxp+KjE9l6wu59KidcV06iY5Ju9k4LoJkdQNemzmdSV7mJLefhE+yAVBRa+gKvv6iNZe+WsRHwdBu4idM37uCnK5uHLipF7TzCE2TgSzfN5lm+rwSb+0S8CVkB9QOrejp5sbYiT1pYCVxu2TbtRfZPngwh4u9vluq/jITv51Abd9A4rSiekzTXDoCdoQ0V6Hjom/5YtAtts4YzfxYiUaDPmLW/zaiSXyTZb+I/VaspKlGrfpVif1qJF8czMGqOoP1aAAAIABJREFUVjNemTaDeQedocuH7Cv+trYHAax6bTln8or+w4A24+YfX/f+Z6OuRZ26evSNe/Bqs3VcjYb6fXrSQK8nybkWKlLEfupMJJ/l8iUrMoy9JtayXJi0iH54SSv7PAdPHWD/ptIuaZlR89WRfLb/IEduRRGSEYH/FR/cJ7V8tKWtqUWXmavZHn2O4LQwfE6uYvRrtR59LtnRdf4mPMP88U2KIiQjnKNn1jPRta7pq3OVPW3HL2F9kD+/pkbiF7WTJZM6YldUz+rmjDtzqdhZImDxBivSLrF5Yl3TgiSTL8muHQOWr2LD6eP8HB9OcGY0QYkBrJ3Q8JEekRgu3IxXxBlOpccQknqW/Ue/ZFi3EmdPxjQLIqRZxJemJi9+vIptF0MJvhNNUMIpvH034tbDruBMVsb+khzf4LOgX/FLiSbsTgQnznsyZ1gLrIrpEWqXTBjVU7jrEuo/FmeLhozwj3m4y+G7tpv8O5wVWKeSTUv6unuy97dwzmZeIjAhkAMnZ9O1auHnIuOPqB5jOSaKTLUjhy+bfu74Z/oyo0vxlqpp8sl+ziaspkfVCtasi2NX354MG72O/T6nOHPge1bM9ibJuh1tWxZq1DSn/5RusH8pc5YeIPDYAdaP/BxfqRtDhzcryDMRO4VIts8zaftH2G5y44tDdx5foIr4ErGDmsbjFjH51VwOjprOjt+esNg05HDrwgUiz4YX/IXE4zBgMO2St7PwU7+C166K6DFBc5mI2BHS3JSXetfl9k4PNnmHcSUilJ8XfcWh32vQtouziZesDWT/fpnLFyI4d3QPX49dx3nrrvTuWf3xGjRkkxh9hdhLRX9XiUu891SvHi4XaidqOV4l0L8ar/RpgEpdj1dc7Th77ArVn6sp3naRfJbLFwiNdcbmOPG1H6g7jGJNWBBnMiLxPb+VWUOaYmlK2/8ETLJsSD/C4s6hVFE58OYGT0Y88SgVjv2Xs+W73uh8v8dzmjtxt+9hXtMZ6+sJFAwJNnRaugX3kVqOLp7N2mgVTd+fjNuerdi/M4D/C8gGyQrnl16mVfYPzPvgJBmSI+3HzWDs1pVkdBmG1zXR85kquMzdwrqxeRxYtIAN4dlU7zacjxZtZEnW20z1vEV53kD9Z/uSnDrT98OeGDw/56vFN0jL0qKxrYF0zcQYdulCkzRPZk85yV3zOnQcPZlJP23B4Z1BuJ/OrWDNIr6s6bBkCx5jJHyXzWd9WBo49WDC5qF0amGN9EvJSefpMNyJ5uiK+Ry+mUquZE+L96YzY83X5F7pg3twvmC7KlBPfgTfuL7J3vZj8Pj2JYLHjGNbpBYwoMtMknmXoyLrVEObuf9j7tvxfDdrPAHXclDZOlG/YT7xhZtEQuOPkB65cqxyjS05ficIyX2drq+3wP1MVMGOj9qZbn2acs93EyHZFa0ZDPnaYjtPElZ1amKtjedGfMH/So7tadtYz4XVQdiO3MTueZZ49plOYKieV19sh50UQ5rBuB0AVI709FhJz+jFjFwVifPKx7WI+jJmB3RcWT6It74wYNC4MHmZ8ThUecmNaf9Vc2LEes5ni+tJF9VsBOG2G9GMLon4uHyc/t2Tf1U9z4UsA2YNO/AvpztcCv39qXYZDdk55OolrCzMkKDiF7LGsKyBQ9VcQnee578TXsN5n5buDifZva8ZnXpVx1qCPEHRRvNZNl9iY53ROU5o7VfYGrMcYjwW4xmr5bl+bkzcuBnrrLdZ6FPgS6iWZca0JbQui9tXs0CVQ1pp+9bmHRi+uA82/gsZMnAntx5qD3x4iFS7DyNHOXPly7dYtPYaOiDo11jMmh5gzAxXtp7aTWrhsfrfz+N3LJAHQGiUDR0j5/Byd3t2XEt9WAiqKtZYmasLzk4MOvJycnhQ6FdycmXspHqcmdKbFbvSC74Tdhmzjv4sGdIDp+3bSTIpCKUjv6/7xPrs5fjx/D/6MiGGhoRITvudLYihXwz4efPBDFe2B+4h3VFAs0kzXxmaBeJz2/FNRo5qwG+r+vOZe0zBws3Cnn66oTiYFDtB8m9w1vvGw39GR1rSaaAH7TrXRhUcX2zSL71dRZSVh/LpuU/6b9fJrJ5JviGPzBvXiLvyZCdPq0fuOi0bDfY17SDDj3N+IUSlFgiN8C92iMj4I6CHmvLkmFC9FybQU/eFiK87pzjhm8uSPj1pujSKGC2omr1BL5csAlb6c9dgmma5MWvcj8+Wdid5wyj2XS9wonJyorqUxYWk+9h0q0d1B0tq2+VyJjEXqYMj1dWQpjVuB1Q4DVzIzI4BLOx+lBS9GucS/sV8GbcDgMEgvhBT1cZ11kAcQ79mU7HdYRE9d8oRnydKMNVOKZoxJOMzawGddi9mQ0h7Th6Jp+Z/usHqyaw6mv0EzyJImDs0pfvcETyfF8rXx5MfP9myfJOV6Vcf/fv+MWbXn8jRHBNcqAuufo0o8d/6OD9hE6oaDthLWu4F+eA/+1MGu2mx+/krzmc1RLK3p5oKMsqxVntiXcjkSzJprCtjjjNh7NUG72LtxsM8ADh5GbMWh5k4wZV1R7y4XWJseXIty4/se8Wqem1xqasjYsVREkvpCE0rF5qb38In4Majlb02jpCABNyGuNDYbDepTyhefcrvJGRLNKteDYmiCVRDh6VH2Di+dsFlZF0CO1x7suJUgQFN63a0sqqK3YYAgtY/siVpzFBdr4OjCpJkOnWsUF/ljCF5sQT63WLM4DY0NtvDXRHNMuWfSHzS/tWWlhZJHD4ZWyH3YKkcOzFkwSTe+XdzatmryE3OxbKKRKKluYmWys7Dv6MeeevUGPcJ/GIZR3ctYN3Ff3P+kA8/7/TmyC/XyXnK/CupRy1TjgnVux5k6QsRX9o7nNrlR9a23vRovYaYcGg6wJUmyUfxOJFtomZ5qdL6fT7fM4tGp+YwYdH/s3fmcVGV3x9/35lhERBZBNfE3fTrltrPtKy+uVRYaoZLprkvuC+5ZO5LmX5dyNwz13BJcUk0lxDDBQQUQWUREwlkExBZFJjl9wegSMA8gyNR3ffrxR86M+d8nvOcc+5zn7l3bgB/XqOoCV3Sjw+2KkiOyeX/BhlmR7J7hwmLWhEwqweXUvVlXMm+DLMjhqKZC3075XBu6EGK37QSGbtYfPQjZqdkzRIW1etS0yqeC1uPEmzSmq4aK5q4fMxre4I4ddeQlZ4Jr7n54LtGicpEgSbGhy39ZrK/6LdA2RdY3e0b/Aqu0dU+5J6hF4hqYjk6ajzuNwtsK2kw9jsWdBI3IdnaYi2pyc28zinPymyfqMT93WCyGqiRrK2xKsOlPyXms5F8qcr5ePontDEE+caiHNCUeipIyHn6kv6eYDzKttAt7WxWp0ULaLWld8uS56m05qJFqwFJUfjTGsI3TGTUYbN8m9kkBBcqFEkCTQyHh41h940iBZSbRpwaUGrRakFp8pzr/vL0RVljqAOtFiQp76ArotlYCMVHhRI1arWePDBGDBW1cdm+hcl1L7Fp7iQuhj9Esn8DV/epZdg91pOHRtejb0fJCHowZp3qJ+eWB3Pae7OzmzPvuXzAcPcRjAncwMwBawlMKeTPkN204vQI5ZgAwrVjhLkQ9JVx5iC/JnxPt74t2Rymokf/+sTsm03gI8PsGA8Jy3ajWH3QFZtD0xj1+RkSCvnQJiaSoqtM1eoWSJo0EmIAyQaHGhbokpJI0YjZsez6MV1rVUW51YfOW/M/oTJBJU1i3712LGs1gkMCvkTseBi0W6Gkad8PqZ9yGrdTac/krcjYxeNTOobZKVkz5u1x3Twc1YaezFz1Oxr2sM/tANPO7mTWnDOcH+mF2O1oAGqCvhrIksOPqD9qJUs+TOF2aPKfL53RPeReSCjh2cKGiyGHlMhQwoOfLnRViU9XXTqtBi0KlEUOKUoTJWi1aABFZWuspFxyc3MJXTWSzzwk7gXnoq6Ti2RlhYVhdzyVms9G82WsXleAwb1Xyus5z3yu9LG/CMq4Usjm8SMd2FhTWYLsQiPXxl4nNE6Jc6+uVNtzgPhiClF9M4SwnN606eSE8nLeV6Ko6vJqp1rkhlzndi6lHWGLoCM9MojAyOJfVd8IJjynNy1bmhN3KIRia0WbQvJ9LVb162Kv+K3MOxrl6qusMVTUpnWHWmhCQ7mjFtRsJER8KW5Hclf3IS1frY4ioIRrYA2JoS6XnBwdWFliUSRXMWlCyzbmRK5ZzTaPW3m+TG2Je6wrw0K39Dw0up7Hj8mRrLCyVkCxV8Y9vx7j1qkguSlEeO4mwnM3GxsNZe356UwcdIShbncL5ULJ/UcEjUiOFVBafIRrxwhzIeory48Du27TY0g/uoWa8b5jEN9vu/5kN8egei8tVwVRVH+fue7jsD88kdFTvblfJNi6pCCu3Vbg0rUD1nt+IU0Hkk0HOrRVcHdTUN4NUAJ2so4vpF+bFYXSUUXzWduZ1+IYUwdu41qSDp2k35dOwI5BqBrz1nu1ST/zNVeKrABFxi4aH30YZKcUzQq7BtSrlkPMrbgnXUf38DpXQx7Tp3YNrBSQJXxM0/E44S5RESncmfsFTV7fzeeLPAkc601aOV+gq0tMJFlrQ72XHVF45fcERXXqN66MLjGRVC1IVSpjKanJVYMuI4awa3mfNc1Vo7OyeuYGZn3oy2fDfCmwf70ffd9R4LdpD1cSnxozqNcJYWDvNalH+zdrkRscQmT+FRH6xv4iKOOObgaRwXdRjP+E0YMT8b5vTW3lTQ4ciUCTE8iuJb/SdeN8thxoyI/uvtxJzEFp7UgtruPxcySauGNs+2Eo62a4sSDnO06EKWj4yXhGNI/Go+dx7usw2gFUF3+MLRsHsWHKJtZX2cJPp8JJya1E1UY1SDvuzoVoLehS8fMMJGfFSL6clcoenwQ0tq2opsCg7f5y9WVADFWv9WfcGAn/27nU6jWWUe2SOTngOIlaQc1GQsSXNupn9p8YyeI53/KFZgNeUSpqdexDCxO498SQATHUPeROaALKYf0Z8UkSFx5WoRY38DgWiUZ9m7DruXTtN5p+IXsJis1CYd2MambGXr0ZX48mKozIdDs6fz6BK8pLpKgcqWcexk+Hwg27IaQ0PeVYp2BO20lf0uHRBfyDY3mYY4Zj+xY4mmYTnZz57C5Caf1HwJNQjonEx9i1YxRfGm5t/5HACXOYvVLi8bGpeEY91WFQvZemR2hAJrSYNJV3pDMs3XEPm5cbY1MwBxnxREU/RKsOw2Ptefp8+yVLb6lwvwwtxs2kMz4s2VkwnwJ20uO5m17Yt4qqqWp02anERsaRrgEQ8CVkBzC356V69pip6mBrKqGyf4kGzdLITo3hbqFfBFBUa0vrhlpufnftzycVImMXio8ABtgpTbM2MZDAMDOGzJ2PS+ZOAmPB8Y1BjHZWcft/AWVftDwKZsfsQzgfnMXQ7b6s8Xv89DXJihpNG9Ow0NfeOk0a8REJZOr0v0dk80aX/BunvLKY+/lXjElYx7koidofjGXIq1lcGudDmk7CysoKpTqN3KKLO7UarYkllqYgtlOkL5/TMTfEl0lrBm+cz6D64GwZxkezAp8cBw3qdSII9F6pdkveePs+6ZVq027IWD5rFsX+Xsfzb3YUqOWy6NJDGXd0NYStXcDmFosY8L919MiOJ3T7PI4fjSBdpyXOfQqDkwYzcvJHDFs7CHsLiUdJ0dx0/4pTxyJJ02USMGcIUx7MZvyEZaypqiP5xm9s67uMH3zKekF7SWQRtOAzRv0xiTEjhvPlkKpU0maQGOHHzgt78t+j5d4PM5nhOI+Jw5bgNssM7aM0ksL9OR2ZZcBWfXn6Eo+hLseK5q4L6OdkTlZUIMdGT8fNs+AGAxHNxkLAlzaRE64jsfh6NoPnu9HLLJPYq7F543hyOYwhMVQT4raQnc3n0HvtBlwex3Nz2zx+8YwkXRPFvhGTsV46jgHrv2eyjSmarIekxYVw4c6LumLISHoyvFg3fgd2i/ox76dRKDJiuf7DfDwPh5Nu0G5IKXrKs06lSijNqvDq8IUMqFMFM7JJiw7Hf8UUVu8rep1vKf1HxJdQjhVQWnyMXTvG8aWNOcrOvWNYNzidH9f8WmR3zBDNpekRGI7CkeZta2JS04kFPh8+81LOqS94t/cBHui0xO+azkTL2UyftJjVn0PKtdOsdlnK0YLfUhWyIxJfAV+CKJsOZo23K/ULjqD1lrP3Ey33vx+K86SLFNzOo2zQECdFEqduPSymt4voMZZmcTulalaHsf3Tyai+Gs8I9wN8YaElIzYc/+8ms2p1+HMtUjLPbWbHxZ5Mmu/CTx/sJrbAmFknpl549mJa3cPDTKk7nXPZ+t9zQcS5Np6fXcdQ+atp9F29laHWOjKib+AzZwyr3RPQosCiciXIuU/RqwB0ag1qLLGwkhAqDL357IG5Ib7UUQScuU3PvhK+PlHPnvwY1OtEKG3tl8Vd38vc6dubxYeGYKpJ594VL9b3XsmPPpmCYxetZcOQWls0rHC/4iFjJBQ1+eTEGSYnfc6bA4+/0MsSXiSKOp+xJWgqySNeZ4bHi7xkXebfipxjMjIy/wb+jb3uxf1Cr4xMmTCjad9PaZIdQXRCFgrb+nQcN5qWD7yYdU78NgcZmZKRc0xGRubfgNzrQF7oiqFqwYTLPzGsSUnPI9EQtbIvLvOC/4LH8r1gynvsCjvqdHJmeM/JVLcxRZueyB2/X1jy0Rq8RH4ZXaZiURFrR86x56Mizum/lYo2FxVNT3lSEccu9zpAvnRBEHOqNq6LvXlJd97oyE6MIir+cQmv/535N49d5vmR8+efhzynFYeKNhcVTU958m8ee8VGXujKyMjIyMjIyMj8IzHoJ45lZGRkZGRkZGRk/i7IC10ZGRkZGRkZGZnikSxpNnAq00e2/Fve2FWmha7lmzPZF+PLtmn/+VsOWuafj+TQl3Upt7iamffnt9sZs3+SHstatHjvbZpWLdsTGypafAyhPPpPecanos1FRdMjIyPz4im1r0pVaDVoBC5v1aakW+0qMmVY6EqY12lALRtbnJo4YmJ8TTIyz40u5SRLOnanz/99xhb/F/wg7b9Aj7Lppyx2n023umX7UqaixUec8uk/5RmfijYXxtMjYf2KC9N+Oszx2BAuJ/nz89nVDH3L4dkDj1SFFq7fsONmIH7JV/A8+w2fvFql0EP3BO0UwqzZp7hFhuF/3pV6hY/Men0J2il4veGHLLgazLFv2j27ODD5P2aGhT05WSj8F3hjNq0LEldEj4GaS0SfHVHN5k50XriBvbeCuJwazJnAbcwc+DKWBggy7eWGb8af/VzNvMWVhNW8U3BmZVaHt+evwz38Kn7JVzlxYR3jPqyDqaF2BGLTed1JzsRfJzAjgsCUK5y8vI0vXdtiV5BklTvzZZAfF1LDuJIeyqU/vHE/MIder1gXmgsF1Ubv4vKf9IRz2q3jM/3K1OlNhm7+kUNR1/BLvMzxi1uYMbgFlV/ggzlLxhh91fA6LS/KsCGiI/nHqfS/8RLq8FAeGV+TjMzzo0kjLiwNFNVok1UB7reU9RiJcuo/5RmfijYXxtKjdMJ5yXjaxu9n06hgEpV1eWf6VMa7m5L4yng8E3WAguoDl/Pt1825uXIhU/yg9biZTD24nMyOrhyN0QraeYqqYR+WHZ5AY21OkSd7CfgSsgNK+2Z0cXVl5Lgu1LWQSCg6dvUNdvXrx/FCj++W7N5g3PdjqeF1kSi1qB7DNJeMgB0hzZVou/B7vu57j+3ThjMvUqJ+3ynM+G4Tqrj3Wfqr2G+z5v66jAGvrkMhgWX3+WyZLbHZeQHeaaDTPCQ+B5Cq8Pr/trO8RwJ7Z49j2W0lDfpMZNLOHdj178WSk2lidoQwweal2lhf/Y7hM715bGpDnf8OZMKSH2hi0ZehK8PRqqpQvU5lIlcO5eufM7Go3pg3J09jzs9O0GE0hws/YS7bh1XvLOPSE/861KkxTx7Nq6zvwjenl9Du/nF2zN5CSIIKh+btaWtnRs5f0gKM0FcNrNPyxKCF9pOvtDKu8vP5oxzZXNJXWiZUe3soc4/8zIl71/FPDeZchCdrxjd9uu2tqk6H6avZFXoFv+RAPM+uYvg71Z++LtnQcd5mdgSewyv+Ov6pQZy8tIFxzrUMX50rbGk1ZjEbfM/x2/0QvK/vZfH4ttgU1LOyCaMu3Xz2jMvsPZYn32TruFqGBclIviSb1rgsW8XGC6f5JToIv7RQfON8WDe23lM9IjFcsBX34EucTwnD//5ljpz8hkGdipxh6dMsiJBmEV+qarz2+Sp23gjA70EovrHn8fDahGtnm7wzZyPOl+TwHnN9f8M7KZTAB8GcubqD2YNexqKQHqFxGQm9evJ3XQLOjcTJrB5DzoU92THwWtfJ+Duc5VinklVTeq3ZwcHfg7icdpOLsRc5enYWHSvnvy7Sf0T16MsxUYxUO8bwZfXRGs6leTGtQ+GRKmk48wiXY1fTuXI5a9ZEsa9XFwYNX88Rz/NcOrqb5bM8iLdsTaum+RpVTeg9sRMcWcLsJUe5eOooG4Z+hZfUiYGDG+flmYidfCTrVxm/awrWm135+tiDZxeoIr5E7KCkwaiFTHg7i5+HTWXP78UsNnWZ3Lt2jZDLQXl//tHYu/SjdeIuFnzhnfeYUxE9BmguFRE7Qpob8Xq3WiTsdWOzRyARwQH8snAlx/6oSqsOTsJ6dOlx/B4aQeTNW9y5l4lOl0li2C0ib0ZwOzyeTB0onD5i2AA7Ls+fzJofLxLs68Oh6RP57rwdH3zem1oKMTuGoEuLISI4lLCAS5xaMZO1xzU07dOV+k8GpiPjj3DCrwVz5eQBvh25nquWHenWxe7ZvqHLIC40gsibBX+3iIp7lJdHkh1dF83kjUc/MfO9aXzv7o3fr2c45raUhasDDHuCqUAf03f8El/XgbLNMNYG+nIpNQSvq9uZ0b8R5gUvGlCn5Y1B3nUpJ1jUPoBKCnve37iDIcW+S4FD72Vs+6EbGq/d7Ji8hqiER5hWc8LyTmz+s7CtaLdkG2uGqjm5aBbrQhU0+nQCrge2Y9vThf/5ZIBkgdPrb9As40fmfHaWVMmBV0ZNY+T2FaR2GIT7bdGfXK5Eiy+3sX5kDkcXzmdjUAZ2nQYzZeEmFqf3YNKOe8/1fO4X5UtybE+v0V3Q7fiKlYvukpyuRmVdFem2gTHs0IGGyTuYNfEsD01r0nb4BMYf2oZ9z76suZBVzppFfFnSZvE23EZIeC2dx4bAZHDszNitA2n3siXSr0UPOs+H7kEoJ5fP43jMfbIkW14eMJVpa78lK6I7a/xyBcdVjnpyg9ni/D4HXxmB2/ev4zdiFDtD1IAOTVo8xv3iuzzrVEXLL7/jyx7R/DBjDD63M1FYO1KnXi7R+ZtEQv1HSI+xcqxi9ZZM7zP4Z71Lx3dfZs2l63k/Sq90olP3Rjzy2ox/RnlrBl2uutCP40tY1KyGpTqau9F5/ys5vEKrBlqurfbFeuhm9s8xZ0f3qVwM0PL2a62xkcJI1um3A4DCgS5uK+gSuoihq0JwWvGsFlFf+uyAhohlffnwax06VQsmLNUfh0qvuzL5YyVnhmzgaoa4nhRRzXoQHrsezWjiiY7KxfG/XfhP5atcS9dhUq8N/3F8wM2AP4z4IAQJq9fa00wKYc3ppKc5qU3A51gI05e+Rusq24lJfZG7hGqys7WgUCKVcBKoy8gkSythYWaCBEJ9Q7J9k/e6WRGxfBu+z6VfrI/pPX4JrevytZtkEua2iB2Ral76yJVxm7Zimd6DBZ55voTq9C/AsGW2Jp2EW+mgyCS5pL1t0zYMXtQdq3ML6N9nL/eejO/ik7dINbozdJgTEd98yMJ1t9EAvr9FYtLoKCOmObP9/H7u579X+8dVvE9dJBsIuG5F25DZvPGWLXtu33+SVIpKlliYKvPOYHQacjIzyc73Kzk6M3J8bS5N7MbyfSl5nwkMx6TtORb374zjrl3EGxSEkjG+r8dEeh7k9OncP/syIIa62BAueF/Oi6F3GHh78Nk0Z3ZdPECKg4Bmg458pWgWiE+Cw/sMHVaX31f1Zu6asLyFm5ktH2kGYm9Q7ATJvctlj7tP/hkaYk67Pm60bl8DhV90oYN+yeMqoLQ8NJ6ex6T8foc0uzRydTmk3b1NVETxTp5Xj7HrtHRU2FazgVRvrnj7c/1+ntDgc4XeItJ/BPRQzTg5JlTv+Qn03HMh4uvBec54ZbG4excaLblOmBoUjd+ja4t0fFac46HOMM3GxqTBR8xd8haJG4dx+E6eE4WjI3ZSOtfiH2PVqTZ29ubUsMniUlwWUhsH7JSQrNZvBxQ49lnA9LY+LHjrJElaJU5F/Iv50m8HAJ1O/IRbUQPnGX1wCPiWzYV2h0X0PChDfIqVYKidEjSjS8Rzxnza7V/ERv9XOHsimmofdILVE1h1MqMYz2VFgV1NR5Q5d4i/XzghtaTGxJGjbICjgwJSX8wCSmFuR72uIxnW3YKYrefyL9sojISpfSPe+nIIr+YE8O3pxGdPEM3fZ0XKraf/fnyKWXXGcTITFC/VpZZpBjeC/3iuk0rJoD5WyvHLgL6q9tvHuk3H83adz4Zj8vJxxo11Zv0JdxKKDKb4Ov1rMPp+sqJ2K1rU0hC8/CRxJeSgqlkLmpjew9Pn7tPVvzoKf59YXPu3oIHJfu4XU7zapD+IzZBobFcFiYIDqIo2S06waUyNvK+RNbHsce7C8vN5BlTNW9PMojI2G33w3fDUlqQyQXGnJg4KiDfSSWG5+ipjDMmJ5KL3PUb0a0kDkwM8FNFspBwViU/yf1rR1Cye42cjjbw7WTwKh3b0nz+env9tQnVbBVmJWZhXkogzN9X/4WcoPQ//jnqMW6f6eMzFr5dyct981t/4L1ePefLLXg9O/HqHzOfMv6J6lEbKMaF614JR5kLEl/oB5/d5k76zG514RqPNAAAgAElEQVSbryUsCBq5ONMw8SRuZzIM1GxcKjX/lK8OzKD++dmMXRhA5p/eoSZ0ST8+2KogOSaX/xtkmB3J7h0mLGpFwKweXNK7S1ayL8PsiKFo5kLfTjmcG3qQ4je2RMYuFh/9iNkpWbOERfW61LSK58LWowSbtKarxoomLh/z2p4gTt014sKz1EtpDDjRMACTD1bg83AFkkKB7lEC136czbSlQeQ8kWPCa24++K5RojJRoInxYUu/mewv+s1V9gVWd/sGv4JrdLUPuVewiNRq0RlyolQCqnI+Vv4JbQxBvrEoBzSlngoSCl0Prb/ey5eyLXRLmySdFi2g1ZbeLUvO4dKmX4tWA5Ki8Kc1hG+YyKjDZvk2s0kILpR0kgSaGA4PG8PuG0WSMTeNODWg1KLVgtLkOdf95emLssZQB1otSFLeQVdEs7EQio8KJWrUaj15YIwYKmrjsn0Lk+teYtPcSVwMf4hk/wau7lPLsHusJw+NrkdfozSCHoxZp/rJueXBnPbe7OzmzHsuHzDcfQRjAjcwc8BaAlMK+TP4IFFEj1COCSBcO0aYC0FfGWcO8mvC93Tr25LNYSp69K9PzL7ZBD4yzI7xkLBsN4rVB12xOTSNUZ+fIaGQD21iIim6ylStboGkSSMhBpBscKhhgS4piRSNmB3Lrh/TtVZVlFt96Lw1/xMqE1TSJPbda8eyViM4JOBLxI6HQbsVSpr2/ZD6KadxO5X2TN6KjF08PqVjmJ2SNWPeHtfNw1Ft6MnMVb+jYQ/73A4w7exOZs05w/mRXojdjqZXMSn3ktCYVqN6VQXEPt25t61dHVPNfZKSjH9GlntuJcOnnyXjcTr3YxLI+NPNbGqCvhrIksOPqD9qJUs+TOF2aPKfd2Z1D7kXEkp4MRfcau/FEK+2on7TmihO3S37rq6x+lgBBvdVKa+fPPO50uv0r6KMK4VsHj/SgY01lSXILhQdbex1QuOUOPfqSrU9B4gvphDVN0MIy+lNm05OKC/nfSWKqi6vdqpFbsh1buei52yuMDrSI4MIjCz+VfWNYMJzetOypTlxh0KKv9Bbm0LyfS1W9etir/itzDsa5eqrrDFU1KZ1h1poQkO5oxbUbCREfCluR3JX9yEtX62OIqCEa2ANiaEul5wcHVhZYlEkVzFpQss25kSuWc02j1t5vkxtiXusK8NCt/Q8NLqex4/JkaywslZAsVfGPb8e49apILkpRHjuJsJzNxsbDWXt+elMHHSEoW6FDwgl9x8RNCI5VkBp8RGuHSPMhaivLD8O7LpNjyH96BZqxvuOQXy/7fqTHR+D6r20XBVEUf195rqPw/7wREZP9eZ+kWDrkoK4dluBS9cOWO/5hTQdSDYd6NBWwd1NQXk3QAnYyTq+kH5tVhRKRxXNZ21nXotjTB24jWtJOnSSfl86ATsGoWrMW+/VJv3M11wpsgIUGbtofPRhkJ1SNCvsGlCvWg4xt+KedB3dw+tcDXlMn9o1sFJAllHWnzoyfP0I1U2kUxcHftqRkFenimp0+qAlBLkRlPYC9nTT4/n9ZmQpi3UdjxPuEhWRwp25X9Dk9d18vsiTwLHeiMrRpV7iN99cZg79jLbbluD/sLQPKrB/vR9931Hgt2kPVxKfBtegPiaEgX3VpB7t36xFbnAIkflXROir07+KMu7oZhAZfBfF+E8YPTgR7/vW1Fbe5MCRCDQ5gexa8itdN85ny4GG/Ojuy53EHJTWjtTiOh4/R6KJO8a2H4ayboYbC3K+40SYgoafjGdE82g8eh7nvg6jHUB18cfYsnEQG6ZsYn2VLfx0KpyU3EpUbVSDtOPuXIjWgi4VP89AclaM5MtZqezxSUBj24pqCgz6SqBcfRkQQ9Vr/Rk3RsL/di61eo1lVLtkTg44TqJWULOREPGljfqZ/SdGsnjOt3yh2YBXlIpaHfvQwgTuPTFkQAx1D7kTmoByWH9GfJLEhYdVqMUNPI5FolHfJux6Ll37jaZfyF6CYrNQWDejmpmxV2/G16OJCiMy3Y7On0/givISKSpH6pmH8dOhcMNuCClNTznWKZjTdtKXdHh0Af/gWB7mmOHYvgWOptlEJ2c+u9NQWv8R8CSUYyLxMXbtGMWXhlvbfyRwwhxmr5R4fGwqnlFPdRhU76XpERqQCS0mTeUd6QxLd9zD5uXG2BTMQUY8UdEP0arD8Fh7nj7ffsnSWyrcL0OLcTPpjA9LdhbMp4Cd9Hjuphf2raJqqhpddiqxkXGkawAEfAnZAczteamePWaqOtiaSqjsX6JBszSyU2O4W3B3PaCo1pbWDbXc/O7an08qRMYuFB8BDLBTmmZtYiCBYWYMmTsfl8ydBMaC4xuDGO2s4vb/Aoy6sNFGHWLbvsGsXLSaSTnfcea2ggZ9JzG+UyrHB3g83eT9q3gUzI7Zh3A+OIuh231Z4/f46WuSFTWaNqZhoR1hnSaN+IgEMrVx/Dx3A91PTOZ/v1ize/Ov3LibSaU6LWhrf40Nqy+QXpBAJq0ZvHE+g+qDs2UYH80KfHKMM6iPiSDQV6XaLXnj7fukV6pNuyFj+axZFPt7Hc+/kVGgTsuiywiUcUdXQ9jaBWxusYgB/1tHj+x4QrfP4/jRCNJ1WuLcpzA4aTAjJ3/EsLWDsLeQeJQUzU33rzh1LJI0XSYBc4Yw5cFsxk9YxpqqOpJv/Ma2vsv4wceYF7QDZBG04DNG/TGJMSOG8+WQqlTSZpAY4cfOC3vy36Pl3g8zmeE4j4nDluA2ywztozSSwv05HZllwHZ+efoSj6Eux4rmrgvo52ROVlQgx0ZPx82z4AYDEc3GQsCXNpETriOx+Ho2g+e70cssk9irsXnjeHI5jCExVBPitpCdzefQe+0GXB7Hc3PbPH7xjCRdE8W+EZOxXjqOAeu/Z7KNKZqsh6TFhXDhzou6qshIejK8WDd+B3aL+jHvp1EoMmK5/sN8PA+HP22Sz6unPOtUqoTSrAqvDl/IgDpVMCObtOhw/FdMYfW+otf5ltJ/RHwJ5VgBpcXH2LVjHF/amKPs3DuGdYPT+XHNr0V2mgzRXJoegeEoHGnetiYmNZ1Y4PPhMy/lnPqCd3sf4IFOS/yu6Uy0nM30SYtZ/TmkXDvNapelHC34XVIhOyLxFfAliLLpYNZ4u1K/4Ahabzl7P9Fy//uhOE+6SMEtP8oGDXFSJHHq1sNieruIHmNpFrdTqmZ1GNs/nYzqq/GMcD/AFxZaMmLD8f9uMqtWhxt3IaN7gM/UIcxOnsXIxev5xB4ehPviMXQ6G48b99d3ykrmuc3suNiTSfNd+OmD3U8X32admHqh0zPv1T08zJS60zmXDdlBmxjfNY6Rcwbz0dL3GW2lIyM2nMs/3sBC4ml9qaMIOHObnn0lfH2inj2xMaiPiVDaui6Lu76XudO3N4sPDcFUk869K16s772SH33yj01Gq1PjI7W2aFgR8kXmRaCoyScnzjA56XPeHHj8hV6W8CJR1PmMLUFTSR7xOjM8/urL2mX+icg5JiMj83dH7mPF89f+iq+MzJ8wo2nfT2mSHUF0QhYK2/p0HDealg+8mHXOOLc5yPzbkXNMRkbm747cx0SRF7oiqFow4fJPDGtS0nNfNESt7IvLvGAj/mB2BaG8x66wo04nZ4b3nEx1G1O06Ync8fuFJR+twUvkl9FlKhYVsXbkHHs+KuKc/lupaHMh6yk/5D4mjHzpghDmVG1cF3vzku680ZGdGEVU/OMSXv87828eu8zzI+fPPw95TisOFW0uZD0yFQ95oSsjIyMjIyMjI/OPRPFXC5CRkZGRkZGRkZF5EcgLXRkZGRkZGRmZioJkSbOBU5k+sqV8I5URKNNC1/LNmeyL8WXbtP/IkyBTIZEc+rIu5RZXM/P+/HY7Y/ZP0mNZixbvvU3TqmV7YkNFi48hlEf/Kc/4VLS5qGh6ZGT+iZTax6QqtBo0Ape3alPSbXQy4pRhoSthXqcBtWxscWriiInxNcnIPDe6lJMs6didPv/3GVv8//qHbRtbj7Lppyx2n023umX7UqaixUec8uk/5RmfijYXxtMjYf2KC9N+Oszx2BAuJ/nz89nVDH3L4dkDj1SFFq7fsONmIH7JV/A8+w2fvFql0EP3BO0UwqzZp7hFhuF/3pV6hVcKen0J2il4veGHLLgazLFv2j27WDH5P2aGhT05WSj8F3hjNq0LEldEj4GaS0SfHVHN5k50XriBvbeCuJwazJnAbcwc+DKWBggy7eWGb8af/VzNvMWVhNW8I3xmJZIb1nT/6Tr+vhNolD+HiiauuD+4wYZhDkZ/irmo7ufvY4bXxb+VMmyI6Ej+cSr9b7yEOjyUR8bXJCPz/GjSiAtLA0U12mRVgPstZT1Gopz6T3nGp6LNhbH0KJ1wXjKetvH72TQqmERlXd6ZPpXx7qYkvjIez0QdoKD6wOV8+3Vzbq5cyBQ/aD1uJlMPLiezoytHY7SCdp6iatiHZYcn0FibU+TpWQK+hOyA0r4ZXVxdGTmuC3UtJBKKjl19g139+nG80OO7Jbs3GPf9WGp4XSRKLarHMM0lI2BHSHMl2i78nq/73mP7tOHMi5So33cKM77bhCrufZb+Kvb7rbm/LmPAq+tQSGDZfT5bZktsdl6AdxroNA+Jz9FvAxDLDWV1atbSom3Qmbcbr+dWKNTp3oW6Wi3xTtVRkPQX/LSYEfqYgXXxb8aghf+Tr7QyrvLz+aMc2VzSV1omVHt7KHOP/MyJe9fxTw3mXIQna8Y3fboNr6pOh+mr2RV6Bb/kQDzPrmL4O9Wfvi7Z0HHeZnYEnsMr/jr+qUGcvLSBcc61DF+dK2xpNWYxG3zP8dv9ELyv72Xx+LbYFNSzsgmjLt3ktFvHp2dWZu+xPPkmW8fVMixIRvIl2bTGZdkqNl44zS/RQfilheIb58O6sfWe6hGJ4YKtuAdf4nxKGP73L3Pk5DcM6lTkjE+fZkGENIv4UlXjtc9XsfNGAH4PQvGNPY+H1yZcO9vknX0bcb4kh/eY6/sb3kmhBD4I5szVHcwe9DIWhfQIjctI6NWTv+sScG4kTmb1GHKuYAcmHK91nYy/w1mOdSpZNaXXmh0c/D2Iy2k3uRh7kaNnZ9Gxcv7rIv1HVI++HBPFSLVjDF9WH63hXJoX0zoUHqmShjOPcDl2NZ0rl7NmTRT7enVh0PD1HPE8z6Wju1k+y4N4y9a0apqvUdWE3hM7wZElzF5ylIunjrJh6Fd4SZ0YOLhxXp6J2MlHsn6V8bumYL3Zla+PFXlMrIgvETsoaTBqIRPezuLnYVPZ83sxi01dJveuXSPkclDen3809i79aJ24iwVfeOc9ClVEjwGaS0XEjpDmRrzerRYJe93Y7BFIRHAAvyxcybE/qtKqg5OwHl16HL+HRhB58xZ37mWi02WSGHaLyJsR3A6PJ1N0jSaSG0pHqjvc4uK5KrzZvS4KZW3edLbh8qkI7F6qZtilAQJ9Q9/xQnwdBco2w1gb6Mul1BC8rm5nRv9GmBsydhnAwB1dXcoJFrUPoJLCnvc37mBIse9S4NB7Gdt+6IbGazc7Jq8hKuERptWcsLwTm/8sbCvaLdnGmqFqTi6axbpQBY0+nYDrge3Y9nThfz4ZIFng9PobNMv4kTmfnSVVcuCVUdMYuX0FqR0G4X5b9BysEi2+3Mb6kTkcXTifjUEZ2HUazJSFm1ic3oNJO+4Z8fncxvMlOban1+gu6HZ8xcpFd0lOV6Oyrop028AYduhAw+QdzJp4loemNWk7fALjD23Dvmdf1lzIKmfNIr4sabN4G24jJLyWzmNDYDI4dmbs1oG0e9kS6VfjPuNc9yCUk8vncTzmPlmSLS8PmMq0td+SFdGdNX65guMqRz25wWxxfp+Dr4zA7fvX8Rsxip0hakCHJi0e437xXZ51qqLll9/xZY9ofpgxBp/bmSisHalTL5fo/E0iof4jpMdYOVaxekum9xn8s96l47svs+bS9bxdKqUTnbo34pHXZvwzylsz6HLVhXbLJCxqVsNSHc3d6Lz/lRxeoVUDLddW+2I9dDP755izo/tULgZoefu11thIYSTr9NsBQOFAF7cVdAldxNBVITiteFaLqC99dkBDxLK+fPi1Dp2qBROW6o9DpdddmfyxkjNDNnA1Q1xPiqhmPQiPXY9mNPFER+Xi+N8u/KfyVa6l6zCp14b/OD7gZsAff8lDF/TmhnlV7CtnEbD3Kh+PfQenw2resj/L/sONadfVDksJcoQKXqxv6D1eCK2j8kdjkkmY2yJ2RKp56SNXxm3aimV6DxZ45vkSqgsZAzddNOkk3EoHRSbJJe21m7Zh8KLuWJ1bQP8+e7n3JN4Xn7xFqtGdocOciPjmQxauu40G8P0tEpNGRxkxzZnt5/dzP/+92j+u4n3qItlAwHUr2obM5o23bNlz+/6Tg5GikiUWpsq8MyqdhpzMTLLz/UqOzowcX5tLE7uxfF9K3mcCwzFpe47F/TvjuGsX8QYFoWSM7+sxkZ4HOX0698++DIihLjaEC96X82LoHQbeHnw2zZldFw+Q4iCg2aAjXymaBeKT4PA+Q4fV5fdVvZm7Jixv4WZmy0eagdgbFDtBcu9y2ePuk3+GhpjTro8brdvXQOEXXeigX/K4CigtD42n5zEpv98hzS6NXF0OaXdvExVRvJPn1WPsOi0dFbbVbCDVmyve/ly/nyc0+Fyht4j0HwE9VDNOjgnVe34CPfdciPh6cJ4zXlks7t6FRkuuE6YGReP36NoiHZ8V53ioM0yzsTFp8BFzl7xF4sZhHL6T50Th6IidlM61+MdYdaqNnb05NWyyuBSXhdTGATslJKv12wEFjn0WML2tDwveOkmSVolTEf9ivvTbAUCnEz/hVtTAeUYfHAK+ZXOh3WERPQ/KEJ9iJRhqpwTN6BLxnDGfdvsXsdH/Fc6eiKbaB51g9QRWncwoxnP5UmyOVbXHVlLzyNeTc7O+oJ+rGptfVnI1vR6SrS1VFJAqUIuSQX2jlOOFAX1M7bePdZuOkw1wNhyTl48zbqwz60+4k1CkTouvCxl4AY8AVtRuRYtaGoKXnySuhORRNWtBE9N7ePrcfXo2oo7C3ycW1/4taGCyn/vFFK826Q9iMyQa21VBouAAqqLNkhNsGlMj72tkTSx7nLuw/HyeAVXz1jSzqIzNRh98Nzy1JalMUNypiYMC4o20RViuvsoYQ3Iiueh9jxH9WtLA5AAPRTQbqWZE4pP8n1Y0NYvn+NlII+9OFo/CoR3954+n53+bUN1WQVZiFuaVJOLMTQ20VHoe/h31GLdO9fGYi18v5eS++ay/8V+uHvPkl70enPj1DpnPmX9F9SiNlGNC9a4Fo8yFiC/1A87v8yZ9Zzc6N19LWBA0cnGmYeJJ3M5kGKjZuFRq/ilfHZhB/fOzGbswgMw/vUNN6JJ+fLBVQXJMLv83yDA7kt07TFjUioBZPbiUqi/jSvZlmB0xFM1c6Nsph3NDD1L8RpvI2MXiox8xOyVrlrCoXpeaVvFc2HqUYJPWdNVY0cTlY17bE8Spu3/dTmKJuWFri7WkJjfzOqc8K7N9ohL3d4PJaqBGsrbGSvCSHVU5H5v+hDaGIN9YlAOaUk8FCYWuY9ZfX/9uyrbQLe1sVqdFC2i1pXfLknOrtOaiRasBSVH40xrCN0xk1GGzfJvZJAQXKjZJAk0Mh4eNYfeNIkWYm0acGlBq0WpBafKc6/7y9EVZY6gDrRYkKe+gK6LZWAjFR4USNWq1njwwRgwVtXHZvoXJdS+xae4kLoY/RLJ/A1f3qWXYPdaTh0bXo29HyQh6MGad6ifnlgdz2nuzs5sz77l8wHD3EYwJ3MDMAWsJTCnkz5DdtOL0COWYAMK1Y4S5EPSVceYgvyZ8T7e+LdkcpqJH//rE7JtN4CPD7BgPCct2o1h90BWbQ9MY9fkZEgr50CYmkqKrTNXqFkiaNBJiAMkGhxoW6JKSSNGI2bHs+jFda1VFudWHzlvzP6EyQSVNYt+9dixrNYJDAr5E7HgYtFuhpGnfD6mfchq3U2nP5K3I2MXjUzqG2SlZM+btcd08HNWGnsxc9Tsa9rDP7QDTzu5k1pwznB/phdjtaMak9NxQVLbGSsolNzeX0FUj+cxD4l5wLuo6uUhWVliI3mhhrL5RgMF9TMqr32c+V/rYZfIo40ohm8ePdGBjTWUJsgvNljb2OqFxSpx7daXangPEF1OI6pshhOX0pk0nJ5SX874SRVWXVzvVIjfkOrdzKe0IWwQd6ZFBBEYW/6r6RjDhOb1p2dKcuEMheV8BFEWbQvJ9LVb162Kv+K3MOxrl6qusMVTUpnWHWmhCQ7mjFtRsJER8KW5Hclf3IS1frY4ioIRrYA2JoS6XnBwdWFliUSRXMWlCyzbmRK5ZzTaPW3m+TG2Je6wrw0K39Dw0up7Hj8mRrLCyVkCxV8Y9vx7j1qkguSlEeO4mwnM3GxsNZe356UwcdIShbncL5ULJ/UcEjUiOFVBafIRrxwhzIeory48Du27TY0g/uoWa8b5jEN9vu/5kB8qgei8tVwVRVH+fue7jsD88kdFTvblfJNi6pCCu3Vbg0rUD1nt+IU0Hkk0HOrRVcHdTUN4NUAJ2so4vpF+bFYXSUUXzWduZ1+IYUwdu41qSDp2k35dOwI5BqBrz1nu1ST/zNVeKrABFxi4aH30YZKcUzQq7BtSrlkPMrbgnXUf38DpXQx7Tp3YNrBSQVc7fmuvLDalKZSwlNblq0GXEEHYt7/9Nc9XorKyeufEYFNi/3o++7yjw27SHK4lPjRnUN4QwsI+Z1KP9m7XIDQ4hMv+KCH1jl8mjjDu6GUQG30Ux/hNGD07E+741tZU3OXAkAk1OILuW/ErXjfPZcqAhP7r7cicxB6W1I7W4jsfPkWjijrHth6Gsm+HGgpzvOBGmoOEn4xnRPBqPnse5r8NoB1Bd/DG2bBzEhimbWF9lCz+dCicltxJVG9Ug7bg7F6K1oEvFzzOQnBUj+XJWKnt8EtDYtqKaAoO+oihXXwbEUPVaf8aNkfC/nUutXmMZ1S6ZkwOOk6gV1GwkRHxpo35m/4mRLJ7zLV9oNuAVpaJWxz60MIF7TwwZEEPdQ+6EJqAc1p8RnyRx4WEVanEDj2ORaNS3CbueS9d+o+kXspeg2CwU1s2oZmbs1Zvx9WiiwohMt6Pz5xO4orxEisqReuZh/HQo3LAbQkrTU451Cua0nfQlHR5dwD84loc5Zji2b4GjaTbRyZnP7nyU1n8EPAnlmEh8jF07RvGl4db2HwmcMIfZKyUeH5uKZ9RTHQbVe2l6hAZkQotJU3lHOsPSHfewebkxNgVzkBFPVPRDtOowPNaep8+3X7L0lgr3y9Bi3Ew648OSnQXzKWAnPZ676YV9q6iaqkaXnUpsZBzpGgABX0J2AHN7Xqpnj5mqDramEir7l2jQLI3s1Bjuxj16eh1utba0bqjl5nfX/nxSITJ2ofgIYICd0jRrEwMJDDNjyNz5uGTuJDAWHN8YxGhnFbf/F/AXLLT05UY65lZWKNVp5BZdSKrVaE0ssTSFJwM1ac3gjfMZVB+cLcP4aFbgk2OKQX1DBIE+JtVuyRtv3ye9Um3aDRnLZ82i2N/reP6NgwJ1URZd/0DKuKOrIWztAja3WMSA/62jR3Y8odvncfxoBOk6LXHuUxicNJiRkz9i2NpB2FtIPEqK5qb7V5w6FkmaLpOAOUOY8mA24ycsY01VHck3fmNb32X84GPsC9qzCFrwGaP+mMSYEcP5ckhVKmkzSIzwY+eFPfnv0XLvh5nMcJzHxGFLcJtlhvZRGknh/pyOzDLg64Xy9CUeQ12OFc1dF9DPyZysqECOjZ6Om2fBDQYimo2FgC9tIidcR2Lx9WwGz3ejl1kmsVdj88bx5HIYQ2KoJsRtITubz6H32g24PI7n5rZ5/OIZSbomin0jJmO9dBwD1n/PZBtTNFkPSYsL4cKdF3WVk5H0ZHixbvwO7Bb1Y95Po1BkxHL9h/l4Hg4n3aBNp1L0lGedSpVQmlXh1eELGVCnCmZkkxYdjv+KKazeV/Q631L6j4gvoRwroLT4GLt2jONLG3OUnXvHsG5wOj+u+ZW0Z4JniObS9AgMR+FI87Y1ManpxAKfD595KefUF7zb+wAPdFrid01nouVspk9azOrPIeXaaVa7LOXoH1oD7IjEV8CXIMqmg1nj7Ur9giNoveXs/UTL/e+H4jzpIgW3ICkbNMRJkcSpWw+L6e0ieoylWdxOqZrVYWz/dDKqr8Yzwv0AX1hoyYgNx/+7yaxaHV7+Cyu9ueGBeeVKkHOfolcc6NQa1FhiYSXxJKHVUQScuU3PvhK+PlHPnkgY1DdEKG0dlcVd38vc6dubxYeGYKpJ594VL9b3XsmPPpmCYxeti38+UmuLhnIo/qkoavLJiTNMTvqcNwcef6GXJbxIFHU+Y0vQVJJHvM4MD/kyexnjI+eYjIyMoch94++B/KvCMhUMM5r2/ZQm2RFEJ2ShsK1Px3GjafnAi1nnyv82B5l/InKOycjIGIrcN/6uyAtdEVQtmHD5J4Y1KekZKhqiVvbFZV7wX/KD2S+U8h67wo46nZwZ3nMy1W1M0aYncsfvF5Z8tAYvkV9Gl6lYVMTakXPs+aiIc/pvpaLNhbH0VLRxgdw3/sbIly4IYU7VxnWxNy/pzhsd2YlRRMU/LldV5cO/eewyz4+cP/885DmtOFS0uTCWnoo2Lpm/M/JCV0ZGRkZGRkZG5h+J6E8ly8jIyMjIyMjIyPytkBe6MjIyMjIyMjJ/JyRLmg2cyvSRLeWbrfRQpoWu5Zsz2Rfjy7Zp/5EDLFMhkRz6si7lFlcz8/78djtj9k/SY1mLFu+9TdOqZXtiQ0WLjyGUR/8pz/hUtLmoaHpkZP6tlNrrpCq0GjQCl7dqU9ItezJ5lGGhK2FepwG1bGxxauKIifE1yQDkMAkAACAASURBVMg8N7qUkyzp2J0+//cZW/z/+od/G1uPsumnLHafTbe6ZftSpqLFR5zy6T/lGZ+KNhfG0yNh/YoL0346zPHYEC4n+fPz2dUMfcvh2QOPVIUWrt+w42YgfslX8Dz7DZ+8WqXQQ/cE7RTCrNmnuEWG4X/elXqFVwF6fQnaKXi94YcsuBrMsW/aPbsQMfk/ZoaFPTlZKPwXeGM2rQsSV0SPgZpLRJ8dUc3mTnReuIG9t4K4nBrMmcBtzBz4MpYGCFK2mMT+1PN88WbhCjahvdtFLl8aT6MyrNxKnAuRsWNN95+u4+874YlvRRNX3B/cYMMwB6M/6VwMY/Q6w2vnn0gZNkR0JP84lf43XkIdHsoj42uSkXl+NGnEhaWBohptsirA/ZayHiNRTv2nPONT0ebCWHqUTjgvGU/b+P1sGhVMorIu70yfynh3UxJfGY9nog5QUH3gcr79ujk3Vy5kih+0HjeTqQeXk9nRlaMxWkE7T1E17MOywxNorM0p8mQvAV9CdkBp34wurq6MHNeFuhYSCUXHrr7Brn79OF7o8d2S3RuM+34sNbwuEqUW1WOY5pIRsCOkuRJtF37P133vsX3acOZFStTvO4UZ321CFfc+S38t/9+T1TsXQjlWnZq1tGgbdObtxuu5FQp1unehrlZLvFN1FCT9BT+VZ4ReZ2Dt/FMxaFH/5CutjKv8fP4oRzaX9JWWCdXeHsrcIz9z4t51/FODORfhyZrxTZ9usauq02H6anaFXsEvORDPs6sY/k71p69LNnSct5kdgefwir+Of2oQJy9tYJxzLcNX5wpbWo1ZzAbfc/x2PwTv63tZPL4tNgX1rGzCqEs3Oe3W8elZk9l7LE++ydZxtQwLkpF8STatcVm2io0XTvNLdBB+aaH4xvmwbmy9p3pEYrhgK+7BlzifEob//cscOfkNgzoVOZvTp1kQIc0ivlTVeO3zVey8EYDfg1B8Y8/j4bUJ1842eWfWRpwvyeE95vr+hndSKIEPgjlzdQezB72MRSE9QuMyEnr15O+6BJwbiZNZPYacK9iBCcdrXSfj73CWY51KVk3ptWYHB38P4nLaTS7GXuTo2Vl0rJz/ukj/EdWjL8dEMVLtGMOX1UdrOJfmxbQOhUeqpOHMI1yOXU3nyuWsWRPFvl5dGDR8PUc8z3Pp6G6Wz/Ig3rI1rZrma1Q1offETnBkCbOXHOXiqaNsGPoVXlInBg5unJdnInbykaxfZfyuKVhvduXrYw+eXaCK+BKxg5IGoxYy4e0sfh42lT2/F7PY1GVy79o1Qi4H5f35R2Pv0o/WibtY8IV33qNZRfQYoLlUROwIaW7E691qkbDXjc0egUQEB/DLwpUc+6MqrTo4/QVfoQvMhcjYlY5Ud7jFxXNVeLN7XRTK2rzpbMPlUxHYvVTNsHEJ9BZ9xxTxtRYo2wxjbaAvl1JD8Lq6nRn9G2Fe8KIBtfNPxqCR6lJOsKh9AJUU9ry/cQdDin2XAofey9j2Qzc0XrvZMXkNUQmPMK3mhOWd2PxnYVvRbsk21gxVc3LRLNaFKmj06QRcD2zHtqcL//PJAMkCp9ffoFnGj8z57CypkgOvjJrGyO0rSO0wCPfboudXlWjx5TbWj8zh6ML5bAzKwK7TYKYs3MTi9B5M2nHPiM/nNp4vybE9vUZ3QbfjK1YuuktyuhqVdVWk2wbGsEMHGibvYNbEszw0rUnb4RMYf2gb9j37suZCVjlrFvFlSZvF23AbIeG1dB4bApPBsTNjtw6k3cuWSL8WPeg8H7oHoZxcPo/jMffJkmx5ecBUpq39lqyI7qzxyxUcVznqyQ1mi/P7HHxlBG7fv47fiFHsDFEDOjRp8Rj3i+/yrFMVLb/8ji97RPPDjDH43M5EYe1InXq5ROdvEgn1HyE9xsqxitVbMr3P4J/1Lh3ffZk1l67n7UApnejUvRGPvDbjn1HemkGXqy60EyZhUbMalupo7kbn/a/k8AqtGmi5ttoX66Gb2T/HnB3dp3IxQMvbr7XGRgojWaffDgAKB7q4raBL6CKGrgrBacWzWkR96bMDGiKW9eXDr3XoVC2YsFR/HCq97srkj5WcGbKBqxnielJENetBeOx6NKOJJzoqF8f/duE/la9yLV2HSb02/MfxATcD/vgLdj31z4XQ2M2rYl85i4C9V/l47Ds4HVbzlv1Z9h9uTLuudlhKkCPUFMR6i95jitBaK398JpmEuS1iR6Salz5yZdymrVim92CBZ54vodr5h2PYkl6TTsKtdFBkklzSPrppGwYv6o7VuQX077OXe09iefHJW6Qa3Rk6zImIbz5k4brbaADf3yIxaXSUEdOc2X5+P/fz36v94yrepy6SDQRct6JtyGzeeMuWPbfvPzkYKSpZYmGqzDtb0mnIycwkO9+v5OjMyPG1uTSxG8v3peR9JjAck7bnWNy/M467dhFvUBBKxvi+HhPpeZDTp3P/7MuAGOpiQ7jgfTkvht5h4O3BZ9Oc2XXxACkOApoNOvKVolkgPgkO7zN0WF1+X9WbuWvC8hZuZrZ8pBmIvUGxEyT3Lpc97j75Z2iIOe36uNG6fQ0UftGFDvolj6uA0vLQeHoek/L7HdLs0sjV5ZB29zZREcU7eV49xq7T0lFhW80GUr254u3P9ft5QoPPFXqLSP8R0EM14+SYUL3nJ9Bzz4WIrwfnOeOVxeLuXWi05DphalA0fo+uLdLxWXGOhzrDNBsbkwYfMXfJWyRuHMbhO3lOFI6O2EnpXIt/jFWn2tjZm1PDJotLcVlIbRywU0KyWr8dUODYZwHT2/qw4K2TJGmVOBXxL+ZLvx0AdDrxE25FDZxn9MEh4Fs2F9odFtHzoAzxKVaCoXZK0IwuEc8Z82m3fxEb/V/h7Iloqn3QCVZPYNXJjGI8lwN65kJk7KlV7bGV1Dzy9eTcrC/o56rG5peVXE2vh2RrSxUFpArUq2RQbynlmGJAr1P77WPdpuNkA5wNx+Tl44wb68z6E+4kFKnl4mvnn4/R964VtVvRopaG4OUniSshMVTNWtDE9B6ePnefnmmoo/D3icW1fwsamOznfjHFq036g9gMicZ2VZAoOICqaLPkBJvG1Mj7GlkTyx7nLiw/n2dA1bw1zSwqY7PRB98NT21JKhMUd2rioIB4I20RlquvMsaQnEguet9jRL+WNDA5wEMRzUaqB5H4JP+nFU3N4jl+NtLIu5PFo3BoR//54+n53yZUt1WQlZiFeSWJOHNTAy2Vnod/Rz3GrVN9PObi10s5uW8+62/8l6vHPPllrwcnfr1D5nPmX1E9SiPlmFC9a8EocyHiS/2A8/u8Sd/Zjc7N1xIWBI1cnGmYeBK3MxkGajYulZp/ylcHZlD//GzGLgwg80/vUBO6pB8fbFWQHJPL/w0yzI5k9w4TFrUiYFYPLqXqy7iSfRlmRwxFMxf6dsrh3NCDFL+JJjJ2sfjoR8xOyZolLKrXpaZVPBe2HiXYpDVdNVY0cfmY1/YEcepuRd4lLGXebW2xltTkZl7nlGdltk9U4v5uMFkN1EjW1lgJXtajKufj15/QxhDkG4tyQFPqqSAh5+lL+mvwn0vZFrqlnUHptGgBrbb0blly3pTWXLRoNSApCn9aQ/iGiYw6bJZvM5uE4ELFJkmgieHwsDHsvlGkCHPTiFMDSi1aLShNnnPdX56+KGsMdaDVgiTlHXRFNBsLofioUKJGrdaTB8aIoaI2Ltu3MLnuJTbNncTF8IdI9m/g6j61DLvHevLQ6Hr07SgZQQ/GrFP95NzyYE57b3Z2c+Y9lw8Y7j6CMYEbmDlgLYEphfwZsptWnB6hHBNAuHaMMBeCvjLOHOTXhO/p1rclm8NU9Ohfn5h9swl8ZJgd4yFh2W4Uqw+6YnNoGqM+P0NCIR/axERSdJWpWt0CSZNGQgwg2eBQwwJdUhIpGjE7ll0/pmutqii3+tB5a/4nVCaopEnsu9eOZa1GcEjAl4gdD4N2K5Q07fsh9VNO43Yq7Zm8FRm7eHxKxzA7JWvGvD2um4ej2tCTmat+R8Me9rkdYNrZncyac4bzI70QuR1Np9WgRYGySAtXmihBqzXqJRAiY1dUtsZKyiU3N5fQVSP5zEPiXnAu6jq5SFZWWIjejGGs3lKAwb1OyqvxZz5Xeu38GyjjSiGbx490YGNNZQmyC83E/7d35nFVVtsfft5zDoOACKI4YOJsekVNra6W1S+zW3Qr9SoOZc4DzkMOqTlb3bqmZM6VU+KQkZo4ZTjghIAioIBCAokgCIggMpzh9weiSHLYB4+EuJ/Pxz/qHPb67rXX2nu9+93vefUJ4UQkqnHv1pVaW3aQ9JCI1V4MIzKvB+06u6I+U3BLFE0Dnu/sQn5YODH5GFthi2EgMzqE4OiHf6q9EEpUXg9at7Ym8Zewgu394ujTSL2hx65RA5xUx8q8o1GutsrqQ1U92nZ0QRcRwRWtoGYzIWJLFRNNnOFdWj9fG1VQCWdgTfGhIZ+8PAPY2WJTLFaxaE7rdtZEL13COp/LBbYsHUnMMZSh0DUeh2bXk5NDnmKHnb0KHrosPLoe8+apIPlpXPL9kUu+P7Kq6SCWHZ/CuP67GOQVVyQWSp5/RNCJxFghxvwjnDtmGAtRW9kB7NgUw3sDe/NmhBVvO4fw3brwe7tLJuW7sVgVRFX7bT71Ho3TznGMmHSEG8WcbUgJ4XyMip5dO2K/ZT8ZBlAcOtKxvYq41SEFD0AJtJO9dx69231VJBw1tJq+ntlue5j04TrOpxgwKKXbMgi0YxKaZrz6Vj0yD33O2WIVoEjfRf1TGia1Y0SzqnpjGtbK4+rlxHuzjuFWOOfCcuhVrw52KsgWWNMMycmk6h1o+KwzKr+7OaiqTaNmVTEkJ5NuxrsKIn1XV6uKraIlXwuGrKtEni/4W8t8LQY7uwceTgYVTi/1xuN1FQGrt3A2+b5Yk+YWIUyc6ywa8uIrLuSHhhF990REabnzNFDGHd0sokPjUI3py4gByRy5YU899UV27LqELi+YTQt/p+uqOazd0YTN3qe5kpyH2t4ZF8Lx+TUaXeIe1v0wiOVTvZib9y37IlU06TuGoa3i8Xl/LzcMmG0BNSTtYe2q/qycuJoV1dby08Eo0vKrUKNpHTL2enMiXg+GdAJ8g8n7ahgzp6ezxf86Osc21FJh0u2HcrVlgg81/+zD6JEKgTH5uHQbxfAOqRzot5dkvaBmMyFiSx/7K9v3DWPBrG/4RLcSv1gNLp164WYB1+41ZIIPDbe4EnEd9eA+DO2bwolb1XDhAj57otFpY4gMz6dr7xH0DttKSEI2KvuW1LIyd/Vmfj262EiiM6vT5eOxnFWfIk3jTEPrSH76Jcq03RBjesoxT8Ga9uNn0vHOCQJDE7iVZ4Xzi244W+YSn3r7wV0NY/OPgCWhGBPxj7lzxyy2dFxev5ngsbOYsVghZ88kfGPv6zAp343pEeqQBW7jJ/G6cohFG67h8GwzHArHICuJ2Phb6LWR+Cw7Tq9vZrLosgbvM+A2ehpd8GfhxsLxFGgnM4m4zKK2NdRI12LITSchOpFMHYCALaF2AGsnnmnohJWmPo6WChqnZ2jcMoPc9KvEJd65fw63VnvaNtFz8dvzf72oEOm7kH8EMKEdY5r1ycEER1ox8NM59Ly9keAEcH65PyPcNcT8L0i4iDKkHuOgXzaffvwZI68v52isQr1/j2Lg89mcGu1PhinXE6WNRal9V7C1s0OtzSC/uF2tFr2FLbaWcM8ZFm0ZsGoO/RuBu20k3acH31t3TJpbhBxV+lyn1GvNy6/dILNKPToMHMVHLWPZ3m3v3YcLBXKnLLqeMMq4o6sjctlc1rjNp9//lvNebhIR62ezd/clMg16Er0nMiBlAMMmdGfwsv442SjcSYnnovdnHNwTTYbhNkGzBjLx5gzGjP2CpTUMpF44xjqPL/jB39wH2rMJmfsRw/8cz8ihQ5g5sAZV9FkkXwpg44ktd7+j59oP05jqPJtxgxfiNd0K/Z0MUqIC+S0624RbB+VpS9yHhjw7WnnOpberNdmxwewZMQUv38IHDEQ0mwsBW/pk9nkOw+bzGQyY40U3q9sknEso6Me94zCm+FBLmNc8NraaRY9lK+mZk8TFdbPZ7xtNpi6WbUMnYL9oNP1WfMcEB0t02bfISAzjxJXHdYLJTHqy/Fg+ZgPV5/dm9k/DUWUlEP7DHHx3RpFp0qaTET3lmadKFdRW1Xh+yDz61a+GFblkxEcR+NVElmwrfs7XyPwjYksoxgox5h9z5455bOmv7mbj1pEsH5DJ5qW/FysaTNFsTI9Ad1TOtGpfF4u6rsz1f/eBj/IOfsK/euzgpkFP0qYpjLOdwZTxC1jyMaSd/40lPRex+0+9Ce2I+FfAliDqFgNYesSTRoUraMMv2dpXz43vBuE+/iSFjxepGzfBVZXCwcu3HjK3i+gxl2bxdoxq1kay/oMJaD4bw1DvHXxioycrIYrAbyfw9ZIo8aJJn8SvniOp+tlkPJZ8zyB7A1nxF/CfNZIl3tdNKr5KH4vS+q7CpmoVyLtB8RMHBq0OLbbY2CncC3ptLEGHYnjfQ+G0f+yDFxsmzS0iGKu1sok7fYYrHj1Y8MtALHWZXDvrx4oei9nsf3e9MFvuPNkobW2aPAXdfEpR1aXvvkNMSPmYVz7c+1iPJTxOVPU/Ym3IJFKHvsRUn6fpCL2kvJAxJpFIHgdybvn7eXp+MVjyhGBFC48PaJ57ifjr2agcG9Fp9Aha3/Rj+tHyf+uOpDIiY0wikTwO5NxSEZGFrggaN8ae+YnBzUt6P4qO2MUe9Jwd+jf8YPZjprz7rqpO/c7uDHl/ArUdLNFnJnMlYD8Luy/FT+SX0SUVi4qYOzLGHo2KOKZPKxVtLMylp6L1SxQ5t1RI5NEFIayp0awBTtYlPXljIDc5ltiknHJVVT48zX2XPDoyfiofckwrDhVtLMylp6L1S/IkIwtdiUQikUgkEkmlRPRnkCUSiUQikUgkkicKWehKJBKJRCKRPEkotrT8cBJThrWWD1uVQpkKXdtXprHt6mnWTf6HdLCkQqLU9GB52mXO3S74F/CjO1aVSY+tC25vvUaLGmV7Y0NF848plMf8U57+qWhjUdH0SCRPK0bnOqUabfoPpeer9SjpkT1JAWUodBWs6zfGxcER1+bOWJhfk0TyyBjSDrCw0zv0euEj1gb+/S/2NrcedYsPWOA9gzcblO2mTEXzjzjlM/+Up38q2liYT4+C/XM9mfzTTvYmhHEmJZBfDy9h0Ks1H1x4lGq4ef6XDReDCUg9i+/h/9L3+WpFXron2E4RrFp+gFd0JIHHPWlYtAoo1ZZgO4WfN3mXuedC2fPfDg8WIhYvMC0y8t7FQtF/wRdm0LYwcEX0mKi5REprR1SztStd5q1k6+UQzqSHcih4HdM+fBZbYUE2dFkXRND5abgVq95UzUeyOf0sX3S3NbV3JY+FSN+x552fwgk8PZam6kItnnjfvMDKwTXN/qZzMcwx15meO5WRMmyIGEjdPIk+F55BGxXBHfNrkkgeHV0GiZEZoKpFu+wK8Lyl1GMmymn+KU//VLSxMJcetSvuC8fQPmk7q4eHkqxuwOtTJjHG25Lk58bgm2wAVNT+8Eu++bwVFxfPY2IAtB09jUk/f8ntTp7svqoXbOc+mia9+GLnWJrp84q92UvAllA7oHZqyRuengwb/QYNbBSuF++79gKbevdmb5HXdyvVX2b0d6Oo43eSWK2oHtM0l4xAO0Kaq9B+3nd87nGN9ZOHMDtaoZHHRKZ+uxpN4tss+l3kt2LvcM7vHPnd2uLmoiIsrrAPCtVeaE8jXQg/nxT/zdlSx0IoxmpT10WPvnEXXmu2gssRUP+dN2ig15PkWhsVKX/Dz5iZYa4zMXcqKyYV9fduaWWd49fju9m1pqRbWhbUem0Qn+76lX3XwglMD+XoJV+Wjmlxf4tdU5uOU5awKeIsAanB+B7+miGv177/ueJAp9lr2BB8FL+kcALTQzhwaiWj3V1Mr85VjrQZuYCVp49y7EYYR8K3smBMexwK81ndnOGnLvKbV6f7V01Wb/Fl6kW+H+1impPMZEtxaEvPL75m1Ynf2B8fQkBGBKcT/Vk+quF9PSI+nPs93qGnOJ4WSeCNM+w68F/6dy52NVeaZkGENIvY0tTinx9/zcYLQQTcjOB0wnF8/Fbj2cWh4MrajOOl1HyLT08f40hKBME3Qzl0bgMz+j+LTRE9Qv0yE6XqubvrEnR0GK5WDRl4tHAHJgq/5Z3Nv8NZjnmq2LWg29IN/PxHCGcyLnIy4SS7D0+nU9W7n4vMP6J6SosxUcyUO+awZdd9KUcz/JjcsWhP1TSZtoszCUvoUrWcNeti2dbtDfoPWcEu3+Oc2v0jX073Icm2LW1a3NWoaU6PcZ1h10JmLNzNyYO7WTnoM/yUznw4oFlBnIm0cxfF/nnGbJqI/RpPPt9z88ECVcSWSDuoaTx8HmNfy+bXwZPY8sdDik3Dba6dP0/YmZCCf4HxOPXsTdvkTcz95EjBa1dF9Jig2Sgi7QhpbspLb7pwfasXa3yCuRQaxP55i9nzZw3adHQV1GPg5pFjhOtb8kIn+yL5ZsNzrz+H6uwxAlJECzCBsRDpu9qZ2jUvc/JoNV55pwEqdT1ecXfgzMFLVH+mlmlHAwTmltLWFPFaC9TtBrMs+DSn0sPwO7eeqX2aYl34oQm5U5kxqaeGtH3MfzGIKion3l61gYEP/ZaKmj2+YN0Pb6Lz+5ENE5YSe/0OlrVcsb2ScPcd1nZ0WLiOpYO0HJg/neURKpp+MBbPHetxfL8n//PPAsUG15depmXWZmZ9dJh0pSbPDZ/MsPVfkd6xP94xotdXVXCbuY4Vw/LYPW8Oq0KyqN55ABPnrWZB5nuM33DNpPdql5ctxflFuo14A8OGz1g8P47UTC0a+xooMSb6sGNHmqRuYPq4w9yyrEv7IWMZ88s6nN73YOmJ7HLWLGLLlnYL1uE1VMFv0WxWBqeCcxdGff8hHZ61Rfm9+KLzaBhuRnDgy9nsvXqDbMWRZ/tNYvKyb8i+9A5LA/IF+1WOevJDWev+Nj8/NxSv714iYOhwNoZpAQO6jCTMe+O7PPNUQ+uZ3zLzvXh+mDoS/5jbqOydqd8wn/i7mztC84+QHnPFWMWaW24fOURg9r/o9K9nWXoqvGAHSu1K53eacsdvDYFZ5a0ZDPnaIjthCjZ1a2GrjScuvuD/KjWfo01jPeeXnMZ+0Bq2z7JmwzuTOBmk57V/tsVBiSTVUHo7AKhq8obXV7wRMZ9BX4fh+tWDWkRtldYO6Lj0hQfvfm7AoHFj7KLS/VDlJU8m/EfNoYErOZclridNVHMpCPe9FM3okoiPzcf5/97gH1XPcT7TgEXDdvzD+SYXg/4U3vXUJxzlWMh0hnR9gSpbDpINYP0cnV6pwqXlR0kUDsLSx0Ko79Y1cKqaTdDWc/xn1Ou47tTyqtNhtu9sRoeu1bFVIE9oUhCbW0pdU4Rqrbv9s7hNpNd8NkRreaa7J6NXf49t5nvM9S2wJZQ7lRzTSnpdJtcvZ4LqNqkl7aNbtmPA/HewOzqXPr22cu2eL0/e+4pS5x0GDXbl0n/fZd7yGHTA6WPRWDTdzdDJ7qw/vp0bd7+r//McRw6eJBcICrejfdgMXn7VkS0xN+4tRqoqtthYqguulgw68m7fJveuXcXZnWFj6nFq3Jt8uS2t4G+Co7Bof5QFfbrgvGkTSSY5oWTMbyuHaN+f+e23/L/aMsGHhoQwThw5U+DDI5FwxIePJruz6eQO0moKaDZp5TOiWcA/12u+zaDBDfjj6x58ujSyoHCzcqS77kOcTPKdIPlxnPGJu/efEWHWdOjlRdsX66AKiC+y6Jfcr0KMxaH59OSQ9scVMqpnkG/IIyMuhthLDzfyqHrMnafG0eBYywHSj3D2SCDhNwqEhh4t8hWR+UdAD7XME2NC+X43gB55LERs3TzOIb9sFrzzBk0XhhOpBVWzt+jqlon/V0e5ZTBNs7mxaNydTxe+SvKqwey8UmBE5exMdSWT80k52HWuR3Una+o4ZHMqMRulXU2qqyFVW3o7oMK511ymtPdn7qsHSNGrcS1mX8xW6e0AYDCIX3Cr6uA+tRc1g75hTZHdYRE9N8vgn4dKMLWdEjRjSMZ36hw6bJ/PqsDnOLwvnlr/7gxLxvL1gayHWC4BfQLH9kQwZnRnWlsf5HQOaJ57hRcdL7NrX7xpF1uljIVI39NrOOGoaLlz2pej0z+ht6cWh/2LOZfZEMXRkWoqSBfIV8WkucXImmLCXKcN2Mby1XvJBTgchcWzexk9yp0V+7y5XsyRD8+dyo/Z965V9drg5qIj9MsDJJYQGJqWbjS3vIavf9z9Kw1tLIH+CXj2caOxxXZuPCR59Sl/kpCl0Kx6NRQKF1AN7RbuY/XIOgW3kXUJbHF/gy+PFzSgadWWljZVcVjlz+mV99tSNBaortSlpgqSzLRFWK62yuhD8qI5eeQaQ3u3prHFDm6JaDZTPoj4J/UfbWhhlcTew9Fm3p18OKqaHegzZwzv/19zajuqyE7OxrqKQqK1pYktGY/DJ1GPefO0NHI4+fkiDmybw4oL/8e5Pb7s3+rDvt+vcPsR46+4HrWZYkwo3/VglrEQsaW9yfFtR8jc+CZdWi0jMgSa9nSnSfIBvA5lmajZvFRp9QGf7ZhKo+MzGDUviNt/+YaWiIW9+ff3KlKv5vNCf9PaUaq/ztj5bQia/h6n0kuLuJJtmdaOGKqWPfHonMfRQT/z8E00kb6L+ad0xNopWbOCTe0G1LVL4sT3uwm1aEtXnR3Ne/6Hf24J4WCc6NWbjj/3HCBq1ge8+rwlp/11POv+Gs6RuzhSwoX7o2Nk3B0dsVe05N8O56BvVdaPU+P9r1CyG2tR7O2xEzzWoynn9esvr8dvhAAACmBJREFU6K8ScjoBdb8WNNTA9bz7H5Weg5WXshW6xq6gDHr0gF5vfLYsOW6MTS569DpQVEX/WkfUynEM32l1t81crocWSRRFAd1Vdg4eyY8XiiVQfgaJWkCtR68HtcUj1v3laYuy+tAAej0oSsGiK6LZXAj5R4MaLVptKXFgDh+q6tFz/VomNDjF6k/HczLqForTy3h6TyrD7nEpcWh2PaXtKJlBD+bM09LJu+zDrBePsPFNd97q+W+GeA9lZPBKpvVbRnBaEXum7KY9TI9QjAkgnDtmGAtBW1mHfub369/xpkdr1kRqeK9PI65um0HwHdPaMR8Kth2Gs+RnTxx+mczwjw9xvYgNfXIyaYaq1Khtg6LL4PpVQHGgZh0bDCkppOnE2rHt+h+6utRA/b0/Xb6/+xcaCzTKeLZd68AXbYbyi4AtkXZ8TNqtUNPC410apf2G18GMB+JWpO/i/jGOae2UrBnrF/FcMwTNyveZ9vUf6NjCNq8dTD68kemzDnF8mB+ij5Hp/zjE4fDx9HBvxeJTubz6dl1ith/gDzPXuSJ9V1W1x07JJz8/n4ivh/GRj8K10Hy09fNR7OywEX0Yw1xzSyEmz3VKQY4/8HfGc+dpoIyVQi45dwzgYE9VBXKLjIQ+IZyIRDXu3bpSa8sOkh4StNqLYUTm9aBdZ1fUZwpuiaJpwPOdXcgPCycmH2MrbDEMZEaHEBz98E+1F0KJyutB69bWJP4SVrC9Xxx9Gqk39Ng1aoCT6liZdzTK1VZZfaiqR9uOLugiIriiFdRsJkRsqWKiiTO8S+vna6MKKuEMrCk+NOSTl2cAO1tsisUqFs1p3c6a6KVLWOdzucCWpSOJOYYyFLrG49DsenJyyFPssLNXwUNPxj26HvPmqSD5aVzy/ZFLvj+yqukglh2fwrj+uxjkFVckFkqef0TQicRYIcb8I5w7ZhgLUVvZAezYFMN7A3vzZoQVbzuH8N268Hu7Syblu7FYFURV+20+9R6N085xjJh0hBvFnG1ICeF8jIqeXTtiv2U/GQZQHDrSsb2KuNUhBQ9ACbSTvXcevdt9VSQcNbSavp7ZbnuY9OE6zqcYMCil2zIItGMSmma8+lY9Mg99ztliFaBI30X9UxomtWNEs6p6YxrWyuPq5cR7s47hVjjnwnLoVa8OdirIFl3TdPH87nOREUPepLVPDq+5RuL7yxXzP/cg0Hd1tarYKlrytWDIukrk+YK/tczXYrCze+DhZFDh9FJvPF5XEbB6C2eT7ys2aW4RwsS5zqIhL77iQn5oGNF3T0SUljtPA2Xc0c0iOjQO1Zi+jBiQzJEb9tRTX2THrkvo8oLZtPB3uq6aw9odTdjsfZoryXmo7Z1xIRyfX6PRJe5h3Q+DWD7Vi7l537IvUkWTvmMY2ioen/f3csOA2RZQQ9Ie1q7qz8qJq1lRbS0/HYwiLb8KNZrWIWOvNyfi9WBIJ8A3mLyvhjFzejpb/K+jc2xDLRUm3X4oV1sm+FDzzz6MHqkQGJOPS7dRDO+QyoF+e0nWC2o2EyK29LG/sn3fMBbM+oZPdCvxi9Xg0qkXbhZw7V5DJvjQcIsrEddRD+7D0L4pnLhVDRcu4LMnGp02hsjwfLr2HkHvsK2EJGSjsm9JLStzV2/m16OLjSQ6szpdPh7LWfUp0jTONLSO5Kdfokz7GRxjesoxT8Ga9uNn0vHOCQJDE7iVZ4Xzi244W+YSn3r7wV0NY/OPgCWhGBPxj7lzxyy2dFxev5ngsbOYsVghZ88kfGPv6zAp343pEeqQBW7jJ/G6cohFG67h8GwzHArHICuJ2Phb6LWR+Cw7Tq9vZrLosgbvM+A2ehpd8GfhxsLxFGgnM4m4zKK2NdRI12LITSchOpFMHYCALaF2AGsnnmnohJWmPo6WChqnZ2jcMoPc9KvEJd65fw63VnvaNtFz8dvzf72oEOm7kH8EMKEdY5r1ycEER1ox8NM59Ly9keAEcH65PyPcNcT8L8jEIkrH1Z17uDBrKKMX5FI3aCMHhB9eLUJpY1Fq3xVs7exQazPIL15IarXoLWyxtYR7zrBoy4BVc+jfCNxtI+k+PfjeumPS3CKCwFyn1GvNy6/dILNKPToMHMVHLWPZ3m3v3YcLBXKnLLqeMMq4o6sjctlc1rjNp9//lvNebhIR62ezd/clMg16Er0nMiBlAMMmdGfwsv442SjcSYnnovdnHNwTTYbhNkGzBjLx5gzGjP2CpTUMpF44xjqPL/jB34QD7UJkEzL3I4b/OZ6RQ4cwc2ANquizSL4UwMYTW+5+R8+1H6Yx1Xk24wYvxGu6Ffo7GaREBfJbdLYJtw7K05a4Dw15drTynEtvV2uyY4PZM2IKXr6FDxiIaDYXArb0yezzHIbN5zMYMMeLbla3STiXUNCPe8dhTPGhljCveWxsNYsey1bSMyeJi+tms983mkxdLNuGTsB+0Wj6rfiOCQ6W6LJvkZEYxokrj+sEk5n0ZPmxfMwGqs/vzeyfhqPKSiD8hzn47owi06RNJyN6yjNPlSqorarx/JB59KtfDStyyYiPIvCriSzZVvycr5H5R8SWUIwVYsw/5s4d89jSX93Nxq0jWT4gk81LfyfjAeeZotmYHoHuqJxp1b4uFnVdmev/7gMf5R38hH/12MFNg56kTVMYZzuDKeMXsORjSDv/G0t6LmL3n3oT2hHxr4AtQdQtBrD0iCeNClfQhl+yta+eG98Nwn38SQofL1I3boKrKoWDl289ZG4X0WMuzeLtGNWsjWT9BxPQfDaGod47+MRGT1ZCFIHfTuDrJVEmF036Pw+yL+BjZrxm4OTo/WW6w1n6WJTWdxU2VatA3g2KnzgwaHVoscXGTuFe0GtjCToUw/seCqf9Yx+82DBpbhHBWK2VTdzpM1zx6MGCXwZiqcvk2lk/VvRYzGb/u+uF2XLnyUZpa9PkKejmU4qqLn33HWJCyse88uHex3os4XGiqv8Ra0MmkTr0Jab6PE1H6CXlhYwxiUTyOJBzy9/P0/OLwZInBCtaeHxA89xLxF/PRuXYiE6jR9D6ph/Tj4q/LUciKRkZYxKJ5HEg55aKiCx0RdC4MfbMTwxuXtL7UXTELvag5+zQv+E1gY+Z8u67qjr1O7sz5P0J1HawRJ+ZzJWA/SzsvhQ/kV9Gl1QsKmLuyBh7NCrimD6tVLSxMJeeitYvUeTcUiGRRxeEsKZGswY4WZf05I2B3ORYYpNyylVV+fA0913y6Mj4qXzIMa04VLSxMJeeitYvyZOMLHQlEolEIpFIJJUS0Z9BlkgkEolEIpFInihkoSuRSCQSiUQiqZTIQlcikUgkEolEUimRha5EIpFIJBKJpFIiC12JRCKRSCQSSaVEFroSiUQikUgkkkqJLHQlEolEIpFIJJUSWehKJBKJRCKRSColstCVSCQSiUQikVRKZKErkUgkEolEIqmUyEJXIpFIJBKJRFIpkYWuRCKRSCQSiaRSIgtdiUQikUgkEkmlRBa6EolEIpFIJJJKiSx0JRKJRCKRSCSVElnoSiQSiUQikUgqJf8P4z9TKMDJILUAAAAASUVORK5CYII=;" vertex="1" parent="1">
          <mxGeometry x="180.96" y="230" width="478.08" height="150" as="geometry" />
        </mxCell>
        <mxCell id="Wb3i4IcPdHxYaFaxHeRX-5" value="PATH: python/outdir" style="shape=image;verticalLabelPosition=bottom;labelBackgroundColor=default;verticalAlign=top;aspect=fixed;imageAspect=0;image=data:image/png,iVBORw0KGgoAAAANSUhEUgAAAO0AAACdCAYAAABYb/9OAAAABHNCSVQICAgIfAhkiAAAABl0RVh0U29mdHdhcmUAZ25vbWUtc2NyZWVuc2hvdO8Dvz4AAAAwdEVYdENyZWF0aW9uIFRpbWUAb24uIDE3LiBhcHJpbCAyMDI0IGtsLiAwOS4zMSArMDIwMG3ejvwAAByjSURBVHic7Zx5XFRl+7ivGQbZ3EBFxQ1zKRUtKsvISm19X7+5i5FgmuKWprlRaWpq9KqZSmpu2S+XTF+TbFEj8VVb3PcVSBGQ2ATJBVGYmd8fAzijA+fMQLLd1+fDH8DM/dzP85z7mXOeM+fSdKja2oggVCK0jQNZfORtMoI7Mzn8RmmnYzO60k5AEP5ZnHjI/zWaZ8dwKSULrfsDdBg5GJ/MXUzdk1XaydmFFK0t6NowYt96BjzoUMgL9MR/+jqvTzuF/r4mJhSK1p2GHV9hYLfR1K1ZBcO1NOL2RzC79yJ2pZfPk0yNnB7bgjO1WzbB3VlTyP+N3E6NIy45+75mJVQupGgFoZyhLe0EBEGwDSlaQSgpNG606j+GsUPa/qObRUUUrZbanYcza9fPbEs+wv8SdvJ1xGx6tClsE6YC4eqFz8vP8lDtwq5dhcqK67MTWB3/K8vGtb63MDXVaRs0iJ7PNeCfrJJCi1bj8QrvfDWStpfDmffam7wdMIVlX+7izxTDP5hO2cCh1Wt8sC6E55vYeyKioZpvL8Zs/C/hCYfZk/I7m3bOZcBztS0HXFOdNsM/YsXpfexO28fmnaH4P14Dja1xzHBqHcAn0Sf4dc9QvM2PHMW2VMbJ/3+zrkw+fIhv//PovQevQwsG/XacvddOm/0cYXY/Nzvy0eDS7Fn6zVnA0kM7iUhYTs/6pbWYanBp9AANatakccs6ONoZw9Y5vZtCP8W13i15wDWJyLkr2bE/1670Ki0OjXllxgh8k7/li2HzSXNoQqcJYxi2tgqpj41le6oR0FK3/8d8EtqaqE9nEXIA2o4Yz+hNodzoOJqfLhlUxrmDrllvZmweSXPDbSz/o6ItVXHAoVYrugwfysCRXWjiqiHVWv+1rrhV03Nm7jBCN6XnxTBw49JNG/NxwjtwJrNntiHx2818P2098YkpJGaU1t6pkfSvJzHgTENyo85xU/kN92LjnFrj3qJ1bM+441/Qt5FpefXecZwAAHI4NflVhoUlYADQ1eXJsRMYOugZmntC+sk9bJk1j7U7UwruUWpqPkz3kP506ehDk0a1ca/hhCErnWOzBjPu81hTHK07bYPHMOSNjrRu7o4h5Sy/L51H2JKjZBbk74hnpwDeHNOTDu2bUMvFyM20BI5/9i7vLj6HHtDUeYmQLSF0blabqo45ZMYeZ9f8OSxaF8XNvDiaqg/xfzMnEvBqWxrWqkLu9UzSY35iXve57Lt2b98Dd50gEAADmV8Np9uo38lRMzH6ODb1+hebc3LzxuIPjqQ34ckfX6ZtKx3bU3NA15Juo5+G70OY9tHP/G2E/Yf0NDn6Ma8NaMH20Cj0auLkj3X1xxm+ejTVV4xmrtc8Pm5vPssq2lITBwceCP6A4Z1i2Tx4ErU/ms1z1vqvqUb16gZSTh/n/Bkrh7bKfJzaj2TmNHc2d+3NhjPFuI2mq8sTY8YTPOgZWnq5YryRTlL0WXaGTmZlZCZGlI9VY50+zD/7IU86mULe/m48LwVt55aV5hwefYN5ByfT5gFXsi8eIWLubD7/5k+yQd2xodSde/6Sc5Ivu3bnO9+BfLLiKQ4Gv8XXp0yftNmpSaZCoyqPzlzBnEF6dsyYwrJzWpoFjCR440rcewaw4NfrAGg829NtaBeMq+ewcFYcGVf16KrXQnMhMS+OM23eX87CIbf5acYMVh6/jnvHIEZPX8wH13ozcXUSBrTU7jmLZV+8gH7n16wbF0ZcSjaOno1xi82PA8bMc+yY+yE/X0rnpqYmLV8fw5iwT7kZ3YNFB3IAHT7vL2DSqwmsDhnF7xduoK3uSSPvHBKylPuu/zsZW843jAWTAqDB1asubrkJxMeZ/qqp8wjtmhk4tfAA1QYuYc1kZ9a9OpF9hww8+2Q7amqiSDcqxwFAW4fO8z+m89lQhs0/ReM5lrmobUspDuiJmd2fPv8xYtS1YcSsQjrv7IG7202ydHWoVT2JjKs5Fp/YqvKhOs+M9qfJ7QSe/2org7xcyEk8xe5Fn/L5mrPcUP1h68YjHy5n7hANu0M/ZOWRdKjThaErA3j0QTc0+UWrdKxm/Exoh8O4ONTipc9X5i3m1tHosoha8RHrzufSoMdQhn2+DLervfloq6ktVXNaBFZOj7O5EhvLVY+/yTHmcDXuAnHRlsE09V9hwJuN+XN2L0KXXEAPHNhzHscW3zLwnVdY+9smLhvvxLuwNZydv9y7gmg8/8Wgtxqwf+z/8emGDNPEHo7B8bFfmPZaZ+qs/ZoU3SMEzvgXVXfPYkC/jSQVpLLXMlhOPIfC4wt+PXfKmUf7zKPdk/XQHkjAgA53z5pwZQ/Hdh/izGUDcJpTu23ruz04PtCdkJnPkLpsKD9cNC0zWs86eGiucyI5m6odG+Bey5l6NW6yPzkLfOvg7gDpucpxQEudvpN55/Hf+ajTL1w2OND4rvbVtaUcBwCj8Z5T5rvR1nLBcCmbRz8J5/sVDlyL2suPof9heXgct9Xmo/XhsaddSTu4g/8u3cvFdAcavPoWExd+jtuVHsz4IVMxDwBN3ZcJGtyEi/P9mbEw2rTwOrnTTR+Axz2vLvxYRX+N1D+vgTaLDIVvP+Ye+C/Ll+d9Cv8vGseHtjBsxCss3/4NqXdtCVmf06Kxa2da17otLRyT2PZr/J0VIzeOI7/9RXC/NjR13MTl2yri+DzMQ67VqLkkkt2Lzf/hiPZifWprIa1BO9p46Tk55xeSi6gfbZ3H6Dt1OF07P0i9mhqy0rJwctGQ4lwl7xXZ7J39Mb+sn8KCk89x/Mdt/LJxCxGRsdz4B/fWXHwCmL5xHE1/m8rYGUe4d75zOfdRIL1Xacm4lMPjQbbF0Xh0YsT0dhx5rw/7rygdxoW3ZVucojHEbiDk0Q2AFpcGPnQaN4VxK5fhdKU383aZf0G/iHzcPKlTw0DC9k3s2GVa0GPOhNL4pXDe8H8K1x+2oear/ro27XiwSgoR/7tg05lSiWFI5MS+v3AIeBBvHaSa1YXysWEdu28nFb5/Z8OEazRo9In8MHgU35yxrEjj7b9JyQWMBgyAwVBEZWkb0nPVEt5qup8vPhjPvui/0dZ6miFrx1DL7GU5MVuY8dSvrH/xZV7s3ZU31g5iyJHlTOm/hKMlvrmhwe2xwczeNJSa34UwauJOUs2OGkNqGhnGqtSu54JGf5XUS4CmJrXruULaZa7o1cVxe7EnXRrUxmFlJJ1X5v1R54hOM4rVlx5jnu9wvlfRlpo4W5JtHSMDNxNPsO3dj2nx4v/jpZ7tCNu1l1wV+RhzctAbtXh41EBD3lmYPoXkJAOOtT2oqkXdYuvggAM55OaW0PyqONOwRINGo7nrfUXPqRJ23dPIPXOS6Jz6+D7T+M79KF0THu3oRc7JM8Sq2q2B3NMnic6ph087J5KjY4kz+4m/mMEtwPDXGc4lO9C2x/N4Fnbzy7EFPo86c2F1GGvCDxJ1Opqz+86QnG1leHMyiNm6niWDA/HvOI8LvsGMDGpkORC3srmlcaNqDfu/e6Kt9zIh64bjsWUiY8ffOynGtOOcOK/F54UOVMtbATU1n+TJx7TE7T9esAmnFCdr6ywGPN6dQL9eBPn1IsjPn483pZN7bh3vdppGZJpRVVtq4tg/GBo0Zqu8qr5nx3I+Frz9fHHPf69jUx5o7sCNiwlkWhSsFg+/fgRPCeART8s50/95ngSjFz7t65XQN4myyc42oqlRvSD3InH05vFnvMg5cZoLeXWhNKdK2PVJa0zaxupVbzB/0jwm3/6ciCgtzfqNYKBPAt/33G52PasQJ3krXy59nYVjF7Ogxio2R8RwJdeZWs3rcXXbBvbGG+D2EdZ/9D+6LJnM4o3N2LD+ABfTbuNQrQ5enGbLj+fR514g6nQuXfyH0OfkRk78dRNN9VbUdTIfVWd8x4TwZNZeDp9I5GqOE3We8MHT8RYJl29YrJ76i1FcuOZBp3EjOeqwjysOnng7R7H5u2iVT+840mb0GDppdjJn9V9Uf6gF1fP7fD2ZuPhrGHKj+H7RH/Ra+C7TY3RsOAg+IybQid+ZvSYmrx0Vca6lEH/NvG0dtTJz4dYV/vozmet6ABVtqYoDOHvQsGktqugaU9NJg86jEU1bX+XWlUQSkm5ipAptBg7j4dun+DPhOoaqDXg4cAg9GiTxY/gJ0+67mr7nnmPbl0fpFzqK995J54sdf9PwtUn09o5l88gDlru2ju3ov3QyrzeFl93O8dp7RwtOhQ1xW/l2+2CmTv6UCfpl7I7TUf+p3rRxhCRVc3kXxhucPxGP5i1/Bg9IZc/l6ng5nOW772Pu7MA3bMtTndK57twA34HD6N86jm97bjdt9qmZU4UU7Dw9vsGRD4YwKTOE4aNmMae2kYzTv7H2tbl8lbdzrI4sTnw4mNEJbzF48EAmvVEbF8N10qIP8vUfG/NeYyD564kMTQvizbe7MSDsdTxcNWSnJXB2/Wx2/HSeq/o4vh0ynmofDcd/8VJG1axCbtY1riadZm9s3pWPxgWHKjV47M0P8G9UAyducTUhmsOfTOSzjemWpzzXd7Fs9FrcP+zDexsGo73+F2e+nMG2LdFcV7MgaT1p/Xh9HL0aM3l3V4t/5UR8QLc+m8k0GkhZ+x4T3EIY+/Y05o6HjBORLOo7m58SDDbEUTPOKtpSiUOrIObsHErT/CPHO5TVAQYufzGUXmP3kqNxw61+Czr792Vw45o45mSSdHwfa/qHsbbgelZNPgYSlo1nolMII4Nns2yyI9fP72fzwImsOHjX7Z/ceI7suMCrfTUc+DXOcmE1pBIxcjiuoSH0nzqPV51u8NexvwAwGuzZZNQTvWgWq9pOxX/uQrreSubcVzP4+YcYrhtvEr/vIBf7dmfqt0FU0V8j6ehuVvRZwDe/5fW9BOZUnvIRKh1irhCEMo2YKyo3Yq4of4i5orIj5gqh9JGiFYRyhjwELwjlDClaQSgpxFxRioi5QigEMVeUUcRccR/MFYpxim94KHnEXFFxEXOFgrlCRZwSMDyUPGKuEHNFZTVXqIlTAoaHO/0XcwVirlBGzBWFmyvUximu4cGEmCtMzYi5wibEXGFprlAbR7nvyoi5Iv9NYq5QjZgrijJXqMNewwOIucICMVcodk7MFYWYK9RfjRbP8ABUSHOFXUVrMld0N5krDppOj+03V3Q3mSu+O231op48c8UrPZ7H85vNpFj7tM03VywMY034n6ZrkCruJGcbLYoWKDBXxGxdz8oWA5j36zhGBv3AsIXxdx4+tjBX2Hd6fMdOMJ63x+/m8l1rTr69odcLHai2PoKrRjN7w3Jr5grrcUzGiU/NFlEdrSet5L22W3l3wFecSDNi1Ci3ZVQRx27uMleofptC381eiYdfX3p30XJw+QaOmZ2DmswVXU3misOJig+YK2NprrilNCxFmiuU+mUdMVeIueL+mytUxbHB8CDmCjWIuaJIxFyhYK5QEceWvou5QhAqNmKuEIQyjZgrKjdirih/iLmisiPmCqH0kaIVhHKGPAQvCOUMKVpBKCnEXFGKiLlCKAQxV5RRxFxRFswVgHNjOk3/jNVRB9iTfoifDq5gfP+WuJbaWirmioqLmCuKb67AGd/pS5nRN4m1E4Yx87wW776jGffZEnTJ3ZgdWRr3WMVcIeYKMVcUHkfXnA4vepG64X1WhR8jF4g5u4BW3b/kiQ6NcYg8p/5euJgrQMwVyoi5opjmCn0qly7m4NmpC62qHefkNSOOTX1p5ZnJ2UOXbPjyipgrTM2IucImxFxhh7nCmMr2kJn4bphK2H5f9mxPwLPr0zB/LGER6h9KqYjmCrt2WvLNFUetmCsc27ahqcor9HxzxTNLItl9+Sh7Lh9lz+U9TOtWFa2XyVyhzTdXbFY2V/T7bAWrT+0h4tKvfPf7JJ500VDlbnOFpicLTm5jyYqx9HyxKW7/8E0vF58AZv04mea/TSWkKHNFW38W7yv81KiwOAXGiWlh6s0VVtqyLU7RmMwVL/Jqo/a80GoAC/fUovvKZYzudO9GVOFocKnfBK+qyez96kdOZRhBX5WWvXvyRCP1e7P55orDpW2uaGUyV5ijfGxYR8wVYq4om+YK5/YELx2IbmkfPpgfi54NbAoLZ0zkF0yYvJM/hu1StxEk5goTYq5QRswV5oNhu7lC69EM77o5JMYkFcyA8eopjp3KplfD+lTVws2CsRBzhSJirlBCzBXFNVcYUo9w9FwVAqdMoWfWOo4mQp2nX2fwv3Wc/+Qw6eYHupgr1CDmiiIRc0XxzRW5UawJnIAudAQD165ngquBG4kxHF40gbAF0ZYHtpgrBKFiI+YKQSjTiLmiciPmivKHmCsqO2KuEEofKVpBKGfIQ/CCUM6QohWEkkLMFaWImCuEQhBzRRlFzBXFNFfk5e7S7Fn6zVnA0kM7iUhYTs/6Zq2pycfGnP95xFxRcans5gqc8A6cyeyZbUj8djPfT1tPfGIKiQUPZajJx7ac7w9irhBzRQU1Vzi1H8nMae5s7tqbDWes3P5Sk48NOSsi5goQc4UyldZcoanOM6P9aXI7gee/2sogLxdyEk+xe9GnfL7mLDeM6vLJUJuzImKuMDUj5gqbqFTmCkcfHnvalbSDO/jv0r1cTHegwatvMXHh57hd6cGMHzJV5ZNpx/hYoyKaK+zamc43V2yzYq4I7teGpo6buHy7qAh5cfLMFTWXRLJ7sfk/HNFeNJkr0vLNFXOUzRV9pw6na+cHqVdTQ1ZaFk4uGlLuNlesn8KCk89x/Mdt/LJxCxGRsdz4By+PXHwCmL5xHE1/m8rYoswVq7RkXMrh8SDb4hQYJ97ro95cYaUt2+IUjsbNkzo1DCRs38SOXaaFOOZMKI1fCucN/6dw/WEbd06Y1fRd3fgURr65IqK0zRUBJnNFqlldKB8b1hFzhZgrStRcYczJQW/U4uFRAw15Z0/6FJKTDDjW9qCqFrJU5KN+fBSogOYKu+5pmMwV9U3mivw/2m2uqGcyV0THEmf2E38xg1uAIc9c0bbH83gWdvMr31yxOow14QeJOh3N2X1nSM62Mrx55oolgwPx7ziPC77BjAxqZDkQFuYK+7hjJ5jI2PH3Tkq+ucLnhQ5Uy1sBC2wS+62ZK6zHMZkruhPo14sgv14E+fnz8aZ0cs+t491O04hMM6pqS00cVWTHcj4WvP18cc9f2R2b8kBzB25cTCDToK7vascnb5Tw8OtH8JQAHvG0nDOTucLLZK5Q1wOlDlqYKxQp0lxhfU6VEHOFmCtK1lyRe45tXx6lX+go3nsnnS92/E3D1ybR2zuWzSMPmK7z1PRd1fjkD7eYK1Qg5ooiqczmCgwkLBvPRKcQRgbPZtlkR66f38/mgRNZcTD/alZNPjbkLOYKQajYiLlCEMo0Yq6o3Ii5ovwh5orKjpgrhNJHilYQyhnyELwglDOkaAWhpBBzRSki5gqhEMRcUUYRc0UZMVeoiXNfEXNFxUXMFSVgrlAT534j5goxV4i5osh8FOOoRcwVIOYKZcRcUTxzRTrKcdQh5gpTM2KusAkxV9hurkjXKsdRU7dirsh/k5grVCPmCvvMFWriqPmqv5grzBBzhWLnxFxRDHOFmjiqFlsxV5gQc4UyYq4onrlCTRyz0RZzhRJirlBCzBXFN1eoiFMw3GKuUIGYK4pEzBUlYq5QjpOHmCsEoWIj5gpBKNOIuaJyI+aK8oeYKyo7Yq4QSh8pWkEoZ8hD8IJQzpCiFYSSQswVpYiYK4RCEHNFGUXMFffBXKEYp/iGh5JHzBUVFzFXKBonFOOUgOGh5BFzhZgrKqu5Qk2cEjA83Om/mCsQc4UyYq4oyjihIo6KMVSHmCtMzYi5wibEXGHFOGHjc6n2GB5AzBV33iTmCtWIucI+44Q59hoeQMwVFoi5QrFzYq4ojnFCRd9VUQHNFXYVrclc0d1krjhoOj2231zR3WSu+O601Yt68swVr/R4Hs9vNpNi7dM231yxMIw14X+arkGquJOcbbQoWqDAXBGzdT0rWwxg3q/jGBn0A8MWxt95+NjCXGHf6fEdO8F43h6/m8t3Haj59oZeL3Sg2voIrhrN7A3LrZkrrMcxGSc+NVtEdbSetJL32m7l3QFfcSLNiFGj3JZRRRxV5Bkn2vv54j4/1nStnG+cOHS3caJ4Y2j2Sjz8+tK7i5aDyzdwzOwc1GSu6GoyVxxOVHzAXBlLc8UtpWEp0lyh1C/riLlCzBX331yhJo4thgcxV6hBzBVFIuYKReOEYhxb+i7mCkGo2Ii5QhDKNGKuqNyIuaL8IeaKyo6YK4TSR4pWEMoZ8hC8IJQzpGgFoaQQc0UpIuYKoRDEXFFGEXNFWTBXAM6N6TT9M1ZHHWBP+iF+OriC8f1b4lpqa6mYKyouYq4ovrkCZ3ynL2VG3yTWThjGzPNavPuOZtxnS9Ald2N2ZGncYxVzhZgrxFxReBxdczq86EXqhvdZFX6MXCDm7AJadf+SJzo0xiHynPp74WKuADFXKCPmimKaK/SpXLqYg2enLrSqdpyT14w4NvWllWcmZw9dsuHLK2KuMDUj5gqbEHOFHeYKYyrbQ2biu2EqYft92bM9Ac+uT8P8sYRFqH8oRcwV+W8Sc4VqxFxhr7lCg0v9JnhVTWbvqh855diOLvqqtOzdkyfWnyAyXuWnkpgr7iDmCsXOibmiOOYK5/YELx2IbmkfPpgfi54NbAoLZ0zkF0yYvJM/hu1StxFUAc0Vdt3TMJkr6pvMFfl/tNtcUc9kroiOJc7sJ/5iBrcAQ565om2P5/Es7OZXvrlidRhrwg8SdTqas/vOkJxtZXjzzBVLBgfi33EeF3yDGRnUyHIgLMwV9nHHTjCRsePvnZR8c4XPCx2olrcCFtgk9lszV1iPYzJXdCfQrxdBfr0I8vPn403p5J5bx7udphGZZlTVlpo4qsgzV3j7+eKev7LnmysuqjdXaD2a4V03h8SYpIKzOePVUxw7lY1bw/pUtZgaLR5+/QieEsAjnpZzZjJXeJnMFeqaVsDSXKFIkeYK63OqhJgrxFxRJs0VhtQjHD1XhcApU+iZtY6jiVDn6dcZ/G8d5z85TLp58Yu5Qg1irigSMVcU31yRG8WawAnoQkcwcO16JrgauJEYw+FFEwhbEG15YIu5QhAqNmKuEIQyjZgrKjdirih/iLmisiPmCqH0kaIVhHKGPAQvCOUMKVpBKCnEXFGKiLlCKAQxV5RRxFxRDHOFY3vGnTnB3mun7/n5/VQI7fJ1D2rysTHnfx4xV1RcKrO5IvcM6wMCiahiVloefgxbMYx6O/cSn6s2H9tyvj+IuULMFRXRXGG8QdLxE3e+16vx4NllfXk49Wvefn+PaU7V5GNDzoqIuQLEXKFMpTVX3IWLXzCjemvZOWg5x6+rzydDbc6KiLnC1IyYK2yiUpkrLBqux8sTe1P78GJW/ZRZ8D41+WTaMT7WEHNF/pvEXKGaymauMEfbuhe9nrnNb2+Gk2B17tT0Xd34FIaYK8wQc4Vi5yqlueIODjzY9980zYhkyS9XLY4KNX1XPz5KaYi5AhBzhRoqrbkiH10LOr7ckOuROzl210eImnzUjk/eKIm5QgkxVyhRic0VeS/T1vXl4eYGzi4+ee8Oq5q+qxqf/OEWc4UKxFxRJJXaXJH3umbNaKxNIzLmqpXTSTX52JCzmCsEoWIj5gpBKNOIuaJyI+aK8oeYKyo7Yq4QSh8pWkEoZ8hD8IJQzpCiFYRyhhStIJQzpGgFoZwhRSsI5QwpWkEoZ0jRCkI5Q4pWEMoZ/x9rHsiSsZdlcAAAAABJRU5ErkJggg==;" vertex="1" parent="1">
          <mxGeometry x="301.5" y="530" width="237" height="157" as="geometry" />
        </mxCell>
        <mxCell id="Wb3i4IcPdHxYaFaxHeRX-17" style="edgeStyle=orthogonalEdgeStyle;rounded=0;orthogonalLoop=1;jettySize=auto;html=1;exitX=0.5;exitY=1;exitDx=0;exitDy=0;entryX=0.5;entryY=0;entryDx=0;entryDy=0;" edge="1" parent="1" source="Wb3i4IcPdHxYaFaxHeRX-7" target="Wb3i4IcPdHxYaFaxHeRX-4">
          <mxGeometry relative="1" as="geometry" />
        </mxCell>
        <mxCell id="Wb3i4IcPdHxYaFaxHeRX-7" value="&lt;div&gt;DOWNLOADING NEW FILES&lt;/div&gt;run_eu/.poller_and_downloader.Poller&lt;div&gt;run_eu/.poller_and_downloader.Downloader&lt;br&gt;&lt;/div&gt;" style="shape=process;whiteSpace=wrap;html=1;backgroundOutline=1;" vertex="1" parent="1">
          <mxGeometry x="250" y="130" width="340" height="60" as="geometry" />
        </mxCell>
        <mxCell id="Wb3i4IcPdHxYaFaxHeRX-9" value="&lt;div&gt;CONCATENATE DWD HOURLY FILES INTO &quot;RUN COLLECTIONS&quot;&lt;/div&gt;run_eu/" style="shape=process;whiteSpace=wrap;html=1;backgroundOutline=1;" vertex="1" parent="1">
          <mxGeometry x="250" y="430" width="340" height="60" as="geometry" />
        </mxCell>
        <mxCell id="Wb3i4IcPdHxYaFaxHeRX-21" style="edgeStyle=orthogonalEdgeStyle;rounded=0;orthogonalLoop=1;jettySize=auto;html=1;entryX=0.5;entryY=0;entryDx=0;entryDy=0;" edge="1" parent="1" source="Wb3i4IcPdHxYaFaxHeRX-10" target="Wb3i4IcPdHxYaFaxHeRX-11">
          <mxGeometry relative="1" as="geometry" />
        </mxCell>
        <mxCell id="Wb3i4IcPdHxYaFaxHeRX-10" value="&lt;div&gt;CONVERT PARAMETERS&lt;br&gt;CONVERT TO NetCDF&lt;/div&gt;&lt;div&gt;&lt;span style=&quot;background-color: initial;&quot;&gt;run_eu/forecaster.forecaster&lt;/span&gt;&lt;br&gt;&lt;/div&gt;" style="shape=process;whiteSpace=wrap;html=1;backgroundOutline=1;" vertex="1" parent="1">
          <mxGeometry x="240" y="760" width="370" height="60" as="geometry" />
        </mxCell>
        <mxCell id="Wb3i4IcPdHxYaFaxHeRX-11" value="PATH: python/outdir" style="shape=image;verticalLabelPosition=bottom;labelBackgroundColor=default;verticalAlign=top;aspect=fixed;imageAspect=0;image=data:image/png,iVBORw0KGgoAAAANSUhEUgAAAK4AAABxCAYAAABMZJgUAAAABHNCSVQICAgIfAhkiAAAABl0RVh0U29mdHdhcmUAZ25vbWUtc2NyZWVuc2hvdO8Dvz4AAAAwdEVYdENyZWF0aW9uIFRpbWUAb24uIDE3LiBhcHJpbCAyMDI0IGtsLiAwOS41MyArMDIwMDwullIAAA4wSURBVHic7Z15XJVl2se/zwFEQRFBwK3BbXQyt9TMrbFMppFyXBLQUcfXFntJTcTM5XVPM3XSXGZcsjQttCTyNW0SrezVXHHBBUhxQxEEN1zIgHPO+wccBDxw7ue45KPX9/PhD/U+133d9/md59xn+YrW3KO+FUEwGKbfuwFBcAYJrmBIJLiCIZHgCoZEgisYEgmuYEgkuIIhuSvB1fxC+delY+y/kf+z67Ng3J0YIwiq3JXgWi9tZGq7Fwlp/Q8+2pPn9BjQ8HqyFyPWrOXb1EPsztzDNz/OYWBHv+KNapVpEj6DTxP2suviPjb8OIM+T1VG01unCO6N+jI3OYk928Kp46JnLsU6tn+v35VJ+w+yfkYrXEvZA4/6z9J31gI+2beNn1I/oVf1IrOp9KOzZyNyd44K5izSko6SnHiCC9mlfBCnMsYlkOCpQ2h5NZbFg8IZ9upcdrp2ZEjUJLr427bdRLV+M5k3vQPXV01meJ9JbLjagcivZtK1lklHnVu41g/h/bVDaWDJoXhnCnMp1QEX30a8MG4+n2+dyUt1y5USInfq9P+Az78fS1tTPF9PGMnQF9/lh0u2air96OvZqNh/0JdA8/sr474Zy/P1/Kjklsvlk/v5YfZ0PvwsidIy6BTmU3zRvTNrcvMwA7CNuIu1abehC80ed2VDRi64NqTnW8/A/45g7NT/kGWFHXFmAuNn0W9AAzZMS8KsUse2Nq+nGLJyOF5LwpleYy6zWhfpR2UulTq4UG/QZIY+e4I1r0RS9b0P6GRn+e6thzJjUhXWdOlGVMKvtw9Q6UdHz2WiedNu/Eze6NaQx2r6Usk9j0tJO1j37lQWf5vKredMNwKe7ceg4T1p91QdqlawkJ15hv3z3mbEgkS1uZxA6SFovZLIxpkTGPFiCP1eGMy//s+L4PnzGNTa7a43ZC0MG4CGR40APPNSOJ2S/7ea35M0q2chfuNOvAYuYeOJFfQJ2MX2OAuBbZrjranVAcDkR+e5s+icOIXRsw/d9iBUnctRHTBz9P1QunYexaebzpJj78GuVebZob0JzPHmLys3sSUtjti45YwZ0AhPTb0f5Z4doXkQ2L4Dja7HMuMfgxjceyIx555g4PJZhNaznYFM+PV8n2VrI2lt3sanEcMY2v2/GT/uMzbuSsWiOJUzKF1xyT3N7pjThX9MPFSeViFzaf50dUy7Uu5Zg271ejB+akcyFr3C2pP5s5j8/fHRrhGffpOKz9TCx7c81b2z2ZGWjdbCDx8XuJjnuA6Y8A+ZxMiWW5nUcSOZFhcCS8yvNpfjOgBYrbcdH4o32ZinOniSuTuWVQt/5uRFFx772zDGzFuK5+Vgxq+7otTPFSf2pywsZ/azJXY7vwFxhyvS8tBYOnSswqrjF7CWa8GAKS9S8adJ9A5ZzbnCa8J29QmcRCm4Jr9W9J44hG7PNaRaFRPZGdmUr6CRVr7cPWusQuO+vBf9DnW3jeXNyXHcuG1EHolTw3jpYxMXz+bSur++OppPJ4ZOaUbc6L+x47Kj807pc+mrUzqaZwD+lS2kfPclsVsuYgWOJkzhDy+s59XQ9nis28BNXWtX2x89WDLPkHpdo4FPZTQuoNVqRpOaZg7O3EjavToTlILj4Jpq0Wv5R0TU3sHi8cPY/stVNN8OhEdF4ntPWtLwbDWIOV+F4/31CAa9vZnzRa4QlowMLlkrUbWaB5o5i/NnAc0bv+oeWDMzuWRWq+MZ9DJBNavi8vFWnv+44Baubrhqw/jiXCveb/YaXyvMpVInJt1xoK25ueRZTfj4eKGRH1zM6aSfs1Cuqi+VTJCt0I/6/jiDBYsZNJPtPGbBAlgs9/JQYB/HZ1y3hjRtUZ7kFXNYFrObxCNJJOw8QtpNO3eGNZecHCtU9MSjtLOUgzGmal0YHzUY37URvBlZPGwA1swDxB830TSoLV62s593W9q2NHF65wGuWNXqZH87mbAWwYS06UpYm66EtenBlOgL5CWtIPLP49iUaVWaS6WOEjdPkHwS6rRvSRXbvrjVpd4fXbh+KoXLFrW1q+5PwS7h274P4eP70sJf/zsOltTDJKa50LR7EAF23vq7lzi+4uYdJ+lwLkFhbxB2aDUHUrMxeTUiwN1O6qxXOZl4HpdXevNan0x+vlqZmhwhZn3yrRdKZY5xo8mwSDppm5n26Tm8/9QA74KbWa6ncyrlKpa8JGLmbyNk3v8w7ZgrUbuhyeBRPM9Wpq44WjCPQp1r6Zy+Vnwrql7Ow/rbZVKT07hmBlCYS6kOUN6Xx+r44u76B6qU03D1fYx6jbL47fJZTqf9ijUvifWf7OXv0yOYEHmRJZuyqNVnDKG1TxAdvpPfAFTWrrQ/Bbg1Z8CiifSvC8GeSfQYvRcdx1/I2cvKqd8TtGgiH0XX5/OonZzMyMHFy5+aHCbmm+R79q6C4+CaT/HFaxF4TRvM3/+9lAjvcpizr5KVdoifT5Y8eeZxaO5kVjQeR8/5C+l1M52EZRP4bkMy16wKYzR/GresgVuNQCZt7Vqsck7sGF7oGc0Vq4X0lSN5y3MsI4e9y5y34VL8Jub0msa6MwVPWSaVOirbozCXIi6PD+DDLeHUte14nZms7mPhwtKBBA/bTi5mUhZFEOE+lrcG/ZNPxrlx/fguogdE8O/dttOtSj86es47Rdzm43QL1di59ZQTIbOQFjWcAZkDeD2iB6/M74+vh8avmSkkRL1H7Ppksu6RX6OJuiMYkYfnoxThkUKCKxgSCa5gSCS4giGR4AqGRIIrGBIxIARDIgZEAQ+VAaFSx+Cofa3REeYs0pKywBRAizINCAdjbOZC+pcsHnSQDJfadBoZyZCocmQ8OYQNGVZufcO/MQkfTGb4Lmg+eBSRX83kRrtw1p21KNYpsgkODYgy5lKqk29AdA4P5/XBnantoXHe7ga4U6f/dGZPbUxq9Bq+nvA5p8+mc/Y2A8JRP47qGB8xIB42A0KljgpiQOhDDIg7MyBU6ighBoTziAGh34C4aHJcR8+TpBgQOhEDwjkDQqXO7XuphhgQZSIGxJ0YECp1bjj9FCkGhBgQJblLBoRKnSK7LQYEIAZEqXW4rwaEwzo2xICwIQZEadw/A0KlTgFiQAjC/UW+ZCMYEgmuYEgkuIIhkeAKhkSCKxgSCa5gSMSAEAyJGBAFGMaAcFhH/9qNiBgQGMmAUKijc+1GRQwIIxkQKnV0rL1MxIDQhxgQZZkLCnVU1+4IMSCcRwwIO+aCozoKe6gHMSB0IgbEnZsLjvdQH2JAlIkYEHduLpS9dud5cAwIx8G1GRAfzmFZzLH8Y0G5KqTdtN4e3BJ2w2/27i8HY26ZC2/xRuQWLpTYE5sF0CuoLV6rviPLWsQCWGzPgLBfJ99cmFXkbS1XGo9ezoQm64nst4z4TCtWzfFcVoU6ShSYC0+3b0mV2Se5aOWWubCnpLlQNo7WXmQkvu3DCO1kYtfiVezL0BdAmwER3D2IgFXRpN/Hq64YEEW24oE3IFTqqKzdVksMCBtiQJTG3TEgFOroWbsYEIJwf3mYPgUUHiEkuIIhkeAKhkSCKxgSCa5gSCS4giERA0IwJGJAFPDwGBBA+UCen7yQ1ccOsPvyQTbvXcaofn/S9x87P+CIAcFDZkBQgZaTlzI99BzLR7zKhGSNuqHDeWfBYlzTujDt+2z7e28wxIB42AwI1z/S/i81Ob96FEti9pEHHE38gEbdVtKmbSAu3ytaCWJA6EMMiDs0IMzppJzKxf+5zjxRKf+GbnVa8IT/FRLizqgHSQwI5xEDwgkDwprBhncm0urLKSza8yQ//ieFgJeegTlDmb3xelm3tIsYEDoRA8JZA0LDo1ptalRM5+eP13HQrTlB5oo07PUybVYdIPa080/eYkCUiRgQd2RAlH+a8CWv4rqwG6Nmn8DMKr6YG82IH1cwetxmtr3+A86/PBMDQgyIktwlA8LkU486ATmcPZZWeJ61Xj3M/kM3CalVnYomyC6sJQZEPmJAlFKH+2ZAWDL2sjfJnf8aP5FeN1awNxX8O/TnjWBXjv8zrvgDWAwIG2JAlMZ9MyDykljeNwLX94bwWlQ0YzwsXE/9hT0LIpg955fiL6TFgBCE+4t8yUYwJBJcwZBIcAVDIsEVDIkEVzAkElzBkIgBIRgSMSAK+N0NCLfWjEpKKnxgF/3Ze2QszW3fIFXpR2fPRkQMCB4QAyLvCCvDwvi2yEfpmk8HBi99k+o/bOdUnmo/+no2KmJAPCgGhPUG5+LjOVfYmA/PfRRG84yVhI/Zkv8RtUo/OnouEzEg9PHIGhAlqNA+nIiXXdg8eSH7r6v3o9yzI8SAcJ5HyoAoNnF1gt8JwS9uHkvWXym8nUo/V5zYn7IQA0Inj5oBURRTo16EPpPDTwO/wv4vylFZu9r+6EEMiDJ5NA2IW7jweGhX6l7axNzYrGJXaZW1q++PMzw4BoTjM67NgFgxh2Uxu0k8kkTCziOk3bRzZ5SwG+ziYMwtcyGCNyNv/6UbNgOiaVBbvApuX2gl7LRnQNivk29ABBPSpithbboS1qYHU6IvkJe0gsg/j2NTplVpLpU6unBtQMe/1uLa5s3sK+HYqPSjuj8Fu4Rv+z6Ej+9LC3/974zaDIim3YMIsPPW371EDIgiW/G7GhAFw0wBLWle30LCgvhb1kPhfaHQj9L+FCAGhA0xIErDsQFRMK5efQJNmcQeu2rnxZxKPzp6FgNCEO4v8iUbwZBIcAVDIsEVDIkEVzAkElzBkEhwBUMiwRUMiQRXMCQSXMGQSHAFQyLBFQyJBFcwJBJcwZBIcAVDIsEVDIkEVzAkElzBkEhwBUMiwRUMiQRXMCQSXMGQ/D/BzcrpVo1T7AAAAABJRU5ErkJggg==;" vertex="1" parent="1">
          <mxGeometry x="338" y="860" width="174" height="113" as="geometry" />
        </mxCell>
        <mxCell id="Wb3i4IcPdHxYaFaxHeRX-23" style="edgeStyle=orthogonalEdgeStyle;rounded=0;orthogonalLoop=1;jettySize=auto;html=1;exitX=0.25;exitY=1;exitDx=0;exitDy=0;entryX=0.5;entryY=0;entryDx=0;entryDy=0;" edge="1" parent="1" source="Wb3i4IcPdHxYaFaxHeRX-12" target="Wb3i4IcPdHxYaFaxHeRX-13">
          <mxGeometry relative="1" as="geometry" />
        </mxCell>
        <mxCell id="Wb3i4IcPdHxYaFaxHeRX-25" style="edgeStyle=orthogonalEdgeStyle;rounded=0;orthogonalLoop=1;jettySize=auto;html=1;exitX=0.5;exitY=1;exitDx=0;exitDy=0;entryX=0;entryY=0.5;entryDx=0;entryDy=0;" edge="1" parent="1" source="Wb3i4IcPdHxYaFaxHeRX-12" target="Wb3i4IcPdHxYaFaxHeRX-15">
          <mxGeometry relative="1" as="geometry" />
        </mxCell>
        <mxCell id="Wb3i4IcPdHxYaFaxHeRX-12" value="&lt;div&gt;CONVERT TO DAILY hourly (24h) FILES&amp;nbsp;&lt;/div&gt;&lt;div&gt;AGGREGATE DAILY VALUES&lt;/div&gt;&lt;div&gt;&lt;span style=&quot;background-color: initial;&quot;&gt;run_eu/forecaster.forecast_archiver&lt;/span&gt;&lt;br&gt;&lt;/div&gt;" style="shape=process;whiteSpace=wrap;html=1;backgroundOutline=1;" vertex="1" parent="1">
          <mxGeometry x="255" y="1030" width="340" height="60" as="geometry" />
        </mxCell>
        <mxCell id="Wb3i4IcPdHxYaFaxHeRX-13" value="PATH: python/outdir" style="shape=image;verticalLabelPosition=bottom;labelBackgroundColor=default;verticalAlign=top;aspect=fixed;imageAspect=0;image=data:image/png,iVBORw0KGgoAAAANSUhEUgAAAPEAAABPCAYAAAA6CyMMAAAABHNCSVQICAgIfAhkiAAAABl0RVh0U29mdHdhcmUAZ25vbWUtc2NyZWVuc2hvdO8Dvz4AAAAwdEVYdENyZWF0aW9uIFRpbWUAb24uIDE3LiBhcHJpbCAyMDI0IGtsLiAxMC4xMyArMDIwMIX/bKIAABIPSURBVHic7Z15XMzpH8Df35mJDlIi58pRWGrlWLssy27Yda/dxDqWrGNd6/o51rrv5Ucsq1xL7OZYQm6bO5RqpaJcP0WUSiRFx8z8/kipTDXDlobn/Xr1R32/83me72eez/M8852Zd5K9sbUagUCgt8jedAcEAsHrIYpYINBzRBELBHqOKGKBQM8RRSwQ6DmiiAUCPUcUsUCg54giFgj0HFHEAoGeI4pYINBzRBELBHqOKGKBQM8RRSwQ6DmiiAUCPUf7IpbXwuHnqQxwMEcqwg69NUhlsB04iSnD7FG86b4I3mq0L2JFPb4Y349P6xvrXMQmn05me5QvGyc0fGlASxWd+C3hOheTM3/8/uhEaR3jl0gkU+y+HUiP1lWRF3JqQfkRCAqjGLbTEoY16lDNzByrepYY5DmqTjjCvJad6dn8O9b5ZxR9d0ocBeenuPti2tiRCX/t4eDdEC7E+bPvhAvObSrmHihSOeyG/4L7lUD8HvzDgRO/8O2H5XJM7lrGyUHpBn1ZcSMcf5/h1Mo56xXalpZxso5bd2XWxWD2/9Is94Rp0JzJ4eHZi0nOn8DLU7F/s09MgRTDxK/mwZ/j6X35PTKuhvE072FlItHhiSCrRJOUd1EyUkh+ihO5FZ3mjaJpzA7WDA0mVl6TzyeOZ5RHKWIbj+JArBqQUbnfYn5daMuVpbMZ5wf2IyczftdiklsOxytKpWWcFyise7Joz2jqqtLIfUSLtrSKA3KLBrQbPpwhI9tR01jift5rz7jMll69OFg6x1RUvhUj14+gyvFzRJTg9SX/ldi4Dh1/2cjuyBAuxF9gz74hNMxT8lLFL5nue5qTcWEEPgrG+6I7U/vXx1jKOv58q/zkIvt8vNi79tW2ypJ5N5bdD8Nzlm2Orakhrdf44R84jvd1mIoK6zOAZGaP46JluJ39m8O3g/BLDMM3+gy/jaiVI2EGVGrrzPS9+zh0LxT/h8GcunaA5aPez7V9Vnw6kR23LuGXEMRRP1dGfFkl+7g2+SnTYzmnEo8zoUXOi5RjPXkvF+664FD2+Z9k5jT6YS6uvqc4HR/CydBtzB3VFDNdXvsoI9j+VTv6f7+avQd8OO/1B4uneBJjYk+jrCQr6vH1j61h7zymzvPi3FEvXJ0XcFxqTb8BdTOvTZs4WTkw/ZBRW8ZhunY4C/c/yl182rSlTRzk1Bk6m9FtU9g3aDxb/5e7+AFQJ3Pv0iVCLgRl/vjfxsKxF/axW5j100keabu+SGa0nLEW98BTHI8Jxf9hEEfOuzKyU7U8K6Z240cbNA9/yZy2Lr8zp+sDvOZMYPEtA6zaOuH8cZ7rfhTGkcUzOBgVT4pkTv0+45mw8ldSrnVmuV866oRDzPkoACOZBR3d3BmoY+detHOO0+fSadW2BdXloUQqAUU9mnxkSsIpP27qMEsW1mcAyfIjvhrWDrX7ApbOieRBUgYK0wpIN++S+fTLqPj1Ijb+3gHl8T9wH7uciPtPKVXJCpNbWedkorrnw8Z5R7j3zIxGwyYy1H0R8c2d2RGp0io/ySe98U/5gpZf1Gf5+VCUAHIrWne24enxtfg/ATDC7ueNrB6ShtfsmbgFPaF86wGMm72GuUndGON+Dw3DVnN+0jMy28jMBMZVK2GScZvI25l/lSo2plEdFZdcfDF1XsuOaYa4dx7PuQAVbT+2x0wK54G68DiZaaxIuxVLaBc2B+dlIVgtyd0XbdsqLA4oubbIia4L1agVdoyeX3gejD4Zzthv5HgPdOXiEy2TByAZY/VJKxo8+ZNp353goVSRxkMnMGTTEh626I/HTSW6jB9t0FjEsupd6ONoQfDMfsx3u4MKOH9SSZOhH2KR88T0SC54Rmb/GhZiSLOeK7D/qAoyv9uolEncv54EsmQevM4+UZ3AWa8AMpZ+Tqv3NhAZoUJm9SFNrZL55/gl0nSJVVifs48848aBXfz9d/rLMUo1YcCczpQ5NYvePbdxL3tcnnvpVNWN8xza70MqEBBuTvOQyXzaxoy/Nieg1iI/6kc+eB9PYW7ndtjMCyU8A2R1v6S9XRJnlpzisRoky04MGVWd8z92YPH2hMxVKPAqBk1PMbe3A5ZbthCj68gADOr0YPq8NsS6DWLPrefTl6Ul5aUkLsU8o0zr6pS3MKSKWQrno1OQmlSkvBweZBQeB2RY9pzFxKZnmNXmCHEqOVZ52teurcLjZCZS/dIWO19kVeg0qScVA35l7Uurunao7lzk5NFzmc97aBmahkylVRtztt6MR63D+NEGjUUsr1cfa3k0Xn4Fz+Cyis3oPXMU3T+rR2VzGSmxKRgaSUQblnqlzuSPivh9+7iwcC4OXaqxdVUU5q0+xibVj62nU3SK9G/0WVa9EXbVlAQvPkK0svDzs68i9g53n8iwsTRDIkG7waF+hM/2kyRt7oCD7UrCg8DGsRPWsUdY4Z25RChs7WlgXBYztzP4ur54qKQwQHarKhVl6FzERrZ9WbBzErV9pjJidgDJL52RQdi8XnTZIONBVDrN++sWRyr/OaPnNCJgSjfOPywsE/m3pVsc7ZA1cMSpdRqnnHdxW4fnNz9UcXe4+0SibvlySMQjveL4yQ/N22m1GhUSMlkBL6hk1XHctI6xNc+zZvoYzl19jGTRiuEe43Ov1s/jvW561Q+Ose/QFBY4daKGmwd12zVG6TMfP61frOjY5wI7o0IFqFS6Lm8ZKDNAkuW5FVFIfp547+LY/fV0cPqAteEKuvWuTdT2qQRmrd6SBMoo9gz6gT8u5xkV6YlE63RTRsKk2VBcdg3HbPcEhv7Hm/s5Hq+KjSVBXZYKlY2RlIncjwIkMypWMUYdF0eCUrs4Ju2/oX21Csg3nMFhw/NHKAxQSGPYfq8ZixoNZrcWbWkTxzNGl9En532nrtRO+JsVRxNfe9xmokKlBCmrnl55/GhGYxFnXA7matrXfOhgjYFfOBo2lGBQjw+aGHJjuQsbPa9nrtilzIl+ptZQEKk8e6oGM1PKSpCqKTPqdNLS1FDGBGNN56gfc2bdXu7v/4avPr1DhU8l/KecRKfJV6c+54/qbihh0XI6fdWeSlt3EvPas2kh+UnxY+eWm3Qb2IsOYaXpaBnE+o2hZNVE1vP1wQeGRO8OIfU1eiKr3JHpHiOx2PMjw8afJD7POFPHBXHppgzH9i0w3XqYRDVIZi1o0VRG5Jqg7BtAhcVJOTibXk2W5HirSIHtlE3MsNvP+H4buRSnRi0V3pZaizg6oahLmy+rk+S9kH/y3eTJsPikF06fy/Bbs5V/YnUrxn97/GgsYnXMAX7f4MzqCatZIluFp889Uk0bUVnGi4LOuEl4aDrtew2jV8g2gu6mIDNtQKXSGlZv9RNuBEciG/UtwwbEcjLelOryK+zce+3FzQ/1Y26F3Uc+qDeDv43j7ONyVOMynvtvZJ+T5ufBX//0ZvDqyUgyH+YffqjbTKlLnwsiLZAt847R3m0m63Za86eHL7di05CbWlKNUDz33UCn56XQ/Ci5vulPAkdPY+pSiWf7x3Mg4sXAUcfsZ51bf1zHrWF1uXX8dfQqCelGVLCpQuJBD87e1naQGWA3ZjyfS97Md7+HWf26mD0/onoSQ8Ttx6gywvFc6UPPX39m/nUFHhfAbuRkHDjDvM1Z/dUiTlIMkUk521ZQ4WEG6tSH3L0RTZISQIu2tIoDGFrwXi0LSitqYF5KQmHxHnUaJJL6MIrI6KfZ40hWqSn21iqurLqU/2RoYM8At5n0rw2dTMLpMSUQnTY7//L4yefNmWQCpw9gdOxEfnD+icUTyyJPfUzcVX8OX0/OvGBlBNsHj8V0/kj6rF7PWLNSKFMekxgdwtlbeV9BKQlfOYu1dnPo89/f6JYaQ9imGRz0ukZSdhVmELJiNpttp/H1Slccn8VwZeMMDh+48eIcZSS7lx6k344e4D6N07q+BtKpzwWhItpjHAPiBjBkbA8GreyPhbHE07jbXPFYwNH9N0jUrWOF5kcV5cXmbT/w24Ak/lx+jMRcl55C0KzvGHpnDD8M/p6fB1bASPWE2Gt+bD67VftuyCyxbVoVg6pWzDrTNdehtKM/8cXXO3mkVhGzZSI/mkxl4pi5uPwHEi79jYvjfLzuqHSIo02HtGhLS+TvD2D5yeHUzhrxtRaz7VsV8eud6TTmXPbiJK9jjZUsjqPXH+e/QGREEOB9k+5OEr5nInSbsJ9fV6HjR4ehLenbv3GR2Qxmo093/L7oweqgEvwOvEBQTOjFR3WlsjWoX9cEydSOHvOHU8FzIh6XRAELBKAnRayw78OCnd9RVRlD6K75jJl8PPd2TGHH6At/Mahefp91URKx1AnHGcGvsPV5CxD5eavRu+20ZgypULcmFob53aBSkxobQUTMs2LtVclB5Odt5i0pYoHg3UWYPQQCPUeYPYoKYfYQFBPC7FFUCLOHoJgQZo83jjB7QAkwewAYWuEw25Vt14O48DAY78CNTO5XH5MSvvUUZo83jjB7lAizB0Y0nb2ehU732DThe2bckKjtNI5Jq9agiO7I/GO6fVuuOBFmD2H2eMG7bPZQ2PBJh2rc37aCtZ6BXAsO4PDspey/U4FGLay0t20Is4dmhNlDmD2K3OyhjOF2RDqWn7WjYdmLXEpSY1CrCQ0tH3El4I72H4IRZo98EGYPYfYoarOHOpYDk2bSbMcc3Pwbc+LQbSp1aQ0uo1l2RBc/TybFafbQuJ3OMnuEaGH26LNqE9svn+fUPT8OnZtKSyOJUkVl9kizw6FLNWRI2WaP069g9njdPmebPXa9mtnD3NJM+zv8WWYPmw442MoBebbZY18es0dbtzP4JlzGL+Eyfgm+zOteBnnVTLOHrhjZ9mXxgZnY+ExlXEFmj4Y9WHFe4zfOC4yTbeSY6aK92UNDW7rFKQgJ48o1qVomhrObvAhOAJRlqOf4DR/X0HWDm5sss0e58pk35F51/OSHMHsIs0ce3lGzh+FHDF/7PQrX7kxe9j+UbGX7ip1MOLGZKdO88RlynFe/tSXMHs+PC7OHMHsUndlDVr4OtSqlEXU9Ovv1r/pxKBdDntGzehXKyCAl+xqE2UOYPfIizB68abOHKjaQwPDSDJw+E8fkzQTeBctW/RnWScHN/wbknoSE2UOYPTR0TJg9NFKMZo+McDb1HYtiwSgGe+zkJ2MVT+5exX/VWJa5XM19b0iYPV4PYfYQCHKjFx/VFWYPgSB/9KKIhdnjNRH5eavRu+20ZoS5omBEft5m3pIiFgjeXYTZQyDQc4TZo6gQZg9BMSHMHkWFMHsIiglh9njjCLMHlBCzh4kNnZdsYndkMH7xAew7tph+Lc1L/GtOYfZ44wizR4kwe0hmtHH5nVkd/sfGcc6cuGtKs5E/M3rXCtJbObP9Zsl9802YPYTZ4wXvstmjbGu6dbfgissM3DwDCfM7wZYR8zj0tBm9vmsgzB7C7CHMHiXd7CGZlKGMgZqkhBz/WDz5MqFX1HRsaIMJITzWJoHC7JEPwuwhzB5FbPZQxwURdEOir7MzzbxXExCdgVG1mlQuKwNVKQwk0OUrc8Vp9tBYxFlmDy8tzB69Z46i+2f1qGwuIyU2BUMjieiiMnssnItDl2psXRWVbfbY+gpmj9ftc7aZYfGrmT1sLM2QSNBuTGSZPTZ3wMF2JeFBZJs9VuQxe5i5ncHX9cVDJYUBsluZZg9di9jIti8Ldk6its9URhRk9tgg40FUOs376xYn28gxpZv2Zg8NbekWp6AmwnAfugCrDeNwuz4MVQZIqUmklJKR6hmX49t2upNl9qhbvhwS8UivOH7yQ5g9hNkjD++o2QNICfqDKU23MbdyZcxLpZJo2JVffceR5ntZt+8Lv4Qwezw/LswewuxRdGaPF2SQHBNFcula9HAfjF3CYSbuup9nRyrMHsLskRdh9uBNmz3UgGEVa+rUrkYN+49pN9CJNlVusqnPfE4m5BllwuwhzB4aOibMHhopRrMHcqxH/Mb6oWbE3wwn6NAvDHHdzcVoDftQYfZ4PYTZQyDIjV58VFeYPQSC/NGLIhZmj9dE5OetRu+205oR5oqCEfl5m3lLilggeHcp6d+yEggEhSCKWCDQc0QRCwR6jihigUDPEUUsEOg5oogFAj1HFLFAoOeIIhYI9BxRxAKBniOKWCDQc0QRCwR6zv8BgnqgIuuti6AAAAAASUVORK5CYII=;" vertex="1" parent="1">
          <mxGeometry x="150" y="1140" width="241" height="79" as="geometry" />
        </mxCell>
        <mxCell id="Wb3i4IcPdHxYaFaxHeRX-14" value="PATH: python/outdir" style="shape=image;verticalLabelPosition=bottom;labelBackgroundColor=default;verticalAlign=top;aspect=fixed;imageAspect=0;image=data:image/png,iVBORw0KGgoAAAANSUhEUgAAARcAAABXCAYAAAAu/AEMAAAABHNCSVQICAgIfAhkiAAAABl0RVh0U29mdHdhcmUAZ25vbWUtc2NyZWVuc2hvdO8Dvz4AAAAwdEVYdENyZWF0aW9uIFRpbWUAb24uIDE3LiBhcHJpbCAyMDI0IGtsLiAxMC4xNCArMDIwMEBYUiwAABMsSURBVHic7Zx5fExX+8C/dyYhEiIRYq3Yt/KKpSvKr2hLF6+WUKVESauo7VWq9rXlLaVq37VBrY2litq3SEIkROyJLZFI0shClpn7+0OCRJK54010Mp7v5zN/JPfkOeee88xzz72Z+Sru9jVUBEEQ8hndPz0AQRCsEykugiAUCFJcBEEoEKS4CIJQIEhxEQShQJDiIghCgWB+cdFXpfW3o+jZ2hmlAAYkWDmSP88N5hcXm9q8PbQ7b9SxNzs5HN4Ywbobx1k+7EVssh1Tynjwc+xFTiU9ePn+0p6iZg/u+Sbf59ChIg3eaUXd0vlYBv6H/BEKF8/wtkjBrnJ1Kjo541bbFdtsR9XYP5n8+rt0fvlTFvulP7thWRH5PYf6up8wyXsUb1X5p++eFRwbdWLY+i3suBnMiWg/tu6bhWfLMlkTWClJg37fszIkAN+Yk2zf9z0fv1TysSKmMc5jFK33CbMvheJ3uB9V9eb0pTFO5vEa7zP+VBDbvm/6xIU3c+z2NVrxyYy5LDt5mAM3l9GpvGWX55zPo0BQifl1KF3PvkD6+XPcy37YEE9EaDzoytI4WT40/FRY6xzq3Wg/eQBNIn9joVcQUfoqvDl8KAO8ixDVaADbo1RAR7nu05kzrT4hP0xgiC+49x/B0I3TSXq9Hz43jBrjPMKmRme+2zKQWsZUsh7R0JemOKB3qUebfv3o278NVewVbuc4AUWp2mMaMyfX5+aG9Wwe+yvhNyK5EWvZa2z6kmRfnXbfL2dzeDAn7pxgy9a+vJitJCll3mHM8YPsjz5HwN9B7Dm1klE96mCvZB7P2K4nnmLrYR9+X/R023XF+QNm3j7HpvH1eVT87Wix0Be/gCHUNaNUmhrzA2wp28qTMb9v5Y9bZ/CLC+LAhe38OKDuY/2baKOvjdexEHbPfv3Rbq3oO0yPCWFp/4roAL27J7P9jnD4zmn+CljKmJlzWXPlFAdDfmHI2xlXVQ1x8u3cbV9mRGgo/gf64la0Kr0OhGbcap1n788tHvWvc6bhF5OYf/wAB+8Es//MWiYNaILT43OoIX9MYghj3b/b0OOzefy+/TDHfH5h+shNRDq40zBz0W1q8+FXLeD3yYya7MPRXT7M95zKXqUF3XvWerAWWuJkzpHjSwxYPQTHRf2Ytu3vrEVBS19a4qCnutcEBrZKZmvvoay5krUoZVL05YF8P96Z9e06MGDYYrZuO0ZQ4FViU8yYQ8WJ18cuYmXAAfZGnsEvLpA/j82nf/uK2XYYWnJeG3kvs+JMq1nLmPh+DD4ThzH9qi1urTzwfDVrM/Xvc/w5fSw7btwhWXGmTrehDPtpDskX3uVH3zTU2D+Y+Io/xXQutFuwkl5mDvJRP0c5eDSN5q1eo5L+DOEGwKY2jV9xJPaAL5fNuBMwNWbQUebD71i+7C0Me39h5eAfCbt9jyJl3XC4epMHaaCljWn05eviXv06v3aYSmiHaUzvlcjyrn0J+2gq42Z8xl97vyNIa7D8OPe0IBa3b8fGRn2YvaQZvn28WBWcDqgY4iN5MM3FaPDtcub1TcVnwjgWBCZSqkVPhkxYyKSEDxi08hZGjfmjacxp6Rge/qRgX6EsDunXCL/24LdKmUY0rG7k9KzjOHou4rfRdqx8dyhH/Y20etUdJyWUGNV0HAB0ZWgzewZtzk3Ec2YwbjOyjkVrX6bigIEL33nw/jQV1aYBA6fkcOJKSVoN7Ipb6nXeWr0brwp2pN48w76fpjNnVQhJWjcvij1uzZpTL/FXRn+6jzilDI28htF3xQziXuuB92UD+ZXPmeRZXHSV3qNbJxeCxnVnyoLrGIFj+w009noJl8cbpoVzYlP4wx/PBdvRtPNs3F8pj873GkZDArcvJoAuiZgn7ofMQI3liI8/6T+8SfMXlhIeZkTn9hJN3JI4ufc0qebEMjXmIo3pOfFdih8YT9fOa7n1MPeOPoqhpY1WjDFcORnEYftgknqVJOy4P7vxY1jnalS2h6BE80Pmiqlz5z6xV64SXyqeNDWV+PDLhF0wZAmhuLan74BKHPvqLaavi31wRQ44j22TA0zq2hrX1auJqqgxf8zEtnpHxkxuSdSC3my5mlHmXV0ppSRwOvI+xVtUopSLHeWdkjkWkYzSuAyl9BCTbjoO6HDtPJ7hTQ4xvuWfRBv1uGXrX1tfpuMAoKpP3CplHWR9XmruQPSJXayZf4SrMXpe+GAQ38xZgkNce8b4ZN8N5Y3x+in27zpKCuB/pjhNgkfRvKUzay7fQc3PfMZEcdHXrkMNfQQ+vrfyrFq6Mk3pOm4AHf6vNuWcdSRHJWNXTCHCrshTDSp3jNzZupUT0ybR+r2KrJl7A+fmr1IzxZc1B5PNimRqzLpKDWlQ0UDQ9D+JMOQSQ0MbszGqqCgoOsBoREVBp8vfB3f5sV429d2pZ18CpwWHOD7/0e8VG1t0VytQRgcxGvPHHIrV/4SpG76m2uFRfDnBn6QnWqRzbnIX3luqI+ZGGi/3MC+OUupNBk5siP/IDzgWZ+ptm3tf5sXJHcWhLK4ljVzb+Ru79segAhdCJlL57W185tEMe5/tOcyBNozR17mZqFCrVEkU7qDkcz7nfVukqhhNJbeuEp1WLGZwlWMsHDOIo+fvorg0p5/30CevTqaqtAbUmL/Y+sdIpnq0p/ICb2q1aYTh8BR8/zYjspYxq0aMgNGYx9tCSxuMGI2gt9X4oEE1YDAYUZ84HTPj5IY560Ue66UoYLjBlt5f8MvZbJmYFk9EOtryRzMKDk29mLWxH06bh+H1nz3cfmwnYoyKIlYtQely9iiGeG7fABQnypS3R42OJtagLY5D249oW7E0+qWHaL004y9sbLFRBrHuVlO+a9iHzRr60hJnU6TpnFXT0khXdZQq5YjCg+KCIZLIW0aKlHahhA6SnrpyGzEaQMlcH035rJ08MzX9bBDnUz/kpdY1sPUNJS2nRra1+VdjOy79OIvlmy4+uEIVcSbivppDsqZw/54KTo6UUCAlp7lV00hNVaG4A/Y5tVHvcmjx79ze9hH/fuM6pd9Q8Bu5H7MuDhrGbLx5hnMRetr/uy1l12wgModKrqUNxlhi7hgpXq0KLrqDRJpYt7Q9o2lTNmOYTxsnrzk0Z73u3ydVKU5xRx2Q9eQyc+Nf/7IjYnMwOT1bVLTkj0Z05doxxrs/Llu+4vOh+7mT7fzV6EBOX9bRqe1rOK7ZSbwKitNrvNZER/jCQDKvPabiJO+YQJfGMx77l7IN9UeuYGyDbQztvpzT0SqqYrovVUMcTdy/wqWr8EqzJjjPvPrgWY5tNarX1JPod424LOPX4dKsCx5v6vBduIaTUeYVCU35bAZ5Fhc1cjvLlnoyb9g8ZujmsunwLVIcG1JOx6NESb9M6Jk02nb5nC7Bawm8mYzOsR5li+ZwtVITuRQUjm7Ax3zeM4r9dxyppA9hw+8XHqWueper526j792VPh9Hc+RuSSpylk3bLj1sk+rrzfqTXekzbwSK7jBTdsaZtyPSMubUAFZP/ou2C8axeEMNfvU+ztWoVPSOrlTkDJu2XsKgpY0ah+/2AFJn9OXbkXGsOXQbg3NDyurArE+imBMnrzk0Y70MYaFcSihF6/8M5KT+GLE2rlS1C2X95vMYIrexeEEP5g9ZyLySi1m/6zyxacUoXbM88Tu8OXLNqC1/NGFLg0FDeVPZw5SVt3CqUwunjCPGxEjCrt3FmB7Kpp8O03nOt0y5aIP3CWjQfwStOcTkVZn5pSFOQiThCY/3bUPpuHTUlDhuXoogwQCgoS9NcQA7F16o6kJRm8o4F1GwcXmB6vXiSYm7QXjEPdT0ULYtC6DbtMGMHRrDot3xVPr4GzyqXGFDv+NZi7qtOz0XjKNHNWjvEErHkQHm5ZiWfDYjnIk9dhIBY3oyMGo4X3h+w/ThJdCn3CX6vB87LyZlbNHCWNdnMI5T+tNt3hIGOxXBkHyX+IhgjlzNfjdoIPSn8SxqMJFu//2ZD1IiObdiLDt8LpDwsDqkEzx7Aqvqj+bDn+bT6X4kIcvHsnP7pUdtDOFs/mEH3X/rCCtHc9Dce1pNYzYS4T2EntE96Tu4I71/6oGLvcK96GuEeE9l17ZLxKva2txaNoKvXcfyVe/JzB5ZFOO9eKLP+7H7UrIZRdGcOHnMoTnrlbiXnwespNTELoxd74Uu8SZnlo1j+5bzJKjJBI7/FK/rg/iiz2d826s0xYyJRF3wZdWRNRkBNOSPFnSu1G9SAdsKbow/9H6WQ6m7vuHtDzfwt2okcvVwvnIYxfBBk5j1H4g9vZtZnabgc91oRhxta2GyL43o6/bkx/39qJb5Tqw6nbUfG7mzxJP2g46ShoFrCwYzuOgovvL6L8tG25J42ZcNPQcz78T9rMHSw/Dfc5kOHgrHD4WZVQgyz8t0PmuPphRWzaWuZh+WH+6A79sdmRcon+gVBEvjGX5C939HKVGZOrUcUBwb0HFKP0pvGo73aSksgmCJFKriYuPejakbPqWCIZIzG6cwaMTerNtYmwYMPLGe3rVz+yyhgbAfPOg0NugptoxCviPrZdUU2tuinLGjdK0quNjl9q9PlZSoMMIi7+dyXHi2yHpZM1ZWXARBsBT+6e/SC4JgpYiJTni2SP48N4iJzooQE51gSYiJzooQE50Vmugy3DqZF4zHXwFnR+Ge/Y1kQYiJzpqw1jl8nk106WdZ3aULOx77eoZSqjn9l3xJ+b1HCbPg67CY6MREJyY6SzbRqUncOn2a4BOBD15+13Dp1AX3qNWM/2a/xq8rICY6U4iJLn8QE13ucQDLMtFlo1izfgz+SM+eXvM5ZY5ATEx0JhATXf4gJrpc41iciS5Lx+Vp/3VnyvjPYdETuyBtiIkuV8RElx+Iia7wmOgeR1evEx4tUjnguZFr+ZBvYqLLHkJMdNri5IaY6AqVie4Reup6vE+12N3M3hX/P7+PHiAmumzHxUQnJrrnyET38M9r0fKdSiTsmcbJXDfpYqITE52Y6MREp9VEl9FMV7YJ7jWMhMw9nWMhf3B6YqITE52Y6MREl4FpE11Gu+o1cNNFs+vi3dznTUx0+YOY6ATBsilUsigx0QlC4aFQFRcx0VkZsl5WTaG9LcoZMZsVLmS9rBkrKy6CIFgK//R36QVBsFLERCc8WyR/nhvERGdFiIlOsCTERGdFiInOCk10AHZutJ4wn7UXAzkRF8SegOWM6F4HBwuvzmKisyasdQ6fZxMdxWgyYQnTPG6xYthnjL2kUM1jCF/PXYhNRDum/GWeDeBZIiY6MdGJic6STXQ2NWn2VkVur53Nok0BXAjyZ+eEH9h2vTQNX3PTbocTE13eiIkufxATXe5xAMsy0RkiuRaWhuv/teHFEqc4naBiW7UxL7r+TYj/de0fLhQTnQnERJc/iIku1zgWZ6JTo9j+9Tia/jaRBX6N2PfHNcq+1wJmDWTmn+YnhZjockVMdPmBmOgKk4lOwb5cFSoUj+TIUh+CbN1payhO7U4f8eqaQHaFP33iiYkuewgx0WmLkxtioitcJjq7V+i36DNs5ndgxMwrGFjDutkbGLZvFSNH7+Fw3708/SNdMdFlOy4mOjHRPT8mOl2p6lQtm8qNixEPV0C9e4ZTwffpXKk8xXWQ/PAcxEQnJjox0YmJTqOJzhgVQEBoUXqNGUenpFUE3ATX5j34vL0Nl//rn7U4iolOTHRiohMTXSYmTXTpoaz4ZDA2UwfQx3sD39gbSbx5Hr+5g5k563zWZ1liossfxEQnCJZNoZJFiYlOEAoPhaq4iInOypD1smoK7W1RzojZrHAh62XNWFlxEQTBUvinv0svCIKVIiY64dki+fPcICY6K0JMdIIlISY6K0JMdFZqonOoybszVrA5PAjfO/5s/Ws63V93tvhnGmKisyasdQ6fZxOd4kTLWcsY/9YVlg/xZN9NR5r2/5aBG2eT1tyTdZct95/0YqITE52Y6CzZRFeiBR90cCFk1lgWbArgnO8+Vn85mT/uNaXLp/XERCcmurwRE52GMT+nJjrFoTjFbVUSYuMfFaaks5wJUWn3Yk0cCOaulgkUE50JxESXP4iJLtc4lmaiU6MDCbyk8ImnJ033zMM/Ip1iFatQroQOjEWwVcAcJYCY6HJFTHT5gZjoCpGJLv0cK72m4rZ0CAsufo4xHZSUBJKL6EjZFP2YTcB8xESXPYSY6LTFyQ0x0RUuEx2QHPgLI5usZVK5cjgXSSHe7n3mHB9C6vGz5vlankBMdNmOi4lOTHTPj4nuEekkRd4gqWhVOq7sQ4PYnQzfeDvbjlBMdGKiExOdmOg0muhUwK58DapXq0hl91dp08uDluUvs6LbFPbHZst6MdGJiU5MdGKiy8SkiQ49Nb78mSVeTty5HErgH9/Td/5mTkXkUJ7FRJc/iIlOECybQiWLEhOdIBQeClVxEROdlSHrZdUU2tuinBGzWeFC1suasbLiIgiCpWDp39oWBKGQIsVFEIQCQYqLIAgFghQXQRAKBCkugiAUCFJcBEEoEKS4CIJQIEhxEQShQJDiIghCgfD/tmXz+HKHgS8AAAAASUVORK5CYII=;" vertex="1" parent="1">
          <mxGeometry x="455.5" y="1140" width="279" height="87" as="geometry" />
        </mxCell>
        <mxCell id="Wb3i4IcPdHxYaFaxHeRX-15" value="PATH: python/outdir" style="shape=image;verticalLabelPosition=bottom;labelBackgroundColor=default;verticalAlign=top;aspect=fixed;imageAspect=0;image=data:image/png,iVBORw0KGgoAAAANSUhEUgAAAUgAAAAnCAYAAABtwdEIAAAABHNCSVQICAgIfAhkiAAAABl0RVh0U29mdHdhcmUAZ25vbWUtc2NyZWVuc2hvdO8Dvz4AAAAwdEVYdENyZWF0aW9uIFRpbWUAb24uIDE3LiBhcHJpbCAyMDI0IGtsLiAxMC4xNSArMDIwMOYvWZgAABQxSURBVHic7Z13XBTX+oef2V2KoEhXFAWssSAYNYkaDdd2FX+xRbHFrigRFTFGo7GXWGKPLcaCLbHGhl47BKUoKFIEERRREGmKICJl9/eHVBWY5WIkufN8PvsH7Mx533PmnHfOe87MdwVbnQYqJCQkJCTeQvahHZCQkJCorEgBUkJCQqIEpAApISEhUQKymy9CWDNQV/0zBRN6HfbHNzmI7c51KkWk1WrwJfNvBnFqeWsURb/Q+IQZ4eHcfHH3rU9A6CxsNdQwIlTH2mk5brcD8Eu+gfvl5QxuUx1BHX8q0pYa/pRiCL2W/Zl26BinY4O5lnidk5fXMOoLk+LXtUxbIsspglbToayLDOf6FSes5Go5LSHx3lEMaNOH9Ecv1T5RZmFP79b+bF6iwejBX2K1eRNRue/BQxHIjZrSxcmJcRO7YKkj8OTNA3JC2TNwIKe1igxlw8+Z+Os3mF3yJjpHrCUZNb9ewfofm3N71QKm+oHtxBm4HlnBi3ZOnHikFOdPhdkS50+ZyC2wX+xMq/iDbHUMIkFuSafprjjv1yShpTPuCSpxtkSVU4iiwQCWHZtEI2UW0k6hRGVEEXk7shynyak3sC/1rv6K6x4NWn47np62W1kfkBchBX3azVuFc7+m1DU3QEv5nLiAyxxe/BP7vBLJH7aCvi1fzRxOlw7WWNYxwaC6FqqMJAIWDWfSpvuIG95y6jsuYJLdPQ6NdsV46So6vXmI6gVxt24Rl/+3YMi/tg3ENmEPTt978Ezs6FQ0pt/kDnB8GrMWnyFVBT7+uVjcWsnXIxrhviScXDH+FPGj4+rdLHSQcd5xGEvdkwsDhRhbovwRQW40B/p04VB2Tt7xV/BPtqSdew9smihwT8gW54+YcvKrrtcG5z1T0fvFiR9rrWPlJyKvQUEB+rSbs4LxvRtTp7YR1bRySAn34cSixWw9HUvhPU+DGnZf4zi1H+3aWGFcRUlG4kNurv+WaT+HiWsfif9ZypcZKxrSpa85Ace9eJ70J5d9avCvPs0K00hBB4u2bWmQfIy5/YbjNGQpp5+1xvmPnUxur1NQjGD6KX3Gd0H3+nZWjXPCqcdwJo9ayu7zsSKDI0AuEcsc+LLLDNzOPyJLRLCr0t4Jl6/kXFiwmZvp4qstmLTEpr6SW2d90Rv1C2fv7WZwDT+8/ZVYfGaLvqCmPwpLWndpQHX9erTtYEnRDFOMLXH+iENVENQABHRq1UA3J4YHMblq1L3scgCQmdBl3Uq6hC1k5upgMsozfRR0sGj/OU3Tz7F8uCMTB83jaFwzRu1aiUP9/JaUYdJvGTuPufJJ7hXcXKYwqc8E5vywl7N+6vQxif9VFC79LNl0NJosNU6SN+tB57oBuF18jkol4Hs2hBlO3Wi8MIjQwkkCqthgrnpc4xXg7xEOHkcZPs2ePd6HSS4YFJlEuh/h/Pnsd1gSiUolPkWTmWH/3QBM/Nfzy6lnaqV2MlNTDIU0bsVnUrWDOYZG2pjpZ+DzOAPhYxMM5ZCco4Y/2YG4TVhIZicB3603KZrpi7H1TKw/aqJRvy9zFn9BwpbRHLuvVK/uZZQDMkwHzGd6Ky/mf3GWRKUcC/VdLED58CYe57xf97GQqrQKnsXnXxjwW1QSKs2PGbGwJ1U95zNowO/EFcRo7//CosT/ErKvtm/H1U6dTRo5DXp1xuzaRXxSVICSxIueRNbpjF2zUlbZsyLx9ohD06YF9dXZFKlgZE3749AhC8+NR4gpd36VQ9jigfxfs76s8/kvAjtKkq/uZ9OifdxIKGk+I8ZWRfkDVZoPZYX7PBpemcXUBf68KKetksoRDDsxaaEN/vPW4PO0YlcelYkPiU0XqG74euNIZm6Dde1cgo6c5bGUS0uUA8Ufj2ph38+GVR7eiBpacis6dK+PjvV8TifPy/unDIUmKLrVY3Pg3RJSFxUolSAIH3DHW04Thy+pl3KededS1d4YUCYkkKKqhnFNHYTcVJ48AgR9TMx0UCUmklKBg1CMrYr1R0C3tSNrjjih/8c0HL+9wJMiM0LxtkovR7frV3StbYx8uxedt+edodBAIUzhQFxrltmM5Wh8eQOnEmUuCLL8fF+JElAqpWRaonzIBPWeB0FmaUfHxlHsHdCLgZ99mffpzaw9T6j/747UKin6ycyxbVub3LAw7pcj7asQFI34ors5aRcucCND/dNViYHcipLRomtb9PLaTdBvS9tWMh74Borf7ClAhlH7wTjNGcrHpsUbToytivRHVrMHc/ZPxOiYC9+4Fg9q6tS9rHIyTi9g4Mf2DCjoO31ZeDiJnPDduHb8gfOJRZ0uuX3EoIwNIeyxnBZ9ulJDeoRIohwo+pvHcfzoLXGzR2QYd+pIo+eBbPaIJPpV4TeJF4LIHtCRtjV3cig+r/DPBjFxgsD1qGxq9/kGx9bJnB1ymhKzyfKibUQdKyO0FHUx0BRQGNWhftNUXj19xIPHLwtmirIarbBtoOT2z7d4VWqBJZATztENVxiwfjZL7irYfw2sJ86gM14s3h1RuDkh0h80bBmxZR7D6oG9bjh9ZwYUrkOKsSXWnzLRwHqKK52ECyxxi0P/o0bo532jTI8nOuY5SlG2RJSTFs+DtKK2FRg/zUH16imxkY9JK+p0ae0jhqwA9iy+SNct89h2uAH79vtyPyELuZ4ptQnh6MlIaRdbolQUO4eMZJfH2ytN70TQo01XG7h1gvA3dnVe3rjJXbkL7e2qc/j31/9TZVWludN8BlpokxEdwKnx01nnrt7GiBjkTUaw1sOJevnb6FYr+H2wkqRfR2E/pXDpQF6/ARayRM7dfV5OH5TE75nOZN1ZTJ+yiDXfQsqt86zpv4QTDwujvlh/yInG/0IUvR0EfL2i3xisYmyJ86dMZKY0b1ULjVoWzPf6sthXWee+59/9DvNMJcKWqHLEu1V6+4hByeP9UxmROIJxLn0ZvWEYRjoCLxNjuL1/KedORZIqPYApUQrCe1HzkdVi8JkLuCR+S8evT5dvtiYhISHxgakMbwhKSEhIVEqkACkhISFRAu8nxZaQkJD4ByDNICUkJCRKQAqQEhISEiUgBUgJibIQqtJ85HfMHG9bPl1Pib8tUoCU+Mej23EGBx75snNas5IDnG5trLvb0cT4Ha+WCXpYDx5J3w61qJgXcuQY/+sblnte4tKTEHxivThyfhX9S9My+KdQWjtXQmTlviNKiuJlKHgL6DSwY+jKn9lx4wqesTvob6Zmp5A3Ypx32Bs+v1sB/r9TL/8nK4oLaNetT219Aywam1LSpZY3Gcqi/bPoZvn+e7Jg2IMZeyZjk3SE5QOHM2HQ92zccYmIJ//8d8b/ynauCModHyVF8dIUvLWwGvYjqxc3J/bwIf6Yu48Hj+J5lKLmAwMyHapWzSVkxRgWHkrKe/tHWUwBvkLUy//RiuIqkve5Mii0Djl3wlBfO7/ikVk2pr5OHOdWbuWs74cSJpAQQznDeL6i+CmO7TnFTate9LQtcvsX9Gk3fzv7g3y4khLO9aRrHD+7nGEdis8kBH1b+i9bzZar5/lPTCB+qWH4PvZi4zdWajiWr+CdwcnRrvx27x134TxF8eBrga8/12Mw6v9aUXx+uRTFFzNr8Qm8z51g86ilXBI68PWIRgXpl9Ynk1g+34BDPXrjPG0bJ0/5EBR4n5Q3XykSDOm45hQesaeZ3dPo7VmooIdedSVPQm9y93YEkbcjiLwdSfzz/DqKqLsY8pTAh43ZxHH3K/ic2MuKmUeJ17XFpolCfN3FlFNQtSKK4mrqcoIG7Tdfw++4A4ZvNppuT35K8GVOZw0EEwc2ptzlZvpNTl45wfFf7NF6q6jX2YW/5zgstKwY6Zmfadzh0sYOxWacio7TOXj/Fn4pgZzz28w33c3US7nzbXlNwEqrDsMu5mcHt3GbXLewzytq0nb6GvaE3cAvOQD3y6sZ06lmcUFlMWNHZoDNhEVs9vXkz6RgPEJ+Z5FzqzeElDWoYTeKOcdPciYuhOtPg/CMcGetc5MCe4JJd+b4/olHYhgBz4K4cNONWcM+QqdIOULVJvRZ68aRe4FcS72Nd6w3Jy7PpF019du5VAR92s39BbcATy7Fh3D9aSBnfTYz0b72G7O9suslhvLNIPMVxVd78TxJwWWfuYzs04xNAUGvxQQKFMXdmDn5Ms81a9FqzCSc/9iJUW8H1l59LaWTryiuclvKqoUPSE7LQaFnjBBVDkXxH1WoFNZMWlL2GQWK4iPLqSi+5rWq9sEftHHr6Yq3vxK7z2zRF8JJpjp2kwZhkfWQbnvO41hLm6zYEC5vWMH63bd5UTQSFCiK81pR3D25uBiDtiEGuhlkyE0x0osj5Xn2G4FE/bqXhGhF8dLqrlJfUXzU6mAsVqrrrZKkuARU1sboyyBFw5DatWQk30siy9gYAyGBiHglqpQzLPzUnyoyI3pscWPku4rKDmKbfQ+OtBzLul/b4zfWkd3BOYCK3NT4YtdDGXeFnYvPEpepj8346Ti6LSPpk1EcfCCyt5ZiKzMhLq/PV6X14p2sHZXD2YUz2Rgmo+HQSTgd3oVB7/785PW6w5Y9dqpgPXsnm8ZlcWLBPLYEpmPYYQRTF2xlUVovprjFocxXXN/RjdxLe3FzWUv0k5do1rBA937hGFQ9C+PsirmcfpREhmDAR0NcmbZhPRkRPVnrlw0oaDH7Z2b3imHHdxPwinqBTM+UulbZxGSUXfc327lUCpTk9/HD8Ms8FUxo6TiNcbtW8rTtMPZH5YLIeomhXAFSUhQvRVVb1pw2n+uSeO0cv22+yv1kOXV6TeH79b+i+9SeOSeK2CxFURxAZlwF5aNMWq8+xbntctLuXOXYkiXFFeDVqbtIKr+iuJL4+4+hZk2M5QLJfZdw8OdqbLAdzuGaZpgoY4l9mAu5aTy5mwayFySXmFtnknLvPqmGqWSrskh9EEV0xLvXipSRPpw5deV1fw434JPgGXT8Qp9Du1NEXoOybQlmPRk12oKI5V+yYGMUuYDvn5FoNDzB2Gn27LpykCQRY0cwtWecszk+k7ux4kCefwF30GjlyaJBnTHds4d4hUjF9ewHXDv6oODPsGBtWg9Yh+2nZsj8YlCiwKCGPjz14IbHdUKSXhcU5Fm+dhbDX6UkX44UW1IUL01VW9CtgWl1JTH/Ocg5jyAigm9ycdlC9t3Sx86hPTrFji5dUVx57zdcbe3oVtuGzxsPZqWnEeorwKvH30NRXMWLBzE81TfDrJoen9m3QUNuTYfORmjVMcfwSTQP3/NiozLhIbHpMgxM9dX8id3SUTS1prFmHDe8HhTOxHOiue4Vi4a1teixo2huS1Odatht8cI3JRS/lFD8UnxZ3Lsq8lq1MJGJV1yXmbRmyM+7OBDqg2ecH2e8Z9GuioCmtmbeEZl4/7iEs0J/NoWe59ft0+jf1Qrdv2gf5n0qyas/g5QUxUtV1VZlZ5OjkmFoqIdA3q8U5sYTH6dE09iIajJ4ofZSoZKXsbdwn7GExl33qqcAL5q/l6J4bmQkMarPMLe2w7JtMLtWyxnQqxPNrpkjRF7mQdHZrKhZtroz8Rxyc0CQVXxvLjngquGhIEDuI46NnsDe0DeiRHYqj3MQp7guM6f/rm24WPqwdc4UvO88RzD6HKf9rhgVOSzr7lF++NSD3d3s6d7//xizfywTAjYzY8gGAoptTlZ8xvM+leTVvrqSongZqtqZ94i8D1btW2GQ39M16lG/oZz06BieFrtmaipmywTUVYAXS+VUFC8ZVVIkUUlm2Dh/hY3/cQ5sO0lIqz6MsKtDQuhd0osV84rMlyrQ16NaSe2XmUmWUJWqeh/28ZOc28GEZ9Xi4w4WhZsJCkvadKhNdnAIUSLvijmhQdzJMqNFC20eR9wjuujnfjKvEKm4rtGYFh9rE7l7DTuPXiMsNJzbvqE8znzHdcpOIcJ9L+tHDaJ3uxVEtZzA5GF1iwcZUe1ceZTkFfWbNnxb6bpEJEVxMSrfp3YEMORHF+a6JvPL+VTMB3+Pg+U9Djv5FrdbqmK2JtajJmL7Koi7D9NQVjOn5dcTeEsBXqx6ealUUkXxUq/FXcJCNRj078acGXqR5Hg57ldmsLS3nAvb7hUX11WlExn0AJnzYMaPSMAjSQ9z+W0OHy9UXc+NDicyzZDO307ihtyHFIUpVtrhHPrjzl+qOq56fIqdO0ax8bt1zM/6mTPhMhoMdmZs8xiO9j5dZP2xjHLiT7FtyzA2T93KpurbOHTuDinZVTBuaEbq6f1cjVGKU1zPiSI8JJuuA8czMPh3AmMzkOk1pYZW0TuNNq2mzKbty6tcD4rleZYWpp9aY6r5ipjkF8X6oKh2rkRK8orfr596W+m6JCRFcREK3rnEbHHBRWsWkx1/YscPGqRH+XF4hAubrmUWL640xWxBF12zhnR1cGC8hQGaWU+Ju+XDziFriinAi1YvL43KqiheGqo0wgPuk/3RdY6cSwMVeO78DwndGxES+GZ6kEv4hvn8Yr2QIT9tpNereMJ2zeX0iQjS8v1Jv8RGZzcMFw5k7iFHZOmxhOyYh/uxO6S9afu98gL/H0Yy9dksnCctY62xiuTQP9npsIwdXmo8ckEGgfOH4/hwChPGjmH2SGOqKNNJiPBj99Xf8o4RobieG82BsS7oLZnIkE2/4qKvSW7Gc1IfB3P1fl4/FKog16pOmzELGFK3Olq8IjXmDtdXTmXNgaTiY620ds4/sBIpyUuK4hISEhIl8Pd430dCQkLiAyCJk0hULhTWTLp2iNGNS1pdzyV6lQP95wZVnl8k/Dv6LCEKSVFcopKhjXEjS4y0S9puVvEqIZro+MwSvv8Q/B19lhCDFCAlJCQkSkBag5SQkJAoAfUDpKSuXBy5FZ1nz2JEZ4MKfeVMQkLiw/P/cS59/Uw6hDgAAAAASUVORK5CYII=;" vertex="1" parent="1">
          <mxGeometry x="455.5" y="1270" width="328" height="39" as="geometry" />
        </mxCell>
        <mxCell id="Wb3i4IcPdHxYaFaxHeRX-19" style="edgeStyle=orthogonalEdgeStyle;rounded=0;orthogonalLoop=1;jettySize=auto;html=1;exitX=0.5;exitY=1;exitDx=0;exitDy=0;entryX=0.5;entryY=0;entryDx=0;entryDy=0;" edge="1" parent="1" source="Wb3i4IcPdHxYaFaxHeRX-9" target="Wb3i4IcPdHxYaFaxHeRX-5">
          <mxGeometry relative="1" as="geometry" />
        </mxCell>
        <mxCell id="Wb3i4IcPdHxYaFaxHeRX-20" style="edgeStyle=orthogonalEdgeStyle;rounded=0;orthogonalLoop=1;jettySize=auto;html=1;exitX=0.5;exitY=1;exitDx=0;exitDy=0;entryX=0.482;entryY=-0.05;entryDx=0;entryDy=0;entryPerimeter=0;" edge="1" parent="1" source="Wb3i4IcPdHxYaFaxHeRX-5" target="Wb3i4IcPdHxYaFaxHeRX-10">
          <mxGeometry relative="1" as="geometry" />
        </mxCell>
        <mxCell id="Wb3i4IcPdHxYaFaxHeRX-22" style="edgeStyle=orthogonalEdgeStyle;rounded=0;orthogonalLoop=1;jettySize=auto;html=1;exitX=0.5;exitY=1;exitDx=0;exitDy=0;entryX=0.491;entryY=-0.1;entryDx=0;entryDy=0;entryPerimeter=0;" edge="1" parent="1" source="Wb3i4IcPdHxYaFaxHeRX-11" target="Wb3i4IcPdHxYaFaxHeRX-12">
          <mxGeometry relative="1" as="geometry" />
        </mxCell>
        <mxCell id="Wb3i4IcPdHxYaFaxHeRX-24" style="edgeStyle=orthogonalEdgeStyle;rounded=0;orthogonalLoop=1;jettySize=auto;html=1;exitX=0.75;exitY=1;exitDx=0;exitDy=0;entryX=0.457;entryY=-0.034;entryDx=0;entryDy=0;entryPerimeter=0;" edge="1" parent="1" source="Wb3i4IcPdHxYaFaxHeRX-12" target="Wb3i4IcPdHxYaFaxHeRX-14">
          <mxGeometry relative="1" as="geometry" />
        </mxCell>
      </root>
    </mxGraphModel>
  </diagram>
</mxfile>
